<svg xmlns="http://www.w3.org/2000/svg"
  xmlns:xlink="http://www.w3.org/1999/xlink" viewBox="0 0 430 430" width="430" height="430" preserveAspectRatio="xMidYMid meet" style="width: 100%; height: 100%; transform: translate3d(0px, 0px, 0px); content-visibility: visible;">
  <defs>
    <clipPath id="__lottie_element_26">
      <rect width="430" height="430" x="0" y="0"/>
    </clipPath>
    <clipPath id="__lottie_element_28">
      <path d="M0,0 L430,0 L430,430 L0,430z"/>
    </clipPath>
  </defs>
  <g clip-path="url(#__lottie_element_26)">
    <g clip-path="url(#__lottie_element_28)" transform="matrix(1,0,0,1,0,0)" opacity="1" style="display: block;">
      <g transform="matrix(-0.43519261479377747,0.9003373980522156,-0.9003373980522156,-0.43519261479377747,294.4519958496094,292.5)" opacity="1" style="display: block;">
        <g opacity="1" transform="matrix(1,0,0,1,0,0)">
          <path stroke-linecap="round" stroke-linejoin="round" fill-opacity="0" class="secondary" stroke="rgb(8,168,138)" stroke-opacity="1" stroke-width="12" d=" M19.44499969482422,-29.10099983215332 C13.689000129699707,-32.946998596191406 6.921999931335449,-35 0,-35 C-9.281999588012695,-34.999000549316406 -18.18400001525879,-31.312000274658203 -24.74799919128418,-24.74799919128418 C-31.312000274658203,-18.18400001525879 -34.999000549316406,-9.281999588012695 -35,0 C-35,6.921999931335449 -32.946998596191406,13.689000129699707 -29.10099983215332,19.44499969482422 C-25.2549991607666,25.201000213623047 -19.788999557495117,29.687000274658203 -13.394000053405762,32.33599853515625 C-6.999000072479248,34.98500061035156 0.039000000804662704,35.676998138427734 6.828000068664551,34.32699966430664 C13.616999626159668,32.97700119018555 19.854000091552734,29.643999099731445 24.749000549316406,24.749000549316406 C29.643999099731445,19.854000091552734 32.97700119018555,13.616999626159668 34.32699966430664,6.828000068664551 C35.676998138427734,0.039000000804662704 34.98500061035156,-6.999000072479248 32.33599853515625,-13.394000053405762 C29.687000274658203,-19.788999557495117 25.201000213623047,-25.2549991607666 19.44499969482422,-29.10099983215332z"/>
        </g>
        <g opacity="1" transform="matrix(1,0,0,1,0,0)">
          <path stroke-linecap="round" stroke-linejoin="round" fill-opacity="0" class="primary" stroke="rgb(18,19,49)" stroke-opacity="1" stroke-width="12" d=" M69.64900207519531,12.432000160217285 C69.64900207519531,12.432000160217285 73.947998046875,14.914999961853027 73.947998046875,14.914999961853027 C73.947998046875,14.914999961853027 73.947998046875,14.914999961853027 73.947998046875,14.914999961853027 C75.1989974975586,15.635000228881836 76.29499816894531,16.594999313354492 77.17500305175781,17.739999771118164 C78.05500030517578,18.885000228881836 78.69999694824219,20.19099998474121 79.07499694824219,21.584999084472656 C79.44999694824219,22.979000091552734 79.5459976196289,24.43400001525879 79.35800170898438,25.864999771118164 C79.16999816894531,27.29599952697754 78.7020034790039,28.677000045776367 77.98100280761719,29.927000045776367 C77.98100280761719,29.927000045776367 64.9219970703125,52.547000885009766 64.9219970703125,52.547000885009766 C63.4640007019043,55.073001861572266 61.0620002746582,56.915000915527344 58.244998931884766,57.66999816894531 C55.428001403808594,58.42499923706055 52.426998138427734,58.02899932861328 49.9010009765625,56.57099914550781 C49.9010009765625,56.57099914550781 45.5890007019043,54.08000183105469 45.5890007019043,54.08000183105469 C39.20500183105469,59.47200012207031 31.913999557495117,63.68899917602539 24.055999755859375,66.53399658203125 C24.055999755859375,66.53399658203125 24.055999755859375,71.51300048828125 24.055999755859375,71.51300048828125 C24.055999755859375,72.95600128173828 23.77199935913086,74.38500213623047 23.219999313354492,75.71800231933594 C22.667999267578125,77.0510025024414 21.857999801635742,78.26300048828125 20.836999893188477,79.28299713134766 C19.81599998474121,80.3030014038086 18.604999542236328,81.11299896240234 17.270999908447266,81.66500091552734 C15.937000274658203,82.21700286865234 14.508000373840332,82.5009994506836 13.0649995803833,82.5 C13.0649995803833,82.5 -13.053999900817871,82.5 -13.053999900817871,82.5 C-14.496999740600586,82.5009994506836 -15.925999641418457,82.21700286865234 -17.260000228881836,81.66500091552734 C-18.5939998626709,81.11299896240234 -19.80500030517578,80.3030014038086 -20.826000213623047,79.28299713134766 C-21.847000122070312,78.26300048828125 -22.656999588012695,77.0510025024414 -23.208999633789062,75.71800231933594 C-23.76099967956543,74.38500213623047 -24.04599952697754,72.95600128173828 -24.04599952697754,71.51300048828125 C-24.04599952697754,71.51300048828125 -24.04599952697754,66.5510025024414 -24.04599952697754,66.5510025024414 C-31.90399932861328,63.70600128173828 -39.19499969482422,59.48899841308594 -45.57899856567383,54.09700012207031 C-45.57899856567383,54.09700012207031 -49.89099884033203,56.5890007019043 -49.89099884033203,56.5890007019043 C-52.41699981689453,58.047000885009766 -55.417999267578125,58.44200134277344 -58.23500061035156,57.6870002746582 C-61.051998138427734,56.93199920654297 -63.45399856567383,55.09000015258789 -64.91200256347656,52.56399917602539 C-64.91200256347656,52.56399917602539 -77.9749984741211,29.94499969482422 -77.9749984741211,29.94499969482422 C-78.697998046875,28.69499969482422 -79.16799926757812,27.31399917602539 -79.35700225830078,25.881999969482422 C-79.5459976196289,24.450000762939453 -79.45099639892578,22.9950008392334 -79.0770034790039,21.600000381469727 C-78.7030029296875,20.204999923706055 -78.05899810791016,18.89699935913086 -77.17900085449219,17.750999450683594 C-76.29900360107422,16.604999542236328 -75.2020034790039,15.645000457763672 -73.95099639892578,14.923999786376953 C-73.95099639892578,14.923999786376953 -69.6520004272461,12.440999984741211 -69.6520004272461,12.440999984741211 C-71.10700225830078,4.210999965667725 -71.10700225830078,-4.210999965667725 -69.6520004272461,-12.440999984741211 C-69.6520004272461,-12.440999984741211 -73.95099639892578,-14.923999786376953 -73.95099639892578,-14.923999786376953 C-75.2020034790039,-15.645000457763672 -76.29900360107422,-16.604999542236328 -77.17900085449219,-17.750999450683594 C-78.05899810791016,-18.89699935913086 -78.7030029296875,-20.204999923706055 -79.0770034790039,-21.600000381469727 C-79.45099639892578,-22.9950008392334 -79.5459976196289,-24.450000762939453 -79.35700225830078,-25.881999969482422 C-79.16799926757812,-27.31399917602539 -78.697998046875,-28.69499969482422 -77.9749984741211,-29.94499969482422 C-77.9749984741211,-29.94499969482422 -64.91600036621094,-52.56399917602539 -64.91600036621094,-52.56399917602539 C-63.45800018310547,-55.09000015258789 -61.055999755859375,-56.93199920654297 -58.23899841308594,-57.6870002746582 C-55.422000885009766,-58.44200134277344 -52.42100143432617,-58.047000885009766 -49.89500045776367,-56.5890007019043 C-49.89500045776367,-56.5890007019043 -45.58300018310547,-54.09700012207031 -45.58300018310547,-54.09700012207031 C-39.19900131225586,-59.48899841308594 -31.908000946044922,-63.70600128173828 -24.049999237060547,-66.5510025024414 C-24.049999237060547,-66.5510025024414 -24.049999237060547,-71.51300048828125 -24.049999237060547,-71.51300048828125 C-24.049999237060547,-72.95600128173828 -23.766000747680664,-74.38500213623047 -23.214000701904297,-75.71800231933594 C-22.66200065612793,-77.0510025024414 -21.851999282836914,-78.26300048828125 -20.83099937438965,-79.28299713134766 C-19.809999465942383,-80.3030014038086 -18.599000930786133,-81.11299896240234 -17.264999389648438,-81.66500091552734 C-15.930999755859375,-82.21700286865234 -14.501999855041504,-82.5009994506836 -13.059000015258789,-82.5 C-13.059000015258789,-82.5 13.055999755859375,-82.5 13.055999755859375,-82.5 C14.49899959564209,-82.5009994506836 15.928000450134277,-82.21700286865234 17.261999130249023,-81.66500091552734 C18.59600067138672,-81.11299896240234 19.80699920654297,-80.3030014038086 20.827999114990234,-79.28299713134766 C21.849000930786133,-78.26300048828125 22.659000396728516,-77.0510025024414 23.211000442504883,-75.71800231933594 C23.76300048828125,-74.38500213623047 24.047000885009766,-72.95600128173828 24.047000885009766,-71.51300048828125 C24.047000885009766,-71.51300048828125 24.047000885009766,-66.56900024414062 24.047000885009766,-66.56900024414062 C31.905000686645508,-63.7239990234375 39.19599914550781,-59.50699996948242 45.58000183105469,-54.1150016784668 C45.58000183105469,-54.1150016784668 49.891998291015625,-56.606998443603516 49.891998291015625,-56.606998443603516 C52.417999267578125,-58.064998626708984 55.41899871826172,-58.459999084472656 58.236000061035156,-57.70500183105469 C61.053001403808594,-56.95000076293945 63.45500183105469,-55.108001708984375 64.91300201416016,-52.582000732421875 C64.91300201416016,-52.582000732421875 77.97200012207031,-29.952999114990234 77.97200012207031,-29.952999114990234 C78.69499969482422,-28.702999114990234 79.16500091552734,-27.322999954223633 79.35399627685547,-25.891000747680664 C79.54299926757812,-24.458999633789062 79.4489974975586,-23.003000259399414 79.07499694824219,-21.607999801635742 C78.70099639892578,-20.21299934387207 78.05599975585938,-18.9060001373291 77.1760025024414,-17.760000228881836 C76.2959976196289,-16.61400032043457 75.1989974975586,-15.654000282287598 73.947998046875,-14.932999610900879 C73.947998046875,-14.932999610900879 69.64900207519531,-12.449999809265137 69.64900207519531,-12.449999809265137 C71.10399627685547,-4.21999979019165 71.10399627685547,4.202000141143799 69.64900207519531,12.432000160217285z"/>
        </g>
      </g>
      <g transform="matrix(-0.43519261479377747,-0.9003373980522156,0.9003373980522156,-0.43519261479377747,157.9929962158203,154)" opacity="1" style="display: block;">
        <g opacity="1" transform="matrix(1,0,0,1,0,0)">
          <path stroke-linecap="butt" stroke-linejoin="miter" fill-opacity="0" stroke-miterlimit="4" class="secondary" stroke="rgb(8,168,138)" stroke-opacity="1" stroke-width="12" d=" M0,-50 C27.594999313354492,-50 50,-27.594999313354492 50,0 C50,27.594999313354492 27.594999313354492,50 0,50 C-27.594999313354492,50 -50,27.594999313354492 -50,0 C-50,-27.594999313354492 -27.594999313354492,-50 0,-50z"/>
        </g>
        <g opacity="1" transform="matrix(1,0,0,1,0,0)">
          <path stroke-linecap="round" stroke-linejoin="round" fill-opacity="0" class="primary" stroke="rgb(18,19,49)" stroke-opacity="1" stroke-width="12" d=" M70.81199645996094,59.67599868774414 C70.81199645996094,59.67599868774414 74.05999755859375,65.30400085449219 74.05999755859375,65.30400085449219 C75.00700378417969,66.93900299072266 75.62200164794922,68.74500274658203 75.87000274658203,70.61799621582031 C76.11799621582031,72.49099731445312 75.99500274658203,74.3949966430664 75.50700378417969,76.22100067138672 C75.01899719238281,78.0469970703125 74.177001953125,79.75700378417969 73.0270004272461,81.25700378417969 C71.87699890136719,82.75700378417969 70.44300079345703,84.01599884033203 68.80699920654297,84.96099853515625 C68.80699920654297,84.96099853515625 39.20000076293945,102.05500030517578 39.20000076293945,102.05500030517578 C35.89400100708008,103.96399688720703 31.96500015258789,104.48100280761719 28.277999877929688,103.49299621582031 C24.590999603271484,102.50499725341797 21.44700050354004,100.09300231933594 19.538000106811523,96.78700256347656 C19.538000106811523,96.78700256347656 16.2810001373291,91.13999938964844 16.2810001373291,91.13999938964844 C5.514999866485596,93.0739974975586 -5.510000228881836,93.08300018310547 -16.27899932861328,91.16500091552734 C-16.27899932861328,91.16500091552734 -19.538000106811523,96.80899810791016 -19.538000106811523,96.80899810791016 C-20.482999801635742,98.44499969482422 -21.739999771118164,99.87899780273438 -23.23900032043457,101.02899932861328 C-24.738000869750977,102.17900085449219 -26.447999954223633,103.02200317382812 -28.273000717163086,103.51100158691406 C-30.097999572753906,104 -32.000999450683594,104.12300109863281 -33.874000549316406,103.8759994506836 C-35.74700164794922,103.62899780273438 -37.551998138427734,103.01499938964844 -39.1879997253418,102.06999969482422 C-39.1879997253418,102.06999969482422 -68.7959976196289,84.97599792480469 -68.7959976196289,84.97599792480469 C-70.43199920654297,84.03199768066406 -71.86699676513672,82.7750015258789 -73.01699829101562,81.2770004272461 C-74.16699981689453,79.77899932861328 -75.01200103759766,78.06900024414062 -75.5009994506836,76.24400329589844 C-75.98999786376953,74.41899871826172 -76.11499786376953,72.51599884033203 -75.86900329589844,70.64299774169922 C-75.62300109863281,68.7699966430664 -75.01000213623047,66.96399688720703 -74.06500244140625,65.3280029296875 C-74.06500244140625,65.3280029296875 -70.81800079345703,59.70399856567383 -70.81800079345703,59.70399856567383 C-77.86399841308594,51.33599853515625 -83.36900329589844,41.784000396728516 -87.0770034790039,31.493000030517578 C-87.0770034790039,31.493000030517578 -93.59500122070312,31.496000289916992 -93.59500122070312,31.496000289916992 C-97.41200256347656,31.496000289916992 -101.0739974975586,29.979000091552734 -103.77300262451172,27.280000686645508 C-106.47200012207031,24.58099937438965 -107.98799896240234,20.920000076293945 -107.98799896240234,17.10300064086914 C-107.98799896240234,17.10300064086914 -107.99299621582031,-17.08799934387207 -107.99299621582031,-17.08799934387207 C-107.99500274658203,-18.979000091552734 -107.6240005493164,-20.85099983215332 -106.9010009765625,-22.597999572753906 C-106.1780014038086,-24.344999313354492 -105.11799621582031,-25.93199920654297 -103.78099822998047,-27.268999099731445 C-102.44400024414062,-28.606000900268555 -100.85700225830078,-29.666000366210938 -99.11000061035156,-30.388999938964844 C-97.36299896240234,-31.11199951171875 -95.49099731445312,-31.482999801635742 -93.5999984741211,-31.48200035095215 C-93.5999984741211,-31.48200035095215 -87.10199737548828,-31.482999801635742 -87.10199737548828,-31.482999801635742 C-83.36499786376953,-41.76499938964844 -77.85399627685547,-51.31100082397461 -70.81800079345703,-59.6879997253418 C-70.81800079345703,-59.6879997253418 -74.06600189208984,-65.31600189208984 -74.06600189208984,-65.31600189208984 C-75.01300048828125,-66.9530029296875 -75.62799835205078,-68.76000213623047 -75.875,-70.63400268554688 C-76.12200164794922,-72.50800323486328 -75.99700164794922,-74.41300201416016 -75.50800323486328,-76.23899841308594 C-75.01899719238281,-78.06500244140625 -74.17500305175781,-79.7770004272461 -73.02300262451172,-81.2760009765625 C-71.87100219726562,-82.7750015258789 -70.43499755859375,-84.03399658203125 -68.7969970703125,-84.97799682617188 C-68.7969970703125,-84.97799682617188 -39.189998626708984,-102.0719985961914 -39.189998626708984,-102.0719985961914 C-35.88399887084961,-103.98100280761719 -31.954999923706055,-104.49700164794922 -28.26799964904785,-103.50900268554688 C-24.58099937438965,-102.52100372314453 -21.437000274658203,-100.10900115966797 -19.527999877929688,-96.8030014038086 C-19.527999877929688,-96.8030014038086 -16.270999908447266,-91.15699768066406 -16.270999908447266,-91.15699768066406 C-5.505000114440918,-93.09100341796875 5.519999980926514,-93.0999984741211 16.288999557495117,-91.18199920654297 C16.288999557495117,-91.18199920654297 19.535999298095703,-96.80599975585938 19.535999298095703,-96.80599975585938 C20.481000900268555,-98.44200134277344 21.738000869750977,-99.8759994506836 23.23699951171875,-101.0260009765625 C24.736000061035156,-102.1760025024414 26.445999145507812,-103.01799774169922 28.270999908447266,-103.50700378417969 C30.09600067138672,-103.99600219726562 31.999000549316406,-104.12000274658203 33.87200164794922,-103.87300109863281 C35.744998931884766,-103.6259994506836 37.55099868774414,-103.01200103759766 39.1870002746582,-102.06700134277344 C39.1870002746582,-102.06700134277344 68.78900146484375,-84.97599792480469 68.78900146484375,-84.97599792480469 C70.42500305175781,-84.03199768066406 71.86100006103516,-82.7750015258789 73.01100158691406,-81.2770004272461 C74.16100311279297,-79.77899932861328 75.00599670410156,-78.06800079345703 75.49500274658203,-76.24299621582031 C75.98400115966797,-74.41799926757812 76.10800170898438,-72.51499938964844 75.86199951171875,-70.64199829101562 C75.61599731445312,-68.76899719238281 75.00399780273438,-66.96299743652344 74.05899810791016,-65.3270034790039 C74.05899810791016,-65.3270034790039 70.822998046875,-59.722999572753906 70.822998046875,-59.722999572753906 C77.86900329589844,-51.35499954223633 83.37300109863281,-41.80400085449219 87.08100128173828,-31.51300048828125 C87.08100128173828,-31.51300048828125 93.5999984741211,-31.514999389648438 93.5999984741211,-31.514999389648438 C97.41699981689453,-31.514999389648438 101.0790023803711,-29.999000549316406 103.77799987792969,-27.299999237060547 C106.47699737548828,-24.60099983215332 107.99299621582031,-20.93899917602539 107.99299621582031,-17.121999740600586 C107.99299621582031,-17.121999740600586 107.98699951171875,17.076000213623047 107.98699951171875,17.076000213623047 C107.98899841308594,18.966999053955078 107.61799621582031,20.839000701904297 106.8949966430664,22.586000442504883 C106.1719970703125,24.33300018310547 105.11199951171875,25.920000076293945 103.7750015258789,27.256999969482422 C102.43800354003906,28.5939998626709 100.85099792480469,29.65399932861328 99.10399627685547,30.37700080871582 C97.35700225830078,31.100000381469727 95.48500061035156,31.469999313354492 93.59400177001953,31.4689998626709 C93.59400177001953,31.4689998626709 87.09700012207031,31.469999313354492 87.09700012207031,31.469999313354492 C83.36000061035156,41.75199890136719 77.8479995727539,51.29899978637695 70.81199645996094,59.67599868774414z"/>
        </g>
      </g>
    </g>
  </g>
</svg>