<svg xmlns="http://www.w3.org/2000/svg" version="1.1"
    xmlns:xlink="http://www.w3.org/1999/xlink" width="512" height="512" x="0" y="0" viewBox="0 0 496 496" style="enable-background:new 0 0 512 512" xml:space="preserve" class="hovered-paths">
    <g>
        <path d="M472 0H171.528a23.986 23.986 0 0 0-22.776 16.408L146.232 24H120c-13.232 0-24 10.768-24 24v10.36C72.904 65.264 56 86.688 56 112c0 16.712 7.4 31.696 19.048 41.968-17.896 13.608-30.144 33.72-33.752 56.064C17.544 216.504 0 238.216 0 264c0 30.872 25.128 56 56 56v48h36.04a126.362 126.362 0 0 0 13.712 32.984l-25.512 25.52 45.256 45.256 25.52-25.512A126.362 126.362 0 0 0 184 459.96V496h64v-36.04a126.362 126.362 0 0 0 32.984-13.712l25.52 25.512 45.256-45.256-25.512-25.52A126.362 126.362 0 0 0 339.96 368H376v-64h-36.04a126.362 126.362 0 0 0-13.712-32.984L349.256 248H448V128h24c13.232 0 24-10.768 24-24V24c0-13.232-10.768-24-24-24zM360 16c13.232 0 24 10.768 24 24s-10.768 24-24 24-24-10.768-24-24 10.768-24 24-24zm-56 0h24.208C323.128 22.704 320 30.96 320 40c0 22.056 17.944 40 40 40 9.04 0 17.296-3.128 24-8.208V128h-80V16zm-65.472 0c-3.312 9.288-12.112 16-22.528 16s-19.216-6.712-22.528-16h45.056zM72 112c0-22.056 17.944-40 40-40s40 17.944 40 40-17.944 40-40 40c-8.2 0-15.832-2.496-22.184-6.752l-.216-.44c-.08.04-.144.088-.224.128C78.904 137.712 72 125.656 72 112zm17.488 51.24A56.53 56.53 0 0 0 96 165.648v59.248a56.12 56.12 0 0 0-38.2-16.768c4.2-18.448 15.68-34.696 31.688-44.888zM56 304c-22.056 0-40-17.944-40-40s17.944-40 40-40c12.072 0 23.424 5.56 30.96 14.768l-6.728 6.728 25.512 25.52A126.362 126.362 0 0 0 92.032 304H56zm272-57.368-22.192 22.192 3.608 5.448c8 12.088 13.504 25.312 16.336 39.32l1.304 6.408H360v32h-32.944l-1.304 6.408c-2.832 14.008-8.336 27.232-16.336 39.32l-3.608 5.448 23.336 23.336-22.632 22.632-23.336-23.336-5.448 3.608c-12.088 8-25.312 13.504-39.32 16.336L232 447.056V480h-32v-32.944l-6.408-1.304c-14.008-2.832-27.232-8.336-39.32-16.336l-5.448-3.608-23.336 23.336-22.632-22.632 23.336-23.336-3.608-5.448c-8-12.088-13.504-25.312-16.336-39.32L104.944 352H72v-32h32.944l1.304-6.408c2.832-14.008 8.336-27.232 16.336-39.32l3.608-5.448-23.336-23.336 22.632-22.632 23.336 23.336 5.448-3.608c12.088-8 25.312-13.504 39.32-16.336l6.408-1.304V192h32v32.944l6.408 1.304c14.008 2.832 27.232 8.336 39.32 16.336l5.448 3.608 23.336-23.336L328 244.352v2.28zM432 232h-93.728l-31.768-31.768-25.52 25.512A126.362 126.362 0 0 0 248 212.032V176h-64v36.04a126.362 126.362 0 0 0-32.984 13.712l-25.52-25.512L112 213.728V168c30.872 0 56-25.128 56-56s-25.128-56-56-56v-8c0-4.416 3.584-8 8-8h37.768l6.168-18.528A7.997 7.997 0 0 1 171.528 16h5.28c3.72 18.232 19.88 32 39.192 32s35.472-13.768 39.192-32H288v88.208C281.296 99.128 273.04 96 264 96c-22.056 0-40 17.944-40 40s17.944 40 40 40c19.312 0 35.472-13.768 39.192-32H432v88zm-144-96c0 13.232-10.768 24-24 24s-24-10.768-24-24 10.768-24 24-24 24 10.768 24 24zm192-32c0 4.416-3.584 8-8 8h-24V96h-16v32h-32V40c0-9.04-3.128-17.296-8.208-24H432v64h16V16h24c4.416 0 8 3.584 8 8v80z" fill="#000000" opacity="1" data-original="#000000" class="hovered-path"></path>
        <path d="M56 240c-13.232 0-24 10.768-24 24s10.768 24 24 24 24-10.768 24-24-10.768-24-24-24zm0 32c-4.416 0-8-3.584-8-8s3.584-8 8-8 8 3.584 8 8-3.584 8-8 8zM112 136c13.232 0 24-10.768 24-24s-10.768-24-24-24-24 10.768-24 24 10.768 24 24 24zm0-32c4.416 0 8 3.584 8 8s-3.584 8-8 8-8-3.584-8-8 3.584-8 8-8zM216 256c-44.112 0-80 35.888-80 80s35.888 80 80 80c15.168 0 29.944-4.272 42.728-12.36l-8.56-13.512C239.952 396.584 228.144 400 216 400c-35.288 0-64-28.712-64-64s28.712-64 64-64 64 28.712 64 64c0 17.008-6.6 33.016-18.584 45.096l11.36 11.264C287.752 377.272 296 357.256 296 336c0-44.112-35.888-80-80-80z" fill="#000000" opacity="1" data-original="#000000" class="hovered-path"></path>
        <path d="M216 288c-26.472 0-48 21.528-48 48s21.528 48 48 48 48-21.528 48-48-21.528-48-48-48zm0 80c-17.648 0-32-14.352-32-32s14.352-32 32-32 32 14.352 32 32-14.352 32-32 32z" fill="#000000" opacity="1" data-original="#000000" class="hovered-path"></path>
    </g>
</svg>