<svg xmlns="http://www.w3.org/2000/svg"
    xmlns:xlink="http://www.w3.org/1999/xlink" viewBox="0 0 430 430" width="430" height="430" preserveAspectRatio="xMidYMid meet" style="width: 100%; height: 100%; transform: translate3d(0px, 0px, 0px); content-visibility: visible;">
    <defs>
        <clipPath id="__lottie_element_26">
            <rect width="430" height="430" x="0" y="0"/>
        </clipPath>
        <clipPath id="__lottie_element_28">
            <path d="M0,0 L430,0 L430,430 L0,430z"/>
        </clipPath>
    </defs>
    <g clip-path="url(#__lottie_element_26)">
        <g clip-path="url(#__lottie_element_28)" transform="matrix(1,0,0,1,0,0)" opacity="1" style="display: block;">
            <g transform="matrix(1,0,0,1,-35,-41)" opacity="1" style="display: block;">
                <g opacity="1" transform="matrix(1,0,0,1,331.16400146484375,124.05400085449219)">
                    <path stroke-linecap="round" stroke-linejoin="round" fill-opacity="0" class="secondary" stroke="rgb(8,168,138)" stroke-opacity="1" stroke-width="12" d=" M-5.794000148773193,14.939000129699707 C-5.794000148773193,14.939000129699707 -11.890999794006348,-8.842000007629395 -11.890999794006348,-8.842000007629395 C-11.890999794006348,-8.842000007629395 11.890999794006348,-14.939000129699707 11.890999794006348,-14.939000129699707"/>
                </g>
            </g>
            <g transform="matrix(1,0,0,1,215,209)" opacity="1" style="display: block;">
                <g opacity="1" transform="matrix(1,0,0,1,0,0)">
                    <path stroke-linecap="round" stroke-linejoin="round" fill-opacity="0" class="secondary" stroke="rgb(8,168,138)" stroke-opacity="1" stroke-width="12" d=" M68.50399780273438,-133.95799255371094 C126.00599670410156,-107.86799621582031 157.30499267578125,-59.518001556396484 160.0970001220703,-7.002999782562256"/>
                </g>
            </g>
            <g transform="matrix(-1,0,0,-1,465,471)" opacity="1" style="display: block;">
                <g opacity="1" transform="matrix(1,0,0,1,331.16400146484375,124.05400085449219)">
                    <path stroke-linecap="round" stroke-linejoin="round" fill-opacity="0" class="secondary" stroke="rgb(8,168,138)" stroke-opacity="1" stroke-width="12" d=" M-5.794000148773193,14.939000129699707 C-5.794000148773193,14.939000129699707 -11.890999794006348,-8.842000007629395 -11.890999794006348,-8.842000007629395 C-11.890999794006348,-8.842000007629395 11.890999794006348,-14.939000129699707 11.890999794006348,-14.939000129699707"/>
                </g>
            </g>
            <g transform="matrix(-1,0,0,-1,215,221)" opacity="1" style="display: block;">
                <g opacity="1" transform="matrix(1,0,0,1,0,0)">
                    <path stroke-linecap="round" stroke-linejoin="round" fill-opacity="0" class="secondary" stroke="rgb(8,168,138)" stroke-opacity="1" stroke-width="12" d=" M69.03399658203125,-134.5659942626953 C126.25399780273438,-108.31400299072266 158.06700134277344,-60.069000244140625 161.03199768066406,-7.38100004196167"/>
                </g>
            </g>
            <g transform="matrix(1,0,0,1,-32,0)" opacity="1" style="display: block;">
                <g opacity="1" transform="matrix(1,0,0,1,-1.3000030517578125,-0.40000152587890625)">
                    <g opacity="1" transform="matrix(1,0,0,1,180.68099975585938,55.558998107910156)">
                        <path stroke-linecap="round" stroke-linejoin="round" fill-opacity="0" class="secondary" stroke="rgb(8,168,138)" stroke-opacity="1" stroke-width="12" d=" M40.84600067138672,12.032999992370605 C40.84600067138672,12.032999992370605 40.84600067138672,-4.868000030517578 40.84600067138672,-4.868000030517578 C40.84600067138672,-9.633999824523926 36.946998596191406,-13.532999992370605 32.180999755859375,-13.532999992370605 C32.180999755859375,-13.532999992370605 -30.430999755859375,-13.532999992370605 -30.430999755859375,-13.532999992370605 C-35.196998596191406,-13.532999992370605 -39.09600067138672,-9.633999824523926 -39.09600067138672,-4.868000030517578 C-39.09600067138672,-4.868000030517578 -39.09600067138672,12.032999992370605 -39.09600067138672,12.032999992370605"/>
                    </g>
                    <g opacity="1" transform="matrix(1,0,0,1,180.6790008544922,138.35499572753906)">
                        <path stroke-linecap="round" stroke-linejoin="round" fill-opacity="0" class="primary" stroke="rgb(18,19,49)" stroke-opacity="1" stroke-width="12" d=" M-70.65699768066406,63.76300048828125 C-70.65699768066406,63.76300048828125 72.90699768066406,63.76300048828125 72.90699768066406,63.76300048828125 C84.61399841308594,63.76300048828125 94.19300079345703,54.18299865722656 94.19300079345703,42.47600173950195 C94.19300079345703,42.47600173950195 94.19300079345703,-47.762001037597656 94.19300079345703,-47.762001037597656 C94.19300079345703,-60 84.18099975585938,-70.01300048828125 71.94300079345703,-70.01300048828125 C71.94300079345703,-70.01300048828125 -70.05699920654297,-70.01300048828125 -70.05699920654297,-70.01300048828125 C-82.09500122070312,-70.01300048828125 -91.94300079345703,-60.16400146484375 -91.94300079345703,-48.125999450683594 C-91.94300079345703,-48.125999450683594 -91.94300079345703,42.47600173950195 -91.94300079345703,42.47600173950195 C-91.94300079345703,54.18299865722656 -82.36399841308594,63.76300048828125 -70.65699768066406,63.76300048828125z"/>
                    </g>
                    <g opacity="1" transform="matrix(1,0,0,1,180.68099975585938,159.656005859375)">
                        <path stroke-linecap="round" stroke-linejoin="round" fill-opacity="0" class="secondary" stroke="rgb(8,168,138)" stroke-opacity="1" stroke-width="12" d=" M20.711000442504883,-9.829999923706055 C20.711000442504883,-9.829999923706055 20.753000259399414,1.5859999656677246 20.753000259399414,1.5859999656677246 C20.753000259399414,1.5859999656677246 -19.2810001373291,1.5859999656677246 -19.2810001373291,1.5859999656677246 C-19.2810001373291,1.5859999656677246 -19.323999404907227,-9.829999923706055 -19.323999404907227,-9.829999923706055"/>
                        <path class="secondary" fill="rgb(8,168,138)" fill-opacity="1" d=" M20.711000442504883,-9.829999923706055 C20.711000442504883,-9.829999923706055 20.753000259399414,1.5859999656677246 20.753000259399414,1.5859999656677246 C20.753000259399414,1.5859999656677246 -19.2810001373291,1.5859999656677246 -19.2810001373291,1.5859999656677246 C-19.2810001373291,1.5859999656677246 -19.323999404907227,-9.829999923706055 -19.323999404907227,-9.829999923706055"/>
                    </g>
                    <g opacity="1" transform="matrix(1,0,0,1,180.6790008544922,148.9459991455078)">
                        <path stroke-linecap="round" stroke-linejoin="round" fill-opacity="0" class="primary" stroke="rgb(18,19,49)" stroke-opacity="1" stroke-width="12" d=" M91.94300079345703,0 C91.94300079345703,0 -91.94300079345703,0 -91.94300079345703,0"/>
                    </g>
                </g>
            </g>
            <g transform="matrix(1,0,0,1,-38,-54.99998474121094)" opacity="1" style="display: block;">
                <g opacity="1" transform="matrix(1,0,0,1,317.9419860839844,283.6409912109375)">
                    <path stroke-linecap="round" stroke-linejoin="round" fill-opacity="0" class="secondary" stroke="rgb(8,168,138)" stroke-opacity="1" stroke-width="12" d=" M40.84600067138672,12.032999992370605 C40.84600067138672,12.032999992370605 40.84600067138672,-4.868000030517578 40.84600067138672,-4.868000030517578 C40.84600067138672,-9.633999824523926 36.946998596191406,-13.532999992370605 32.180999755859375,-13.532999992370605 C32.180999755859375,-13.532999992370605 -30.430999755859375,-13.532999992370605 -30.430999755859375,-13.532999992370605 C-35.196998596191406,-13.532999992370605 -39.09600067138672,-9.633999824523926 -39.09600067138672,-4.868000030517578 C-39.09600067138672,-4.868000030517578 -39.09600067138672,12.032999992370605 -39.09600067138672,12.032999992370605"/>
                </g>
                <g opacity="1" transform="matrix(1,0,0,1,317.9410095214844,366.43701171875)">
                    <path stroke-linecap="round" stroke-linejoin="round" fill-opacity="0" class="primary" stroke="rgb(18,19,49)" stroke-opacity="1" stroke-width="12" d=" M-70.65699768066406,63.76300048828125 C-70.65699768066406,63.76300048828125 72.90699768066406,63.76300048828125 72.90699768066406,63.76300048828125 C84.61399841308594,63.76300048828125 94.19300079345703,54.18299865722656 94.19300079345703,42.47600173950195 C94.19300079345703,42.47600173950195 94.19300079345703,-47.762001037597656 94.19300079345703,-47.762001037597656 C94.19300079345703,-60 84.18099975585938,-70.01300048828125 71.94300079345703,-70.01300048828125 C71.94300079345703,-70.01300048828125 -70.05699920654297,-70.01300048828125 -70.05699920654297,-70.01300048828125 C-82.09500122070312,-70.01300048828125 -91.94300079345703,-60.16400146484375 -91.94300079345703,-48.125999450683594 C-91.94300079345703,-48.125999450683594 -91.94300079345703,42.47600173950195 -91.94300079345703,42.47600173950195 C-91.94300079345703,54.18299865722656 -82.36399841308594,63.76300048828125 -70.65699768066406,63.76300048828125z"/>
                </g>
                <g opacity="1" transform="matrix(1,0,0,1,317.9419860839844,387.7380065917969)">
                    <path stroke-linecap="round" stroke-linejoin="round" fill-opacity="0" class="secondary" stroke="rgb(8,168,138)" stroke-opacity="1" stroke-width="12" d=" M20.711000442504883,-9.829999923706055 C20.711000442504883,-9.829999923706055 20.753000259399414,1.5859999656677246 20.753000259399414,1.5859999656677246 C20.753000259399414,1.5859999656677246 -19.2810001373291,1.5859999656677246 -19.2810001373291,1.5859999656677246 C-19.2810001373291,1.5859999656677246 -19.323999404907227,-9.829999923706055 -19.323999404907227,-9.829999923706055"/>
                    <path class="secondary" fill="rgb(8,168,138)" fill-opacity="1" d=" M20.711000442504883,-9.829999923706055 C20.711000442504883,-9.829999923706055 20.753000259399414,1.5859999656677246 20.753000259399414,1.5859999656677246 C20.753000259399414,1.5859999656677246 -19.2810001373291,1.5859999656677246 -19.2810001373291,1.5859999656677246 C-19.2810001373291,1.5859999656677246 -19.323999404907227,-9.829999923706055 -19.323999404907227,-9.829999923706055"/>
                </g>
                <g opacity="1" transform="matrix(1,0,0,1,317.9410095214844,377.02801513671875)">
                    <path stroke-linecap="round" stroke-linejoin="round" fill-opacity="0" class="primary" stroke="rgb(18,19,49)" stroke-opacity="1" stroke-width="12" d=" M91.94300079345703,0 C91.94300079345703,0 -91.94300079345703,0 -91.94300079345703,0"/>
                </g>
            </g>
        </g>
    </g>
</svg>