<svg xmlns="http://www.w3.org/2000/svg"
    xmlns:xlink="http://www.w3.org/1999/xlink" viewBox="0 0 430 430" width="430" height="430" preserveAspectRatio="xMidYMid meet" style="width: 100%; height: 100%; transform: translate3d(0px, 0px, 0px); content-visibility: visible;">
    <defs>
        <clipPath id="__lottie_element_26">
            <rect width="430" height="430" x="0" y="0"/>
        </clipPath>
        <clipPath id="__lottie_element_28">
            <path d="M0,0 L430,0 L430,430 L0,430z"/>
        </clipPath>
        <g id="__lottie_element_35">
            <g transform="matrix(0.7499344348907471,0.00991839449852705,-0.00991839449852705,0.7499344348907471,279.2176818847656,214.23080444335938)" opacity="1" style="display: none;">
                <path fill="rgb(255,0,0)" fill-opacity="1" d=" M152.4259033203125,-126.49610137939453 C152.4259033203125,-4.375741958618164 97.87611389160156,94.6222915649414 30.584999084472656,94.6222915649414 C-36.70611572265625,94.6222915649414 -91.25591278076172,-4.375741958618164 -91.25591278076172,-126.49610137939453 C-91.25591278076172,-144.5463104248047 -36.70611572265625,-171.62228393554688 30.584999084472656,-171.62228393554688 C90.25993347167969,-171.62228393554688 139.91468811035156,-150.32872009277344 150.3900604248047,-132.91944885253906 C151.72695922851562,-130.69752502441406 152.4259033203125,-128.53929138183594 152.4259033203125,-126.49610137939453z M-45.32405090332031,-70.56814575195312 C-45.32405090332031,-76.67261505126953 -35.87876892089844,-81.62135314941406 -24.226234436035156,-81.62135314941406 C-12.573699951171875,-81.62135314941406 -3.1274187564849854,-76.67261505126953 -3.1274187564849854,-70.56814575195312 M64.93335723876953,-70.4482421875 C64.93335723876953,-76.5527114868164 74.379638671875,-81.50077819824219 86.03217315673828,-81.50077819824219 C97.68470764160156,-81.50077819824219 107.13031768798828,-76.5527114868164 107.13031768798828,-70.4482421875 M62.951210021972656,2.018099308013916 C62.951210021972656,2.018099308013916 41.42118835449219,-6.997504234313965 32.033023834228516,-6.997504234313965 C22.384130477905273,-6.997504234313965 1.691611647605896,2.018099308013916 1.691611647605896,2.018099308013916 C4.132124423980713,14.010795593261719 15.444046020507812,23.636924743652344 32.360782623291016,23.636924743652344 C49.27751541137695,23.636924743652344 60.73899841308594,14.010795593261719 62.951210021972656,2.018099308013916z"/>
                <g opacity="1" transform="matrix(1,0,0,1,0,0)">
                    <path stroke-linecap="round" stroke-linejoin="round" fill-opacity="0" class="secondary" stroke="rgb(8,168,138)" stroke-opacity="1" stroke-width="0" d=" M152.4259033203125,-126.49610137939453 C152.4259033203125,-4.375741958618164 97.87611389160156,94.6222915649414 30.584999084472656,94.6222915649414 C-36.70611572265625,94.6222915649414 -91.25591278076172,-4.375741958618164 -91.25591278076172,-126.49610137939453 C-91.25591278076172,-144.5463104248047 -36.70611572265625,-171.62228393554688 30.584999084472656,-171.62228393554688 C90.25993347167969,-171.62228393554688 139.91468811035156,-150.32872009277344 150.3900604248047,-132.91944885253906 C151.72695922851562,-130.69752502441406 152.4259033203125,-128.53929138183594 152.4259033203125,-126.49610137939453z M-45.32405090332031,-70.56814575195312 C-45.32405090332031,-76.67261505126953 -35.87876892089844,-81.62135314941406 -24.226234436035156,-81.62135314941406 C-12.573699951171875,-81.62135314941406 -3.1274187564849854,-76.67261505126953 -3.1274187564849854,-70.56814575195312 M64.93335723876953,-70.4482421875 C64.93335723876953,-76.5527114868164 74.379638671875,-81.50077819824219 86.03217315673828,-81.50077819824219 C97.68470764160156,-81.50077819824219 107.13031768798828,-76.5527114868164 107.13031768798828,-70.4482421875 M62.951210021972656,2.018099308013916 C62.951210021972656,2.018099308013916 41.42118835449219,-6.997504234313965 32.033023834228516,-6.997504234313965 C22.384130477905273,-6.997504234313965 1.691611647605896,2.018099308013916 1.691611647605896,2.018099308013916 C4.132124423980713,14.010795593261719 15.444046020507812,23.636924743652344 32.360782623291016,23.636924743652344 C49.27751541137695,23.636924743652344 60.73899841308594,14.010795593261719 62.951210021972656,2.018099308013916z"/>
                </g>
            </g>
        </g>
        <filter id="__lottie_element_41" filterUnits="objectBoundingBox" x="0%" y="0%" width="100%" height="100%">
            <feComponentTransfer in="SourceGraphic">
                <feFuncA type="table" tableValues="1.0 0.0"/>
            </feComponentTransfer>
        </filter>
        <mask id="__lottie_element_35_2" mask-type="alpha">
            <g filter="url(#__lottie_element_41)">
                <rect width="430" height="430" x="0" y="0" fill="#ffffff" opacity="0"/>
                <use xmlns:ns1="http://www.w3.org/1999/xlink" ns1:href="#__lottie_element_35"/>
            </g>
        </mask>
        <g id="__lottie_element_62">
            <g transform="matrix(0.7461576461791992,0.07582075893878937,-0.07582075893878937,0.7461576461791992,203.74923706054688,296.1419982910156)" opacity="1" style="display: block;">
                <path fill="rgb(255,0,0)" fill-opacity="1" d=" M155.24603271484375,-128.5328369140625 C155.24603271484375,-3.5859434604644775 99.43362426757812,97.70349884033203 30.584999084472656,97.70349884033203 C-38.26362609863281,97.70349884033203 -94.07603454589844,-3.5859434604644775 -94.07603454589844,-128.5328369140625 C-94.07603454589844,-147.0007781982422 -38.26362609863281,-174.70350646972656 30.584999084472656,-174.70350646972656 C91.64115905761719,-174.70350646972656 142.4452362060547,-152.9169464111328 153.16314697265625,-135.10479736328125 C154.53099060058594,-132.83132934570312 155.24603271484375,-130.6233367919922 155.24603271484375,-128.5328369140625z M-47.081024169921875,-70.96406555175781 C-47.081024169921875,-79.62430572509766 -37.417057037353516,-86.64495849609375 -25.494848251342773,-86.64495849609375 C-13.572639465332031,-86.64495849609375 -3.9076740741729736,-79.62430572509766 -3.9076740741729736,-70.96406555175781 M65.72846984863281,-70.79385375976562 C65.72846984863281,-79.45409393310547 75.3934326171875,-86.47393035888672 87.31564331054688,-86.47393035888672 C99.23785400390625,-86.47393035888672 108.90201568603516,-79.45409393310547 108.90201568603516,-70.79385375976562 M63.701473236083984,-0.9676753282546997 C63.701473236083984,-0.9676753282546997 37.572540283203125,-6.268375396728516 32.052791595458984,-6.268375396728516 C26.379751205444336,-6.268375396728516 1.023834228515625,-0.9676753282546997 1.023834228515625,-0.9676753282546997 C2.4587271213531494,13.44554328918457 15.077300071716309,25.07295799255371 32.38559341430664,25.07295799255371 C49.69388961791992,25.07295799255371 62.40080642700195,13.44554328918457 63.701473236083984,-0.9676753282546997z"/>
                <g opacity="1" transform="matrix(1,0,0,1,0,0)">
                    <path stroke-linecap="round" stroke-linejoin="round" fill-opacity="0" class="secondary" stroke="rgb(8,168,138)" stroke-opacity="1" stroke-width="0" d=" M155.24603271484375,-128.5328369140625 C155.24603271484375,-3.5859434604644775 99.43362426757812,97.70349884033203 30.584999084472656,97.70349884033203 C-38.26362609863281,97.70349884033203 -94.07603454589844,-3.5859434604644775 -94.07603454589844,-128.5328369140625 C-94.07603454589844,-147.0007781982422 -38.26362609863281,-174.70350646972656 30.584999084472656,-174.70350646972656 C91.64115905761719,-174.70350646972656 142.4452362060547,-152.9169464111328 153.16314697265625,-135.10479736328125 C154.53099060058594,-132.83132934570312 155.24603271484375,-130.6233367919922 155.24603271484375,-128.5328369140625z M-47.081024169921875,-70.96406555175781 C-47.081024169921875,-79.62430572509766 -37.417057037353516,-86.64495849609375 -25.494848251342773,-86.64495849609375 C-13.572639465332031,-86.64495849609375 -3.9076740741729736,-79.62430572509766 -3.9076740741729736,-70.96406555175781 M65.72846984863281,-70.79385375976562 C65.72846984863281,-79.45409393310547 75.3934326171875,-86.47393035888672 87.31564331054688,-86.47393035888672 C99.23785400390625,-86.47393035888672 108.90201568603516,-79.45409393310547 108.90201568603516,-70.79385375976562 M63.701473236083984,-0.9676753282546997 C63.701473236083984,-0.9676753282546997 37.572540283203125,-6.268375396728516 32.052791595458984,-6.268375396728516 C26.379751205444336,-6.268375396728516 1.023834228515625,-0.9676753282546997 1.023834228515625,-0.9676753282546997 C2.4587271213531494,13.44554328918457 15.077300071716309,25.07295799255371 32.38559341430664,25.07295799255371 C49.69388961791992,25.07295799255371 62.40080642700195,13.44554328918457 63.701473236083984,-0.9676753282546997z"/>
                </g>
            </g>
        </g>
        <filter id="__lottie_element_68" filterUnits="objectBoundingBox" x="0%" y="0%" width="100%" height="100%">
            <feComponentTransfer in="SourceGraphic">
                <feFuncA type="table" tableValues="1.0 0.0"/>
            </feComponentTransfer>
        </filter>
        <mask id="__lottie_element_62_2" mask-type="alpha">
            <g filter="url(#__lottie_element_68)">
                <rect width="430" height="430" x="0" y="0" fill="#ffffff" opacity="0"/>
                <use xmlns:ns2="http://www.w3.org/1999/xlink" ns2:href="#__lottie_element_62"/>
            </g>
        </mask>
    </defs>
    <g clip-path="url(#__lottie_element_26)">
        <g clip-path="url(#__lottie_element_28)" transform="matrix(1,0,0,1,0,0)" opacity="1" style="display: block;">
            <g mask="url(#__lottie_element_35_2)" style="display: none;">
                <g transform="matrix(0.7342634797096252,-0.15283039212226868,0.15283039212226868,0.7342634797096252,129.54287719726562,271.5630798339844)" opacity="1">
                    <g opacity="1" transform="matrix(1,0,0,1,0,0)">
                        <path stroke-linecap="round" stroke-linejoin="round" fill-opacity="0" class="primary" stroke="rgb(18,19,49)" stroke-opacity="1" stroke-width="17.5" d=" M145.42909240722656,-121.44290161132812 C145.42909240722656,-6.3352580070495605 94.01188659667969,86.97770690917969 30.584999084472656,86.97770690917969 C-32.84188461303711,86.97770690917969 -84.25908660888672,-6.3352580070495605 -84.25908660888672,-121.44290161132812 C-84.25908660888672,-138.45669555664062 -32.84188461303711,-163.9777069091797 30.584999084472656,-163.9777069091797 C86.83306884765625,-163.9777069091797 133.63632202148438,-143.9072723388672 143.5099334716797,-127.49755096435547 C144.77005004882812,-125.40348052978516 145.42909240722656,-123.36871337890625 145.42909240722656,-121.44290161132812z M-40.96495056152344,-69.58585357666016 C-40.96495056152344,-69.34938049316406 -32.06222915649414,-69.15764617919922 -21.078765869140625,-69.15764617919922 C-10.09529972076416,-69.15764617919922 -1.191581130027771,-69.34938049316406 -1.191581130027771,-69.58585357666016 M62.96064758300781,-69.59075927734375 C62.96064758300781,-69.35428619384766 71.86436462402344,-69.16222381591797 82.84783172607422,-69.16222381591797 C93.831298828125,-69.16222381591797 102.73468017578125,-69.35428619384766 102.73468017578125,-69.59075927734375 M61.08979034423828,9.42590045928955 C61.08979034423828,9.42590045928955 50.969810485839844,-8.806495666503906 31.983976364135742,-8.806495666503906 C12.470869064331055,-8.806495666503906 3.348388433456421,9.42590045928955 3.348388433456421,9.42590045928955 C8.283875465393066,15.413204193115234 16.353954315185547,20.07407569885254 32.299217224121094,20.07407569885254 C48.244483947753906,20.07407569885254 56.61600112915039,15.413204193115234 61.08979034423828,9.42590045928955z"/>
                    </g>
                </g>
            </g>
            <g transform="matrix(0.7499344348907471,0.00991839449852705,-0.00991839449852705,0.7499344348907471,279.2176818847656,214.23080444335938)" opacity="1" style="display: none;">
                <g opacity="1" transform="matrix(1,0,0,1,0,0)">
                    <path stroke-linecap="round" stroke-linejoin="round" fill-opacity="0" class="secondary" stroke="rgb(8,168,138)" stroke-opacity="1" stroke-width="17.5" d=" M152.4259033203125,-126.49610137939453 C152.4259033203125,-4.375741958618164 97.87611389160156,94.6222915649414 30.584999084472656,94.6222915649414 C-36.70611572265625,94.6222915649414 -91.25591278076172,-4.375741958618164 -91.25591278076172,-126.49610137939453 C-91.25591278076172,-144.5463104248047 -36.70611572265625,-171.62228393554688 30.584999084472656,-171.62228393554688 C90.25993347167969,-171.62228393554688 139.91468811035156,-150.32872009277344 150.3900604248047,-132.91944885253906 C151.72695922851562,-130.69752502441406 152.4259033203125,-128.53929138183594 152.4259033203125,-126.49610137939453z M-45.32405090332031,-70.56814575195312 C-45.32405090332031,-76.67261505126953 -35.87876892089844,-81.62135314941406 -24.226234436035156,-81.62135314941406 C-12.573699951171875,-81.62135314941406 -3.1274187564849854,-76.67261505126953 -3.1274187564849854,-70.56814575195312 M64.93335723876953,-70.4482421875 C64.93335723876953,-76.5527114868164 74.379638671875,-81.50077819824219 86.03217315673828,-81.50077819824219 C97.68470764160156,-81.50077819824219 107.13031768798828,-76.5527114868164 107.13031768798828,-70.4482421875 M62.951210021972656,2.018099308013916 C62.951210021972656,2.018099308013916 41.42118835449219,-6.997504234313965 32.033023834228516,-6.997504234313965 C22.384130477905273,-6.997504234313965 1.691611647605896,2.018099308013916 1.691611647605896,2.018099308013916 C4.132124423980713,14.010795593261719 15.444046020507812,23.636924743652344 32.360782623291016,23.636924743652344 C49.27751541137695,23.636924743652344 60.73899841308594,14.010795593261719 62.951210021972656,2.018099308013916z"/>
                </g>
            </g>
            <g mask="url(#__lottie_element_62_2)" style="display: block;">
                <g transform="matrix(0.7179813385009766,-0.21680130064487457,0.21680130064487457,0.7179813385009766,182.88743591308594,189.77996826171875)" opacity="1">
                    <g opacity="1" transform="matrix(1,0,0,1,0,0)">
                        <path stroke-linecap="round" stroke-linejoin="round" fill-opacity="0" class="primary" stroke="rgb(18,19,49)" stroke-opacity="1" stroke-width="17.5" d=" M142.6089630126953,-119.40616607666016 C142.6089630126953,-7.125056743621826 92.4543685913086,83.89649963378906 30.584999084472656,83.89649963378906 C-31.284372329711914,83.89649963378906 -81.43896484375,-7.125056743621826 -81.43896484375,-119.40616607666016 C-81.43896484375,-136.00222778320312 -31.284372329711914,-160.89649963378906 30.584999084472656,-160.89649963378906 C85.45183563232422,-160.89649963378906 131.10577392578125,-141.31906127929688 140.73684692382812,-125.31221008300781 C141.96600341796875,-123.2696762084961 142.6089630126953,-121.28466796875 142.6089630126953,-119.40616607666016z M-39.207977294921875,-69.18993377685547 C-39.207977294921875,-66.39768981933594 -30.523942947387695,-64.13404846191406 -19.810152053833008,-64.13404846191406 C-9.09636116027832,-64.13404846191406 -0.41132593154907227,-66.39768981933594 -0.41132593154907227,-69.18993377685547 M62.165531158447266,-69.24514770507812 C62.165531158447266,-66.4529037475586 70.8505630493164,-64.1890640258789 81.5643539428711,-64.1890640258789 C92.27814483642578,-64.1890640258789 100.9629898071289,-66.4529037475586 100.9629898071289,-69.24514770507812 M60.33952713012695,12.411675453186035 C60.33952713012695,12.411675453186035 54.81846237182617,-9.535624504089355 31.96420669555664,-9.535624504089355 C8.475248336791992,-9.535624504089355 4.016165733337402,12.411675453186035 4.016165733337402,12.411675453186035 C9.95727252960205,15.978456497192383 16.720699310302734,18.63804054260254 32.27440643310547,18.63804054260254 C47.82810974121094,18.63804054260254 54.954193115234375,15.978456497192383 60.33952713012695,12.411675453186035z"/>
                    </g>
                </g>
            </g>
            <g transform="matrix(0.7461576461791992,0.07582075893878937,-0.07582075893878937,0.7461576461791992,203.74923706054688,296.1419982910156)" opacity="1" style="display: block;">
                <g opacity="1" transform="matrix(1,0,0,1,0,0)">
                    <path stroke-linecap="round" stroke-linejoin="round" fill-opacity="0" class="secondary" stroke="rgb(8,168,138)" stroke-opacity="1" stroke-width="17.5" d=" M155.24603271484375,-128.5328369140625 C155.24603271484375,-3.5859434604644775 99.43362426757812,97.70349884033203 30.584999084472656,97.70349884033203 C-38.26362609863281,97.70349884033203 -94.07603454589844,-3.5859434604644775 -94.07603454589844,-128.5328369140625 C-94.07603454589844,-147.0007781982422 -38.26362609863281,-174.70350646972656 30.584999084472656,-174.70350646972656 C91.64115905761719,-174.70350646972656 142.4452362060547,-152.9169464111328 153.16314697265625,-135.10479736328125 C154.53099060058594,-132.83132934570312 155.24603271484375,-130.6233367919922 155.24603271484375,-128.5328369140625z M-47.081024169921875,-70.96406555175781 C-47.081024169921875,-79.62430572509766 -37.417057037353516,-86.64495849609375 -25.494848251342773,-86.64495849609375 C-13.572639465332031,-86.64495849609375 -3.9076740741729736,-79.62430572509766 -3.9076740741729736,-70.96406555175781 M65.72846984863281,-70.79385375976562 C65.72846984863281,-79.45409393310547 75.3934326171875,-86.47393035888672 87.31564331054688,-86.47393035888672 C99.23785400390625,-86.47393035888672 108.90201568603516,-79.45409393310547 108.90201568603516,-70.79385375976562 M63.701473236083984,-0.9676753282546997 C63.701473236083984,-0.9676753282546997 37.572540283203125,-6.268375396728516 32.052791595458984,-6.268375396728516 C26.379751205444336,-6.268375396728516 1.023834228515625,-0.9676753282546997 1.023834228515625,-0.9676753282546997 C2.4587271213531494,13.44554328918457 15.077300071716309,25.07295799255371 32.38559341430664,25.07295799255371 C49.69388961791992,25.07295799255371 62.40080642700195,13.44554328918457 63.701473236083984,-0.9676753282546997z"/>
                </g>
            </g>
        </g>
    </g>
</svg>