<svg xmlns="http://www.w3.org/2000/svg" version="1.1"
    xmlns:xlink="http://www.w3.org/1999/xlink" width="512" height="512" x="0" y="0" viewBox="0 0 64 64" style="enable-background:new 0 0 512 512" xml:space="preserve">
    <g>
        <path d="M31 15h6v2h-6zM27 15h2v2h-2zM28 47h8v2h-8zM41 41V23H23v18zM25 25h14v14H25z" fill="#000000" opacity="1" data-original="#000000"></path>
        <path d="M60 27c1.654 0 3-1.346 3-3V4c0-1.654-1.346-3-3-3H38c-1.654 0-3 1.346-3 3v7h-6V4c0-1.654-1.346-3-3-3H4C2.346 1 1 2.346 1 4v20c0 1.654 1.346 3 3 3h15v10H4c-1.654 0-3 1.346-3 3v20c0 1.654 1.346 3 3 3h24c1.654 0 3-1.346 3-3v-7h4v7c0 1.654 1.346 3 3 3h22c1.654 0 3-1.346 3-3V40c0-1.654-1.346-3-3-3H45V27zM37 4c0-.552.449-1 1-1h22c.551 0 1 .448 1 1v20c0 .552-.449 1-1 1H45v-4h10c2.206 0 4-1.794 4-4a3.957 3.957 0 0 0-2.027-3.468A5.34 5.34 0 0 0 57 13c0-3.309-2.691-6-6-6a5.992 5.992 0 0 0-5.199 3.005 4 4 0 0 0-3.122 1.788A4.958 4.958 0 0 0 40 11h-3zM11 50c0-2.757 2.243-5 5-5 1.093 0 2.136.373 3 1.025V48c0 1.48.659 2.797 1.684 3.713A4.966 4.966 0 0 1 16 55c-2.757 0-5-2.243-5-5zm.111 5H7V45h4.111a6.973 6.973 0 0 0 0 10zm44.46-39.902A1.98 1.98 0 0 1 57 17c0 1.103-.897 2-2 2H45v-3a4.964 4.964 0 0 0-.843-2.77A2.001 2.001 0 0 1 46 12c.065 0 .128.012.269.031l.753.101.298-.699A3.996 3.996 0 0 1 51 9c2.206 0 4 1.794 4 4 0 .279-.038.577-.116.912l-.214.916zM43 16v3H21v-3c0-1.654 1.346-3 3-3h16c1.654 0 3 1.346 3 3zM22.449 52.729A4.924 4.924 0 0 0 24 53h1v2h-4.119a6.937 6.937 0 0 0 1.568-2.271zM24 51c-1.654 0-3-1.346-3-3v-3h22v3c0 1.654-1.346 3-3 3zm19 .974c1.207-.914 2-2.348 2-3.974v-2.382L53.764 50 43 55.382zM43 43H21V21h22zM4 25c-.551 0-1-.448-1-1V4c0-.552.449-1 1-1h22c.551 0 1 .448 1 1v7h-3c-2.757 0-5 2.243-5 5v9zm25 35c0 .552-.449 1-1 1H4c-.551 0-1-.448-1-1V40c0-.552.449-1 1-1h15v4.678A6.998 6.998 0 0 0 16 43H5v14h22v-4h2zm31-21c.551 0 1 .448 1 1v20c0 .552-.449 1-1 1H38c-.551 0-1-.448-1-1v-7h3c.342 0 .677-.035 1-.101v5.719L58.236 50 45 43.382V39z" fill="#000000" opacity="1" data-original="#000000"></path>
        <path d="M23.11 6.006 13 4.883v12.301A2.966 2.966 0 0 0 12 17c-1.654 0-3 1.346-3 3s1.346 3 3 3 3-1.346 3-3V7.117l7.89.877zM12 21a1.001 1.001 0 0 1 0-2 1.001 1.001 0 0 1 0 2zM16 47c-1.654 0-3 1.346-3 3s1.346 3 3 3 3-1.346 3-3-1.346-3-3-3zm0 4a1.001 1.001 0 0 1 0-2 1.001 1.001 0 0 1 0 2z" fill="#000000" opacity="1" data-original="#000000"></path>
    </g>
</svg>