<svg xmlns="http://www.w3.org/2000/svg" version="1.1"
    xmlns:xlink="http://www.w3.org/1999/xlink" width="512" height="512" x="0" y="0" viewBox="0 0 682.667 682.667" style="enable-background:new 0 0 512 512" xml:space="preserve">
    <g>
        <defs>
            <clipPath id="a" clipPathUnits="userSpaceOnUse">
                <path d="M0 512h512V0H0Z" fill="#000000" opacity="1" data-original="#000000"></path>
            </clipPath>
        </defs>
        <g clip-path="url(#a)" transform="matrix(1.33333 0 0 -1.33333 0 682.667)">
            <path d="M0 0c0-12.98-10.522-23.503-23.502-23.503-12.981 0-23.503 10.523-23.503 23.503 0 12.979 10.522 23.502 23.503 23.502C-10.522 23.502 0 12.979 0 0Z" style="stroke-width:15;stroke-linecap:round;stroke-linejoin:round;stroke-miterlimit:10;stroke-dasharray:none;stroke-opacity:1" transform="translate(198.938 241.275)" fill="none" stroke="#000000" stroke-width="15" stroke-linecap="round" stroke-linejoin="round" stroke-miterlimit="10" stroke-dasharray="none" stroke-opacity="" data-original="#000000"></path>
            <path d="M0 0c0-12.98 10.522-23.503 23.502-23.503C36.483-23.503 47.005-12.98 47.005 0c0 12.979-10.522 23.502-23.503 23.502C10.522 23.502 0 12.979 0 0Z" style="stroke-width:15;stroke-linecap:round;stroke-linejoin:round;stroke-miterlimit:10;stroke-dasharray:none;stroke-opacity:1" transform="translate(313.063 241.275)" fill="none" stroke="#000000" stroke-width="15" stroke-linecap="round" stroke-linejoin="round" stroke-miterlimit="10" stroke-dasharray="none" stroke-opacity="" data-original="#000000"></path>
            <path d="m0 0 6.904-20.558c9.801-29.182 42.279-43.947 70.711-32.146 22.838 9.479 36.113 33.466 32.018 57.851L75.821 206.5l-.022-.018c-5.666 41.825-41.491 74.071-84.87 74.071-24.485 0-46.552-10.287-62.159-26.761h-132.798c-15.608 16.474-37.675 26.761-62.16 26.761-43.378 0-79.203-32.246-84.87-74.071l-.022.018-10.889-64.844" style="stroke-width:15;stroke-linecap:round;stroke-linejoin:round;stroke-miterlimit:10;stroke-dasharray:none;stroke-opacity:1" transform="translate(393.63 129.389)" fill="none" stroke="#000000" stroke-width="15" stroke-linecap="round" stroke-linejoin="round" stroke-miterlimit="10" stroke-dasharray="none" stroke-opacity="" data-original="#000000"></path>
            <path d="m0 0-17.951-106.896c-4.094-24.386 9.18-48.373 32.019-57.852 28.432-11.801 60.91 2.964 70.71 32.146l29.791 88.705a54.622 54.622 0 0 1 32.289-10.513c15.542 0 29.565 6.47 39.551 16.85h85.806c9.986-10.38 24.009-16.85 39.551-16.85a54.622 54.622 0 0 1 32.289 10.513l13.329-39.691" style="stroke-width:15;stroke-linecap:round;stroke-linejoin:round;stroke-miterlimit:10;stroke-dasharray:none;stroke-opacity:1" transform="translate(26.688 241.433)" fill="none" stroke="#000000" stroke-width="15" stroke-linecap="round" stroke-linejoin="round" stroke-miterlimit="10" stroke-dasharray="none" stroke-opacity="" data-original="#000000"></path>
            <path d="M0 0h-9.198v9.198c0 8.788-7.124 15.912-15.912 15.912s-15.913-7.124-15.913-15.912V0h-9.198c-8.788 0-15.912-7.124-15.912-15.912s7.124-15.912 15.912-15.912h9.198v-9.198c0-8.789 7.125-15.913 15.913-15.913s15.912 7.124 15.912 15.913v9.198H0c8.788 0 15.912 7.124 15.912 15.912S8.788 0 0 0Z" style="stroke-width:15;stroke-linecap:round;stroke-linejoin:round;stroke-miterlimit:10;stroke-dasharray:none;stroke-opacity:1" transform="translate(153.154 338.222)" fill="none" stroke="#000000" stroke-width="15" stroke-linecap="round" stroke-linejoin="round" stroke-miterlimit="10" stroke-dasharray="none" stroke-opacity="" data-original="#000000"></path>
            <path d="M0 0v0c-7.921 0-14.402-6.481-14.402-14.402 0-7.921 6.481-14.403 14.402-14.403 7.921 0 14.402 6.482 14.402 14.403S7.921 0 0 0Z" style="stroke-width:15;stroke-linecap:round;stroke-linejoin:round;stroke-miterlimit:10;stroke-dasharray:none;stroke-opacity:1" transform="translate(389.093 373.574)" fill="none" stroke="#000000" stroke-width="15" stroke-linecap="round" stroke-linejoin="round" stroke-miterlimit="10" stroke-dasharray="none" stroke-opacity="" data-original="#000000"></path>
            <path d="M0 0v0c-7.921 0-14.402-6.48-14.402-14.401v-.001c0-7.921 6.481-14.402 14.402-14.402 7.921 0 14.402 6.481 14.402 14.402v.001C14.402-6.48 7.921 0 0 0Z" style="stroke-width:15;stroke-linecap:round;stroke-linejoin:round;stroke-miterlimit:10;stroke-dasharray:none;stroke-opacity:1" transform="translate(389.093 299.849)" fill="none" stroke="#000000" stroke-width="15" stroke-linecap="round" stroke-linejoin="round" stroke-miterlimit="10" stroke-dasharray="none" stroke-opacity="" data-original="#000000"></path>
            <path d="M0 0v0c0 7.921-6.481 14.402-14.402 14.402-7.922 0-14.402-6.481-14.402-14.402 0-7.921 6.48-14.402 14.402-14.402C-6.481-14.402 0-7.921 0 0Z" style="stroke-width:15;stroke-linecap:round;stroke-linejoin:round;stroke-miterlimit:10;stroke-dasharray:none;stroke-opacity:1" transform="translate(440.358 322.31)" fill="none" stroke="#000000" stroke-width="15" stroke-linecap="round" stroke-linejoin="round" stroke-miterlimit="10" stroke-dasharray="none" stroke-opacity="" data-original="#000000"></path>
            <path d="M0 0v0c0 7.921-6.481 14.402-14.402 14.402-7.921 0-14.402-6.481-14.402-14.402 0-7.921 6.481-14.402 14.402-14.402C-6.481-14.402 0-7.921 0 0Z" style="stroke-width:15;stroke-linecap:round;stroke-linejoin:round;stroke-miterlimit:10;stroke-dasharray:none;stroke-opacity:1" transform="translate(366.632 322.31)" fill="none" stroke="#000000" stroke-width="15" stroke-linecap="round" stroke-linejoin="round" stroke-miterlimit="10" stroke-dasharray="none" stroke-opacity="" data-original="#000000"></path>
            <path d="M0 0h-31.399c-11.046 0-20 8.954-20 20v13.338" style="stroke-width:15;stroke-linecap:round;stroke-linejoin:round;stroke-miterlimit:10;stroke-dasharray:none;stroke-opacity:1" transform="translate(241 349.843)" fill="none" stroke="#000000" stroke-width="15" stroke-linecap="round" stroke-linejoin="round" stroke-miterlimit="10" stroke-dasharray="none" stroke-opacity="" data-original="#000000"></path>
            <path d="M0 0v-13.338c0-11.046-8.954-20-20-20h-31.399" style="stroke-width:15;stroke-linecap:round;stroke-linejoin:round;stroke-miterlimit:10;stroke-dasharray:none;stroke-opacity:1" transform="translate(322.399 383.18)" fill="none" stroke="#000000" stroke-width="15" stroke-linecap="round" stroke-linejoin="round" stroke-miterlimit="10" stroke-dasharray="none" stroke-opacity="" data-original="#000000"></path>
            <path d="M0 0h22.449" style="stroke-width:15;stroke-linecap:round;stroke-linejoin:round;stroke-miterlimit:10;stroke-dasharray:none;stroke-opacity:1" transform="translate(211.406 300.767)" fill="none" stroke="#000000" stroke-width="15" stroke-linecap="round" stroke-linejoin="round" stroke-miterlimit="10" stroke-dasharray="none" stroke-opacity="" data-original="#000000"></path>
            <path d="M0 0h22.449" style="stroke-width:15;stroke-linecap:round;stroke-linejoin:round;stroke-miterlimit:10;stroke-dasharray:none;stroke-opacity:1" transform="translate(278.146 300.767)" fill="none" stroke="#000000" stroke-width="15" stroke-linecap="round" stroke-linejoin="round" stroke-miterlimit="10" stroke-dasharray="none" stroke-opacity="" data-original="#000000"></path>
            <path d="M0 0v19.033c0 8.284-6.716 15-15 15h-28.283c-8.284 0-15-6.716-15-15V-1.058" style="stroke-width:15;stroke-linecap:round;stroke-linejoin:round;stroke-miterlimit:10;stroke-dasharray:none;stroke-opacity:1" transform="translate(412.237 405.358)" fill="none" stroke="#000000" stroke-width="15" stroke-linecap="round" stroke-linejoin="round" stroke-miterlimit="10" stroke-dasharray="none" stroke-opacity="" data-original="#000000"></path>
            <path d="M0 0v20.091c0 8.284-6.716 15-15 15h-28.283c-8.284 0-15-6.716-15-15V1.058" style="stroke-width:15;stroke-linecap:round;stroke-linejoin:round;stroke-miterlimit:10;stroke-dasharray:none;stroke-opacity:1" transform="translate(158.046 404.3)" fill="none" stroke="#000000" stroke-width="15" stroke-linecap="round" stroke-linejoin="round" stroke-miterlimit="10" stroke-dasharray="none" stroke-opacity="" data-original="#000000"></path>
        </g>
    </g>
</svg>