<svg xmlns="http://www.w3.org/2000/svg"
    xmlns:xlink="http://www.w3.org/1999/xlink" viewBox="0 0 430 430" width="430" height="430" preserveAspectRatio="xMidYMid meet" style="width: 100%; height: 100%; transform: translate3d(0px, 0px, 0px); content-visibility: visible;">
    <defs>
        <clipPath id="__lottie_element_26">
            <rect width="430" height="430" x="0" y="0"/>
        </clipPath>
        <clipPath id="__lottie_element_28">
            <path d="M0,0 L430,0 L430,430 L0,430z"/>
        </clipPath>
        <g id="__lottie_element_35">
            <g transform="matrix(1,0,0,1,-35,-35)" opacity="1" style="display: block;">
                <g opacity="1" transform="matrix(1,0,0,1,193.64599609375,300.57598876953125)">
                    <path fill="rgb(255,0,0)" fill-opacity="1" d=" M-20.0811767578125,1.2166011333465576 C-20.0811767578125,12.307360649108887 -11.09075927734375,21.297779083251953 0,21.297779083251953 C11.09075927734375,21.297779083251953 20.0811767578125,12.307360649108887 20.0811767578125,1.2166011333465576 C20.0811767578125,-9.874157905578613 11.09075927734375,-18.86457633972168 0,-18.86457633972168 C-11.09075927734375,-18.86457633972168 -20.0811767578125,-9.874157905578613 -20.0811767578125,1.2166011333465576z"/>
                </g>
            </g>
        </g>
        <filter id="__lottie_element_44" filterUnits="objectBoundingBox" x="0%" y="0%" width="100%" height="100%">
            <feComponentTransfer in="SourceGraphic">
                <feFuncA type="table" tableValues="1.0 0.0"/>
            </feComponentTransfer>
        </filter>
        <mask id="__lottie_element_35_2" mask-type="alpha">
            <g filter="url(#__lottie_element_44)">
                <rect width="430" height="430" x="0" y="0" fill="#ffffff" opacity="0"/>
                <use xmlns:ns1="http://www.w3.org/1999/xlink" ns1:href="#__lottie_element_35"/>
            </g>
        </mask>
    </defs>
    <g clip-path="url(#__lottie_element_26)">
        <g clip-path="url(#__lottie_element_28)" transform="matrix(1,0,0,1,0,0)" opacity="1" style="display: block;">
            <g mask="url(#__lottie_element_35_2)" style="display: block;">
                <g transform="matrix(1,0,0,1,-35,-35)" opacity="1">
                    <g opacity="1" transform="matrix(1,0,0,1,193.64599609375,356.7460021972656)">
                        <path stroke-linecap="round" stroke-linejoin="round" fill-opacity="0" class="secondary" stroke="rgb(8,168,138)" stroke-opacity="1" stroke-width="12.04" d=" M9.833000183105469,0 C9.833000183105469,0 -9.833000183105469,0 -9.833000183105469,0"/>
                    </g>
                    <g opacity="1" transform="matrix(1,0,0,1,250,243.3280029296875)">
                        <path stroke-linecap="round" stroke-linejoin="round" fill-opacity="0" class="primary" stroke="rgb(18,19,49)" stroke-opacity="1" stroke-width="12.04" d=" M100.07499694824219,86.73100280761719 C100.07499694824219,86.73100280761719 -100.07499694824219,86.73100280761719 -100.07499694824219,86.73100280761719 C-100.07499694824219,86.73100280761719 -100.07499694824219,-86.73100280761719 -100.07499694824219,-86.73100280761719 C-100.07499694824219,-86.73100280761719 100.07499694824219,-86.73100280761719 100.07499694824219,-86.73100280761719 C100.07499694824219,-86.73100280761719 100.07499694824219,86.73100280761719 100.07499694824219,86.73100280761719z M-100.07499694824219,-86.73100280761719 C-100.07499694824219,-86.73100280761719 -133.43299865722656,-140.10400390625 -133.43299865722656,-140.10400390625 C-133.43299865722656,-140.10400390625 133.43299865722656,-140.10400390625 133.43299865722656,-140.10400390625 C133.43299865722656,-140.10400390625 100.0739974975586,-86.73100280761719 100.0739974975586,-86.73100280761719 M100.07499694824219,86.73100280761719 C100.07499694824219,86.73100280761719 133.43299865722656,140.10400390625 133.43299865722656,140.10400390625 C133.43299865722656,140.10400390625 -133.43299865722656,140.10400390625 -133.43299865722656,140.10400390625 C-133.43299865722656,140.10400390625 -100.07499694824219,86.73100280761719 -100.07499694824219,86.73100280761719 M133.43299865722656,140.10400390625 C133.43299865722656,140.10400390625 133.43299865722656,193.4770050048828 133.43299865722656,193.4770050048828 C133.43299865722656,193.4770050048828 -133.43299865722656,193.4770050048828 -133.43299865722656,193.4770050048828 C-133.43299865722656,193.4770050048828 -133.43299865722656,140.10400390625 -133.43299865722656,140.10400390625 M52.04999923706055,57.16999816894531 C52.04999923706055,57.16999816894531 -52.04999923706055,57.16999816894531 -52.04999923706055,57.16999816894531 C-61.930999755859375,57.16999816894531 -70.01499938964844,49.08700180053711 -70.01499938964844,39.20600128173828 C-70.01499938964844,39.20600128173828 -70.01499938964844,-39.20600128173828 -70.01499938964844,-39.20600128173828 C-70.01499938964844,-49.08700180053711 -61.930999755859375,-57.16999816894531 -52.04999923706055,-57.16999816894531 C-52.04999923706055,-57.16999816894531 52.04999923706055,-57.16999816894531 52.04999923706055,-57.16999816894531 C61.930999755859375,-57.16999816894531 70.01499938964844,-49.08700180053711 70.01499938964844,-39.20600128173828 C70.01499938964844,-39.20600128173828 70.01499938964844,39.20600128173828 70.01499938964844,39.20600128173828 C70.01499938964844,49.08700180053711 61.930999755859375,57.16999816894531 52.04999923706055,57.16999816894531z M-133.43299865722656,-140.10400390625 C-133.43299865722656,-140.10400390625 -133.43299865722656,-180.13400268554688 -133.43299865722656,-180.13400268554688 C-133.43299865722656,-180.13400268554688 133.43299865722656,-180.13400268554688 133.43299865722656,-180.13400268554688 C133.43299865722656,-180.13400268554688 133.43299865722656,-140.10400390625 133.43299865722656,-140.10400390625 M90.0009994506836,166.79100036621094 C90.0009994506836,166.79100036621094 64.0009994506836,166.79100036621094 64.0009994506836,166.79100036621094"/>
                    </g>
                    <g opacity="1" transform="matrix(1,0,0,1,0,0)">
                        <g opacity="1" transform="matrix(1,0,0,1,267.0880126953125,356.7460021972656)">
                            <path stroke-linecap="round" stroke-linejoin="round" fill-opacity="0" class="secondary" stroke="rgb(8,168,138)" stroke-opacity="1" stroke-width="12.04" d=" M-2.0880000591278076,0 C-2.0880000591278076,0 2.0880000591278076,0 2.0880000591278076,0"/>
                        </g>
                        <g opacity="1" transform="matrix(1,0,0,1,296.8370056152344,356.7460021972656)">
                            <path stroke-linecap="round" stroke-linejoin="round" fill-opacity="0" class="secondary" stroke="rgb(8,168,138)" stroke-opacity="1" stroke-width="12.04" d=" M-2.0880000591278076,0 C-2.0880000591278076,0 2.0880000591278076,0 2.0880000591278076,0"/>
                        </g>
                        <g opacity="1" transform="matrix(1,0,0,1,326.5870056152344,356.7460021972656)">
                            <path stroke-linecap="round" stroke-linejoin="round" fill-opacity="0" class="secondary" stroke="rgb(8,168,138)" stroke-opacity="1" stroke-width="12.04" d=" M-2.0880000591278076,0 C-2.0880000591278076,0 2.0880000591278076,0 2.0880000591278076,0"/>
                        </g>
                    </g>
                    <g opacity="0" transform="matrix(1,0,0,1,290.20599365234375,215.4709930419922)">
                        <path stroke-linecap="round" stroke-linejoin="round" fill-opacity="0" class="secondary" stroke="rgb(8,168,138)" stroke-opacity="1" stroke-width="12.04" d=" M-9.843000411987305,-9.843000411987305 C-9.843000411987305,-9.843000411987305 1.0160000324249268,-9.843000411987305 1.0160000324249268,-9.843000411987305 C5.890999794006348,-9.843000411987305 9.843000411987305,-5.890999794006348 9.843000411987305,-1.0160000324249268 C9.843000411987305,-1.0160000324249268 9.843000411987305,9.843000411987305 9.843000411987305,9.843000411987305"/>
                    </g>
                </g>
            </g>
            <g transform="matrix(1,0,0,1,-35,-35)" opacity="1" style="display: block;">
                <g opacity="1" transform="matrix(1,0,0,1,193.64599609375,337.97198486328125)">
                    <path stroke-linecap="round" stroke-linejoin="round" fill-opacity="0" class="secondary" stroke="rgb(8,168,138)" stroke-opacity="1" stroke-width="12.04" d=" M0,18.77400016784668 C0,18.77400016784668 0.011243490502238274,-16.01539421081543 0.011243490502238274,-16.01539421081543"/>
                </g>
                <g opacity="1" transform="matrix(1,0,0,1,193.64599609375,300.57598876953125)">
                    <path stroke-linecap="round" stroke-linejoin="round" fill-opacity="0" class="secondary" stroke="rgb(8,168,138)" stroke-opacity="1" stroke-width="12.04" d=" M-20.0811767578125,1.2166011333465576 C-20.0811767578125,12.307360649108887 -11.09075927734375,21.297779083251953 0,21.297779083251953 C11.09075927734375,21.297779083251953 20.0811767578125,12.307360649108887 20.0811767578125,1.2166011333465576 C20.0811767578125,-9.874157905578613 11.09075927734375,-18.86457633972168 0,-18.86457633972168 C-11.09075927734375,-18.86457633972168 -20.0811767578125,-9.874157905578613 -20.0811767578125,1.2166011333465576z"/>
                </g>
            </g>
            <g style="display: block;" transform="matrix(1,0,0,1,-35,-35)" opacity="1">
                <g opacity="1" transform="matrix(1,0,0,1,306.99700927734375,250.0240020751953)">
                    <path stroke-linecap="round" stroke-linejoin="round" fill-opacity="0" class="secondary" stroke="rgb(8,168,138)" stroke-opacity="1" stroke-width="12.04" d=" M-6.747000217437744,-24.56800079345703 C-6.747000217437744,-24.56800079345703 -6.747000217437744,13.47599983215332 -6.747000217437744,13.47599983215332 C-6.747000217437744,13.47599983215332 -31.518999099731445,-24.56800079345703 -31.518999099731445,-24.56800079345703 C-31.518999099731445,-24.56800079345703 -31.518999099731445,13.47599983215332 -31.518999099731445,13.47599983215332 M-107.75199890136719,-24.570999145507812 C-107.75199890136719,-24.570999145507812 -98.58699798583984,13.449999809265137 -98.58699798583984,13.449999809265137 C-98.58699798583984,13.449999809265137 -88.55999755859375,-11.331999778747559 -88.55999755859375,-11.331999778747559 M-88.55999755859375,-11.331999778747559 C-88.55999755859375,-11.331999778747559 -78.53199768066406,13.449999809265137 -78.53199768066406,13.449999809265137 C-78.53199768066406,13.449999809265137 -69.36799621582031,-24.570999145507812 -69.36799621582031,-24.570999145507812 M-52.5359992980957,13.47599983215332 C-52.5359992980957,13.47599983215332 -52.5359992980957,-24.59600067138672 -52.5359992980957,-24.59600067138672"/>
                </g>
            </g>
        </g>
    </g>
</svg>