<svg xmlns="http://www.w3.org/2000/svg" version="1.1"
    xmlns:xlink="http://www.w3.org/1999/xlink" width="512" height="512" x="0" y="0" viewBox="0 0 512 512" style="enable-background:new 0 0 512 512" xml:space="preserve">
    <g>
        <g data-name="/ OUTLINE">
            <path d="M415.15 98.37a223.475 223.475 0 0 0-67.887-46.995l-6.526 14.61a207.553 207.553 0 0 1 63.045 43.644zM171.263 65.985l-6.526-14.61A225.163 225.163 0 0 0 44.748 181.334l15.086 5.332A209.085 209.085 0 0 1 171.263 65.985zM109.63 403.783a209.265 209.265 0 0 1-49.796-78.449l-15.086 5.332A225.359 225.359 0 0 0 98.37 415.15zM417.606 386.96l12.424 10.081a225.057 225.057 0 0 0 22.34-33.184l-14.018-7.714a208.949 208.949 0 0 1-20.746 30.817zM274.453 67.752l-25.578-17.051A16 16 0 0 0 224 64.013v34.103a15.994 15.994 0 0 0 24.875 13.313l25.578-17.052a16 16 0 0 0 0-26.626zM240 98.117l-.042-34.128a.3.3 0 0 1 .042.025l25.578 17.051zM336 256a64 64 0 1 0-64 64 64.072 64.072 0 0 0 64-64zm-64 48a48 48 0 1 1 48-48 48.054 48.054 0 0 1-48 48z" fill="#000000" opacity="1" data-original="#000000"></path>
            <path d="m264 252.687-21.657 21.656 11.314 11.314L280 259.313V224h-16zM80 288v-8h40v8a24.027 24.027 0 0 0 24 24h16a24.027 24.027 0 0 0 24-24v-64a24.027 24.027 0 0 0-24-24h-16a24.027 24.027 0 0 0-24 24v8H80v-8a24.027 24.027 0 0 0-24-24H40a24.027 24.027 0 0 0-24 24v64a24.027 24.027 0 0 0 24 24h16a24.027 24.027 0 0 0 24-24zm56-64a8.01 8.01 0 0 1 8-8h16a8.01 8.01 0 0 1 8 8v64a8.01 8.01 0 0 1-8 8h-16a8.01 8.01 0 0 1-8-8zm-56 24h40v16H80zm-48 40v-64a8.01 8.01 0 0 1 8-8h16a8.01 8.01 0 0 1 8 8v64a8.01 8.01 0 0 1-8 8H40a8.01 8.01 0 0 1-8-8zM96 432a24 24 0 0 0 0 48h72v-.028A39.963 39.963 0 0 0 200 496h112a40.046 40.046 0 0 0 40-40v-24zm0 32a8 8 0 0 1 0-16h64v8a40.037 40.037 0 0 0 .805 8zm240-8a24.027 24.027 0 0 1-24 24H200a24.027 24.027 0 0 1-24-24v-8h160zM248 360h16v16h-16zM160 352h16v16h-16zM168 400h16v16h-16zM192 368h16v16h-16zM216 392h16v16h-16zM216 344h16v16h-16zM264 400h16v16h-16zM432 247.503a65.43 65.43 0 0 0 38.628-18.817l6.059-6.059A65.512 65.512 0 0 0 496 176v-8h-8a65.51 65.51 0 0 0-46.628 19.314l-6.059 6.059A66.19 66.19 0 0 0 424 208.478a66.19 66.19 0 0 0-11.313-15.105l-6.06-6.059A65.51 65.51 0 0 0 360 168h-8v8a65.512 65.512 0 0 0 19.313 46.627l6.06 6.059A65.43 65.43 0 0 0 416 247.503V264h-48v16h8.938l5.372 42.977A24.04 24.04 0 0 0 406.125 344h35.75a24.04 24.04 0 0 0 23.815-21.023L471.062 280H480v-16h-48zm14.628-42.817 6.059-6.059a49.576 49.576 0 0 1 26.552-13.866 49.581 49.581 0 0 1-13.867 26.553l-6.059 6.059a49.576 49.576 0 0 1-26.552 13.866 49.581 49.581 0 0 1 13.867-26.553zm-57.941 12.687-6.06-6.06a49.581 49.581 0 0 1-13.866-26.552 49.576 49.576 0 0 1 26.552 13.866l6.06 6.059a49.581 49.581 0 0 1 13.866 26.553 49.576 49.576 0 0 1-26.552-13.866zM454.937 280l-5.124 40.992a8.012 8.012 0 0 1-7.938 7.008h-35.75a8.012 8.012 0 0 1-7.938-7.008L393.062 280zM422.877 124.661l17.772-40.008 14.624 6.496-17.772 40.008zM408.656 156.65l7.109-16.003 14.624 6.496-7.109 16.003zM168 152a24.027 24.027 0 0 0 24 24h128a24.027 24.027 0 0 0 24-24v-24h-16V40a24.027 24.027 0 0 0-24-24h-96a24.027 24.027 0 0 0-24 24v88h-16zm32-112a8.01 8.01 0 0 1 8-8h96a8.01 8.01 0 0 1 8 8v88H200zm-16 104h144v8a8.01 8.01 0 0 1-8 8H192a8.01 8.01 0 0 1-8-8z" fill="#000000" opacity="1" data-original="#000000"></path>
            <path d="M376 372.687v-14.06a23.843 23.843 0 0 0-7.03-16.97l-16-16a24.028 24.028 0 0 0-33.94 0l-25.374 25.373a24.027 24.027 0 0 0 0 33.94l16 16a23.844 23.844 0 0 0 16.971 7.03h14.06l65.656 65.657a24.97 24.97 0 0 0 35.314-35.314zm54.343 89.656a8.97 8.97 0 0 1-12.686 0L347.313 392h-20.686a7.945 7.945 0 0 1-5.656-2.343l-16-16a8.009 8.009 0 0 1 0-11.314l25.373-25.373a8.008 8.008 0 0 1 11.312 0l16 16a7.947 7.947 0 0 1 2.344 5.657v20.686l70.343 70.344a8.98 8.98 0 0 1 0 12.686zM462.872 124.654l17.772-40.008 14.624 6.496-17.772 40.008zM448.65 156.643l7.109-16.003 14.624 6.496-7.109 16.003z" fill="#000000" opacity="1" data-original="#000000"></path>
        </g>
    </g>
</svg>