<svg xmlns="http://www.w3.org/2000/svg" version="1.1"
    xmlns:xlink="http://www.w3.org/1999/xlink" width="512" height="512" x="0" y="0" viewBox="0 0 512 512" style="enable-background:new 0 0 512 512" xml:space="preserve">
    <g>
        <path d="M190.774 273.459A65.226 65.226 0 1 0 256 208.233a65.3 65.3 0 0 0-65.226 65.226zM256 222.237a51.222 51.222 0 1 1-51.222 51.222A51.28 51.28 0 0 1 256 222.237zm25.285 126.029h-50.57c-48.283 0-87.564 36.2-87.564 80.7v55.05a18.887 18.887 0 0 0 18.879 18.854h187.94a18.887 18.887 0 0 0 18.879-18.851v-55.05c0-44.499-39.281-80.703-87.564-80.703zm73.56 135.753a4.926 4.926 0 0 1-4.875 4.847h-30.586v-59.9a7 7 0 0 0-14 0v59.9h-98.763v-59.9a7 7 0 0 0-14 0v59.9H162.03a4.867 4.867 0 0 1-4.875-4.847v-55.05c0-36.778 33-66.7 73.56-66.7h50.57c40.561 0 73.56 29.921 73.56 66.7zM172.724 79.057a6.971 6.971 0 0 0 3.939-1.218l13.516-9.219v68.973c0 7.081 5.354 12.842 11.934 12.842h33.994c.185.014.371.028.561.028s.375-.014.561-.028h37.543c.186.014.372.028.561.028s.376-.014.561-.028h33.965c6.6 0 11.963-5.761 11.963-12.842V68.617l13.515 9.221a7 7 0 0 0 7.893-11.566l-53.094-36.227c-.035-.024-.071-.042-.106-.065l-27.617-18.843-.039-.026a11.243 11.243 0 0 0-12.786.026l-53.874 36.756-26.942 18.378a7 7 0 0 0 3.952 12.786zm95.607 57.374H243.67v-29.793a12.331 12.331 0 0 1 24.661 0zM256 23.714l51.818 35.354v77.363h-25.483v-29.793a26.335 26.335 0 0 0-52.669 0v29.793h-25.483V59.066L230.521 41.1c.023-.015.043-.034.066-.05zm182.837 224.318A73.178 73.178 0 1 0 512 321.2a73.261 73.261 0 0 0-73.163-73.168zm0 132.351A59.174 59.174 0 1 1 498 321.2a59.254 59.254 0 0 1-59.163 59.183zm37.238-90.132a25.769 25.769 0 0 0-36.379 0l-.87.871-.878-.87a25.723 25.723 0 0 0-36.378 36.377l30.075 30.071a10.084 10.084 0 0 0 7.161 2.952 10.313 10.313 0 0 0 7.224-2.953l30.035-30.063a25.72 25.72 0 0 0 .01-36.387zm-9.9 26.478-27.334 27.36-27.364-27.362a11.72 11.72 0 0 1 16.594-16.555l3.574 3.545a10.046 10.046 0 0 0 7.128 2.993h.06a10.114 10.114 0 0 0 7.2-2.986l3.571-3.572a11.72 11.72 0 1 1 16.571 16.577zm-393.006-68.7a73.178 73.178 0 1 0 73.186 73.171 73.247 73.247 0 0 0-73.191-73.168zm0 132.351a59.174 59.174 0 1 1 59.182-59.18 59.24 59.24 0 0 1-59.187 59.183zm28.148-75.572H89.548v-11.761a16.385 16.385 0 0 0-32.769 0v11.764H45.015a16.384 16.384 0 1 0 0 32.768h11.764v11.764a16.385 16.385 0 1 0 32.769 0v-11.764h11.764a16.384 16.384 0 1 0 0-32.768zm0 18.764H82.546a7 7 0 0 0-7 7v18.766a2.381 2.381 0 1 1-4.761 0v-18.761a7 7 0 0 0-7-7h-18.77a2.38 2.38 0 1 1 0-4.76h18.766a7 7 0 0 0 7-7v-18.77a2.381 2.381 0 0 1 4.761 0v18.766a7 7 0 0 0 7 7h18.766a2.38 2.38 0 1 1 0 4.76zm-16.474-96.233a73.178 73.178 0 1 0-73.192-73.191 73.26 73.26 0 0 0 73.192 73.191zm0-132.351a59.174 59.174 0 1 1-59.188 59.16 59.226 59.226 0 0 1 59.188-59.16zM61.967 138.3a22.888 22.888 0 0 1 15.874-21.749v-6.059a7 7 0 0 1 14 0v6.069a22.991 22.991 0 0 1 14.525 14.039 7 7 0 0 1-13.17 4.756 8.862 8.862 0 1 0-8.353 11.795 22.863 22.863 0 0 1 7 44.622v6.062a7 7 0 1 1-14 0v-6.063A22.9 22.9 0 0 1 63.308 177.7 7 7 0 0 1 76.5 173a8.855 8.855 0 1 0 8.345-11.849A22.888 22.888 0 0 1 61.967 138.3zm365.191 89.037a73.178 73.178 0 1 0-73.164-73.191 73.26 73.26 0 0 0 73.164 73.193zm0-132.351A59.174 59.174 0 1 1 368 154.148a59.225 59.225 0 0 1 59.158-59.16zm-35.774 61.426v23.87a11.891 11.891 0 0 0 11.877 11.877h47.793a11.891 11.891 0 0 0 11.878-11.877v-23.87a13.629 13.629 0 0 0 8.646-12.67v-10.12a17.482 17.482 0 0 0-17.462-17.461H400.2a17.481 17.481 0 0 0-17.461 17.461v10.12a13.63 13.63 0 0 0 8.645 12.672zm5.359-22.79a3.5 3.5 0 0 1 3.457-3.457h53.916a3.5 3.5 0 0 1 3.458 3.457v9.723h-1.644a7 7 0 0 0-7 7v27.808h-43.54v-27.804a7 7 0 0 0-7-7h-1.643zM256 197.83a7 7 0 0 1-7-7v-23.9a7 7 0 1 1 14 0v23.9a7 7 0 0 1-7 7zm-90.667-4.59 29.707 17.15a7 7 0 1 1-7 12.128l-29.707-17.151a7 7 0 1 1 7-12.127zm151.6 17.149 29.736-17.151a7 7 0 1 1 7 12.131L323.93 222.52a7 7 0 0 1-7-12.131zm-128.3 86.059a7 7 0 0 1-4.948 8.577l-23.131 6.208a7 7 0 1 1-3.629-13.525l23.131-6.208a7 7 0 0 1 8.58 4.948zm166.434 1.26a7 7 0 1 1-3.625 13.525l-23.159-6.208a7 7 0 1 1 3.625-13.525z" fill="#000000" opacity="1" data-original="#000000"></path>
    </g>
</svg>