<svg xmlns="http://www.w3.org/2000/svg"
    xmlns:xlink="http://www.w3.org/1999/xlink" viewBox="0 0 430 430" width="430" height="430" preserveAspectRatio="xMidYMid meet" style="width: 100%; height: 100%; transform: translate3d(0px, 0px, 0px); content-visibility: visible;">
    <defs>
        <clipPath id="__lottie_element_26">
            <rect width="430" height="430" x="0" y="0"/>
        </clipPath>
        <clipPath id="__lottie_element_28">
            <path d="M0,0 L430,0 L430,430 L0,430z"/>
        </clipPath>
    </defs>
    <g clip-path="url(#__lottie_element_26)">
        <g clip-path="url(#__lottie_element_28)" transform="matrix(1,0,0,1,0,0)" opacity="1" style="display: block;">
            <g transform="matrix(1.0283823013305664,0.256962388753891,-0.256962388753891,1.0283823013305664,29.816558837890625,-94.45803833007812)" opacity="1" style="display: block;">
                <g opacity="1" transform="matrix(1,0,0,1,330.6570129394531,385.5)">
                    <path stroke-linecap="round" stroke-linejoin="round" fill-opacity="0" class="primary" stroke="rgb(18,19,49)" stroke-opacity="1" stroke-width="11.3" d=" M-23.993913650512695,23.438329696655273 C-23.993913650512695,23.438329696655273 39.31700134277344,23.43400001525879 39.31700134277344,23.43400001525879 C42.077999114990234,23.43400001525879 44.31700134277344,21.19499969482422 44.31700134277344,18.43400001525879 C44.31700134277344,18.43400001525879 44.31700134277344,-18.43400001525879 44.31700134277344,-18.43400001525879 C44.31700134277344,-21.19499969482422 42.077999114990234,-23.43400001525879 39.31700134277344,-23.43400001525879 C39.31700134277344,-23.43400001525879 -35.48601150512695,-23.587974548339844 -35.48601150512695,-23.587974548339844 C-39.07201385498047,-23.587974548339844 -41.49201202392578,-19.923974990844727 -40.08501052856445,-16.625974655151367 C-40.08501052856445,-16.625974655151367 -28.592912673950195,20.399330139160156 -28.592912673950195,20.399330139160156 C-27.806913375854492,22.24233055114746 -25.99691390991211,23.438329696655273 -23.993913650512695,23.438329696655273z"/>
                </g>
                <g opacity="1" transform="matrix(1,0,0,1,380.1789855957031,268.0679931640625)">
                    <path stroke-linecap="round" stroke-linejoin="round" fill-opacity="0" class="primary" stroke="rgb(18,19,49)" stroke-opacity="1" stroke-width="11.3" d=" M-32.50148391723633,33.045780181884766 C-32.50148391723633,33.045780181884766 -3.4112110137939453,6.738555431365967 -0.625,-0.6240000128746033 C3.019801616668701,-10.256489753723145 8.860650062561035,-46.75004959106445 11.978886604309082,-64.9057846069336 C13.277061462402344,-72.46287536621094 14.103852272033691,-78.66073608398438 14.103852272033691,-78.66073608398438 C15.621817588806152,-87.03580474853516 23.640886306762695,-92.59600830078125 32.015953063964844,-91.07804870605469 C32.015953063964844,-91.07804870605469 32.015953063964844,-91.07804870605469 32.015953063964844,-91.07804870605469 C40.39101791381836,-89.5600814819336 46.04273223876953,-81.54100799560547 44.52476501464844,-73.16594696044922 C44.52476501464844,-73.16594696044922 44.50138473510742,-72.69206237792969 44.45648956298828,-72.33946228027344 C44.370445251464844,-71.6641845703125 44.204898834228516,-69.60275268554688 43.97107696533203,-67.82103729248047 C43.65308380126953,-65.40145874023438 43.20975875854492,-61.1821174621582 42.66916275024414,-57.25579833984375 C41.90316390991211,-51.69366455078125 40.942630767822266,-43.86430358886719 39.86892318725586,-36.768306732177734 C39.100120544433594,-31.689712524414062 38.27239227294922,-25.519079208374023 37.417545318603516,-20.421781539916992 C36.67399215698242,-15.992276191711426 35.90986633300781,-10.927628517150879 35.1429328918457,-6.9358367919921875 C33.64834976196289,0.8457257747650146 32.14628219604492,8.839492797851562 30.782638549804688,12.601204872131348 C30.227081298828125,14.132265090942383 28.93226432800293,16.306005477905273 27.344152450561523,18.640474319458008 C16.203048706054688,35.02103805541992 -19.710430145263672,71.33419799804688 -19.710430145263672,71.33419799804688 C-19.710430145263672,71.33419799804688 -19.703699111938477,93.9939193725586 -19.703699111938477,93.9939193725586"/>
                </g>
                <g opacity="1" transform="matrix(1,0,0,1,341.6600036621094,307.7040100097656)">
                    <path stroke-linecap="round" stroke-linejoin="round" fill-opacity="0" class="primary" stroke="rgb(18,19,49)" stroke-opacity="1" stroke-width="11.3" d=" M-38.157264709472656,54.331520080566406 C-38.157264709472656,54.331520080566406 -40.79662322998047,15.570613861083984 -40.64323806762695,4.830748081207275 C-35.63291931152344,-4.595978736877441 -5.514260768890381,-50.50526428222656 -5.514260768890381,-50.50526428222656 C-1.8358855247497559,-58.75478744506836 23.172746658325195,-67.92363739013672 27.356155395507812,-49.62873840332031 C25.398605346679688,-40.28618621826172 6.109663963317871,-6.393599510192871 6.109663963317871,-6.393599510192871"/>
                </g>
            </g>
            <g transform="matrix(-1.0283823013305664,0.256962388753891,0.256962388753891,1.0283823013305664,400.1834411621094,-94.45803833007812)" opacity="1" style="display: block;">
                <g opacity="1" transform="matrix(1,0,0,1,330.6570129394531,385.5)">
                    <path stroke-linecap="round" stroke-linejoin="round" fill-opacity="0" class="primary" stroke="rgb(18,19,49)" stroke-opacity="1" stroke-width="11.3" d=" M-23.993913650512695,23.438329696655273 C-23.993913650512695,23.438329696655273 39.31700134277344,23.43400001525879 39.31700134277344,23.43400001525879 C42.077999114990234,23.43400001525879 44.31700134277344,21.19499969482422 44.31700134277344,18.43400001525879 C44.31700134277344,18.43400001525879 44.31700134277344,-18.43400001525879 44.31700134277344,-18.43400001525879 C44.31700134277344,-21.19499969482422 42.077999114990234,-23.43400001525879 39.31700134277344,-23.43400001525879 C39.31700134277344,-23.43400001525879 -35.48601150512695,-23.587974548339844 -35.48601150512695,-23.587974548339844 C-39.07201385498047,-23.587974548339844 -41.49201202392578,-19.923974990844727 -40.08501052856445,-16.625974655151367 C-40.08501052856445,-16.625974655151367 -28.592912673950195,20.399330139160156 -28.592912673950195,20.399330139160156 C-27.806913375854492,22.24233055114746 -25.99691390991211,23.438329696655273 -23.993913650512695,23.438329696655273z"/>
                </g>
                <g opacity="1" transform="matrix(1,0,0,1,380.1789855957031,268.0679931640625)">
                    <path stroke-linecap="round" stroke-linejoin="round" fill-opacity="0" class="primary" stroke="rgb(18,19,49)" stroke-opacity="1" stroke-width="11.3" d=" M-32.50148391723633,33.045780181884766 C-32.50148391723633,33.045780181884766 -3.4112110137939453,6.738555431365967 -0.625,-0.6240000128746033 C3.019801616668701,-10.256489753723145 8.860650062561035,-46.75004959106445 11.978886604309082,-64.9057846069336 C13.277061462402344,-72.46287536621094 14.103852272033691,-78.66073608398438 14.103852272033691,-78.66073608398438 C15.621817588806152,-87.03580474853516 23.640886306762695,-92.59600830078125 32.015953063964844,-91.07804870605469 C32.015953063964844,-91.07804870605469 32.015953063964844,-91.07804870605469 32.015953063964844,-91.07804870605469 C40.39101791381836,-89.5600814819336 46.04273223876953,-81.54100799560547 44.52476501464844,-73.16594696044922 C44.52476501464844,-73.16594696044922 44.50138473510742,-72.69206237792969 44.45648956298828,-72.33946228027344 C44.370445251464844,-71.6641845703125 44.204898834228516,-69.60275268554688 43.97107696533203,-67.82103729248047 C43.65308380126953,-65.40145874023438 43.20975875854492,-61.1821174621582 42.66916275024414,-57.25579833984375 C41.90316390991211,-51.69366455078125 40.942630767822266,-43.86430358886719 39.86892318725586,-36.768306732177734 C39.100120544433594,-31.689712524414062 38.27239227294922,-25.519079208374023 37.417545318603516,-20.421781539916992 C36.67399215698242,-15.992276191711426 35.90986633300781,-10.927628517150879 35.1429328918457,-6.9358367919921875 C33.64834976196289,0.8457257747650146 32.14628219604492,8.839492797851562 30.782638549804688,12.601204872131348 C30.227081298828125,14.132265090942383 28.93226432800293,16.306005477905273 27.344152450561523,18.640474319458008 C16.203048706054688,35.02103805541992 -19.710430145263672,71.33419799804688 -19.710430145263672,71.33419799804688 C-19.710430145263672,71.33419799804688 -19.703699111938477,93.9939193725586 -19.703699111938477,93.9939193725586"/>
                </g>
                <g opacity="1" transform="matrix(1,0,0,1,341.6600036621094,307.7040100097656)">
                    <path stroke-linecap="round" stroke-linejoin="round" fill-opacity="0" class="primary" stroke="rgb(18,19,49)" stroke-opacity="1" stroke-width="11.3" d=" M-38.157264709472656,54.331520080566406 C-38.157264709472656,54.331520080566406 -40.79662322998047,15.570613861083984 -40.64323806762695,4.830748081207275 C-35.63291931152344,-4.595978736877441 -5.514260768890381,-50.50526428222656 -5.514260768890381,-50.50526428222656 C-1.8358855247497559,-58.75478744506836 23.172746658325195,-67.92363739013672 27.356155395507812,-49.62873840332031 C25.398605346679688,-40.28618621826172 6.109663963317871,-6.393599510192871 6.109663963317871,-6.393599510192871"/>
                </g>
            </g>
            <g transform="matrix(0.3421429395675659,0.939647912979126,-0.939647912979126,0.3421429395675659,215.41062927246094,134.85047912597656)" opacity="1" style="display: block;">
                <g opacity="1" transform="matrix(1,0,0,1,0,0)">
                    <path stroke-linecap="round" stroke-linejoin="round" fill-opacity="0" class="secondary" stroke="rgb(8,168,138)" stroke-opacity="1" stroke-width="12" d=" M0,19.186111450195312 C0,19.186111450195312 0,-12.753000259399414 0,-12.753000259399414 M-25.736000061035156,-40.22700119018555 C-30.569000244140625,-44.694000244140625 -32.816505432128906,-51.72784423828125 -31.572887420654297,-57.78334045410156 C-29.519498825073242,-68.26348876953125 -22.931711196899414,-67.87113952636719 -18.599475860595703,-66.21465301513672 C-18.599475860595703,-66.21465301513672 0,-64.26758575439453 0,-64.26758575439453 C0,-64.26758575439453 18.659839630126953,-66.21513366699219 18.659839630126953,-66.21513366699219 C22.99207305908203,-68.35453033447266 29.519498825073242,-68.26348876953125 31.572887420654297,-57.78334045410156 C32.816505432128906,-51.00349044799805 30.569000244140625,-44.694000244140625 25.736000061035156,-40.22700119018555 C25.736000061035156,-40.22700119018555 12.596083641052246,-28.081878662109375 10.17915153503418,-25.847484588623047 C8.453737258911133,-24.25245475769043 0,-19.335420608520508 0,-19.335420608520508 C0,-19.335420608520508 -8.577275276184082,-24.36640739440918 -10.321040153503418,-25.97834014892578 C-12.719621658325195,-28.195348739624023 -25.736000061035156,-40.22700119018555 -25.736000061035156,-40.22700119018555z M-26.104000091552734,39.064998626708984 C-30.948999404907227,43.10200119018555 -32.85517883300781,49.85805892944336 -31.939111709594727,55.872901916503906 C-30.85547637939453,59.13105392456055 -28.85335922241211,67.93699645996094 -25.41991424560547,67.93699645996094 C-20.228702545166016,67.93699645996094 0.31463706493377686,64.07376861572266 0.31463706493377686,64.07376861572266 C0.31463706493377686,64.07376861572266 20.107975006103516,67.93699645996094 25.782093048095703,67.93699645996094 C29.118955612182617,67.93699645996094 31.322927474975586,58.82151412963867 32.30128860473633,55.63145065307617 C33.152164459228516,49.59584426879883 30.948999404907227,43.10200119018555 26.104000091552734,39.064998626708984 C26.104000091552734,39.064998626708984 5.228127956390381,21.647991180419922 5.228127956390381,21.647991180419922 C2.2720487117767334,19.184833526611328 -2.021904706954956,19.184833526611328 -4.9779839515686035,21.647991180419922 C-4.9779839515686035,21.647991180419922 -26.104000091552734,39.064998626708984 -26.104000091552734,39.064998626708984z"/>
                </g>
            </g>
            <g transform="matrix(1,0,0,1,215,135.43699645996094)" opacity="1" style="display: none;">
                <g opacity="1" transform="matrix(1,0,0,1,0,0)">
                    <path stroke-linecap="round" stroke-linejoin="round" fill-opacity="0" class="secondary" stroke="rgb(8,168,138)" stroke-opacity="1" stroke-width="12" d=" M0,19.996999740600586 C0,19.996999740600586 0,-13.753000259399414 0,-13.753000259399414 M-25.736000061035156,-41.22700119018555 C-30.569000244140625,-45.694000244140625 -32.16699981689453,-52.66699981689453 -29.761999130249023,-58.792999267578125 C-25.791000366210938,-68.91000366210938 -13.093999862670898,-72.19400024414062 -4.716000080108643,-65.2699966430664 C-4.716000080108643,-65.2699966430664 0,-61.37200164794922 0,-61.37200164794922 C0,-61.37200164794922 4.716000080108643,-65.2699966430664 4.716000080108643,-65.2699966430664 C13.093999862670898,-72.19400024414062 25.791000366210938,-68.91000366210938 29.761999130249023,-58.792999267578125 C32.16699981689453,-52.66699981689453 30.569000244140625,-45.694000244140625 25.736000061035156,-41.22700119018555 C25.736000061035156,-41.22700119018555 9.675000190734863,-26.381000518798828 9.675000190734863,-26.381000518798828 C9.675000190734863,-26.381000518798828 0,-17.437999725341797 0,-17.437999725341797 C0,-17.437999725341797 -9.842000007629395,-26.535999298095703 -9.842000007629395,-26.535999298095703 C-9.842000007629395,-26.535999298095703 -25.736000061035156,-41.22700119018555 -25.736000061035156,-41.22700119018555z M-26.104000091552734,38.064998626708984 C-30.948999404907227,42.10200119018555 -33.75,48.08300018310547 -33.75,54.38999938964844 C-33.75,54.38999938964844 -33.75,66.93699645996094 -33.75,66.93699645996094 C-33.75,66.93699645996094 0.375,66.93699645996094 0.375,66.93699645996094 C0.375,66.93699645996094 33.75,66.93699645996094 33.75,66.93699645996094 C33.75,66.93699645996094 33.75,54.38999938964844 33.75,54.38999938964844 C33.75,48.08300018310547 30.948999404907227,42.10200119018555 26.104000091552734,38.064998626708984 C26.104000091552734,38.064998626708984 10.20300006866455,24.81399917602539 10.20300006866455,24.81399917602539 C4.293000221252441,19.888999938964844 -4.293000221252441,19.888999938964844 -10.20300006866455,24.81399917602539 C-10.20300006866455,24.81399917602539 -26.104000091552734,38.064998626708984 -26.104000091552734,38.064998626708984z"/>
                </g>
            </g>
            <g transform="matrix(0.3421429395675659,0.939647912979126,-0.939647912979126,0.3421429395675659,215,135)" opacity="1" style="display: block;">
                <g opacity="1" transform="matrix(1,0,0,1,0,0)">
                    <path stroke-linecap="round" stroke-linejoin="round" fill-opacity="0" class="primary" stroke="rgb(18,19,49)" stroke-opacity="1" stroke-width="12" d=" M78.75,90 C78.75,90 -78.75,90 -78.75,90 M78.75,-90 C78.75,-90 -78.75,-90 -78.75,-90 M-61.875,-90 C-61.875,-90 -61.875,-49.9119987487793 -61.875,-49.9119987487793 C-61.875,-42.349998474121094 -58.83000183105469,-35.106998443603516 -53.426998138427734,-29.816999435424805 C-53.426998138427734,-29.816999435424805 -22.976999282836914,0 -22.976999282836914,0 C-22.976999282836914,0 -53.426998138427734,29.816999435424805 -53.426998138427734,29.816999435424805 C-58.83000183105469,35.106998443603516 -61.875,42.349998474121094 -61.875,49.9119987487793 C-61.875,49.9119987487793 -61.875,90 -61.875,90 M61.875,90 C61.875,90 61.875,49.9119987487793 61.875,49.9119987487793 C61.875,42.349998474121094 58.83100128173828,35.106998443603516 53.428001403808594,29.816999435424805 C53.428001403808594,29.816999435424805 22.976999282836914,0 22.976999282836914,0 C22.976999282836914,0 53.428001403808594,-29.816999435424805 53.428001403808594,-29.816999435424805 C58.83100128173828,-35.106998443603516 61.875,-42.349998474121094 61.875,-49.9119987487793 C61.875,-49.9119987487793 61.875,-90 61.875,-90"/>
                </g>
            </g>
        </g>
    </g>
</svg>