<svg xmlns="http://www.w3.org/2000/svg"
    xmlns:xlink="http://www.w3.org/1999/xlink" viewBox="0 0 430 430" width="430" height="430" preserveAspectRatio="xMidYMid meet" style="width: 100%; height: 100%; transform: translate3d(0px, 0px, 0px); content-visibility: visible;">
    <defs>
        <clipPath id="__lottie_element_26">
            <rect width="430" height="430" x="0" y="0"/>
        </clipPath>
        <clipPath id="__lottie_element_28">
            <path d="M0,0 L430,0 L430,430 L0,430z"/>
        </clipPath>
    </defs>
    <g clip-path="url(#__lottie_element_26)">
        <g clip-path="url(#__lottie_element_28)" transform="matrix(1,0,0,1,0,0)" opacity="1" style="display: block;">
            <g transform="matrix(0.9999988079071045,0,0,0.9999988079071045,215,222.43197631835938)" opacity="1" style="display: block;">
                <g opacity="1" transform="matrix(1,0,0,1,0,0)">
                    <path stroke-linecap="butt" stroke-linejoin="round" fill-opacity="0" class="secondary" stroke="rgb(8,168,138)" stroke-opacity="1" stroke-width="12" d=" M-62.39099884033203,57.43199920654297 C-56.17499923706055,40.025001525878906 -39.542999267578125,27.56800079345703 -20,27.56800079345703 C-20,27.56800079345703 20,27.56800079345703 20,27.56800079345703 C39.542999267578125,27.56800079345703 56.17499923706055,40.025001525878906 62.39099884033203,57.43199920654297"/>
                </g>
            </g>
            <g transform="matrix(0.9999988079071045,0,0,0.9999988079071045,215,222.43197631835938)" opacity="1" style="display: block;">
                <g opacity="1" transform="matrix(1,0,0,1,0,0)">
                    <path stroke-linecap="round" stroke-linejoin="round" fill-opacity="0" class="secondary" stroke="rgb(8,168,138)" stroke-opacity="1" stroke-width="12" d=" M30,-27.43199920654297 C30,-10.86299991607666 16.569000244140625,2.568000078201294 0,2.568000078201294 C-16.569000244140625,2.568000078201294 -30,-10.86299991607666 -30,-27.43199920654297 C-30,-44.000999450683594 -16.569000244140625,-57.43199920654297 0,-57.43199920654297 C16.569000244140625,-57.43199920654297 30,-44.000999450683594 30,-27.43199920654297z"/>
                </g>
            </g>
            <g transform="matrix(0.9999988079071045,0,0,0.9999988079071045,214.75,214.99899291992188)" opacity="1" style="display: block;">
                <g opacity="1" transform="matrix(1,0,0,1,0,0)">
                    <path stroke-linecap="round" stroke-linejoin="round" fill-opacity="0" class="primary" stroke="rgb(18,19,49)" stroke-opacity="1" stroke-width="12.04" d=" M89.75,0 C89.75,49.56800079345703 49.56800079345703,89.75 0,89.75 C-49.56800079345703,89.75 -89.75,49.56800079345703 -89.75,0 C-89.75,-49.56800079345703 -49.56800079345703,-89.75 0,-89.75 C49.56800079345703,-89.75 89.75,-49.56800079345703 89.75,0z"/>
                </g>
            </g>
            <g transform="matrix(0.9999988079071045,0,0,0.9999988079071045,-35.24970245361328,-35.000709533691406)" opacity="1" style="display: block;">
                <g opacity="1" transform="matrix(1,0,0,1,250,139.78399658203125)">
                    <path stroke-linecap="round" stroke-linejoin="round" fill-opacity="0" class="primary" stroke="rgb(18,19,49)" stroke-opacity="1" stroke-width="12.04" d=" M0,-25.02400016784668 C0,-25.02400016784668 0,19.716999053955078 0,19.716999053955078 M24.878999710083008,-49.90299987792969 C24.878999710083008,-36.16299819946289 13.739999771118164,-25.02400016784668 0,-25.02400016784668 C-13.739999771118164,-25.02400016784668 -24.878999710083008,-36.16299819946289 -24.878999710083008,-49.90299987792969 C-24.878999710083008,-63.643001556396484 -13.739999771118164,-74.78199768066406 0,-74.78199768066406 C13.739999771118164,-74.78199768066406 24.878999710083008,-63.643001556396484 24.878999710083008,-49.90299987792969z"/>
                </g>
                <g opacity="0" transform="matrix(1,0,0,1,250,139.78399658203125)">
                    <path stroke-linecap="round" stroke-linejoin="round" fill-opacity="0" class="primary" stroke="rgb(18,19,49)" stroke-opacity="1" stroke-width="12.04" d=" M0,-74.78299713134766 C0,-74.78299713134766 0,-74.78299713134766 0,-74.78299713134766 M0,-74.78299713134766 C0,-74.78299713134766 0,-74.78299713134766 0,-74.78299713134766 C0,-74.78299713134766 0,-74.78299713134766 0,-74.78299713134766 C0,-74.78299713134766 0,-74.78299713134766 0,-74.78299713134766 C0,-74.78299713134766 0,-74.78299713134766 0,-74.78299713134766z"/>
                </g>
            </g>
            <g transform="matrix(0.49999940395355225,0.866024374961853,-0.866024374961853,0.49999940395355225,306.91290283203125,-127.00646209716797)" opacity="1" style="display: block;">
                <g opacity="1" transform="matrix(1,0,0,1,250,139.78399658203125)">
                    <path stroke-linecap="round" stroke-linejoin="round" fill-opacity="0" class="primary" stroke="rgb(18,19,49)" stroke-opacity="1" stroke-width="12.04" d=" M0,-25.02400016784668 C0,-25.02400016784668 0,19.716999053955078 0,19.716999053955078 M24.878999710083008,-49.90299987792969 C24.878999710083008,-36.16299819946289 13.739999771118164,-25.02400016784668 0,-25.02400016784668 C-13.739999771118164,-25.02400016784668 -24.878999710083008,-36.16299819946289 -24.878999710083008,-49.90299987792969 C-24.878999710083008,-63.643001556396484 -13.739999771118164,-74.78199768066406 0,-74.78199768066406 C13.739999771118164,-74.78199768066406 24.878999710083008,-63.643001556396484 24.878999710083008,-49.90299987792969z"/>
                </g>
                <g opacity="0" transform="matrix(1,0,0,1,250,139.78399658203125)">
                    <path stroke-linecap="round" stroke-linejoin="round" fill-opacity="0" class="primary" stroke="rgb(18,19,49)" stroke-opacity="1" stroke-width="12.04" d=" M0,-74.78299713134766 C0,-74.78299713134766 0,-74.78299713134766 0,-74.78299713134766 M0,-74.78299713134766 C0,-74.78299713134766 0,-74.78299713134766 0,-74.78299713134766 C0,-74.78299713134766 0,-74.78299713134766 0,-74.78299713134766 C0,-74.78299713134766 0,-74.78299713134766 0,-74.78299713134766 C0,-74.78299713134766 0,-74.78299713134766 0,-74.78299713134766z"/>
                </g>
            </g>
            <g transform="matrix(-0.49999940395355225,0.866024374961853,-0.866024374961853,-0.49999940395355225,557.91259765625,123.99425506591797)" opacity="1" style="display: block;">
                <g opacity="1" transform="matrix(1,0,0,1,250,139.78399658203125)">
                    <path stroke-linecap="round" stroke-linejoin="round" fill-opacity="0" class="primary" stroke="rgb(18,19,49)" stroke-opacity="1" stroke-width="12.04" d=" M0,-25.02400016784668 C0,-25.02400016784668 0,19.716999053955078 0,19.716999053955078 M24.878999710083008,-49.90299987792969 C24.878999710083008,-36.16299819946289 13.739999771118164,-25.02400016784668 0,-25.02400016784668 C-13.739999771118164,-25.02400016784668 -24.878999710083008,-36.16299819946289 -24.878999710083008,-49.90299987792969 C-24.878999710083008,-63.643001556396484 -13.739999771118164,-74.78199768066406 0,-74.78199768066406 C13.739999771118164,-74.78199768066406 24.878999710083008,-63.643001556396484 24.878999710083008,-49.90299987792969z"/>
                </g>
                <g opacity="0" transform="matrix(1,0,0,1,250,139.78399658203125)">
                    <path stroke-linecap="round" stroke-linejoin="round" fill-opacity="0" class="primary" stroke="rgb(18,19,49)" stroke-opacity="1" stroke-width="12.04" d=" M0,-74.78299713134766 C0,-74.78299713134766 0,-74.78299713134766 0,-74.78299713134766 M0,-74.78299713134766 C0,-74.78299713134766 0,-74.78299713134766 0,-74.78299713134766 C0,-74.78299713134766 0,-74.78299713134766 0,-74.78299713134766 C0,-74.78299713134766 0,-74.78299713134766 0,-74.78299713134766 C0,-74.78299713134766 0,-74.78299713134766 0,-74.78299713134766z"/>
                </g>
            </g>
            <g transform="matrix(-0.9999988079071045,0,0,-0.9999988079071045,464.74969482421875,465.0007019042969)" opacity="1" style="display: block;">
                <g opacity="1" transform="matrix(1,0,0,1,250,139.78399658203125)">
                    <path stroke-linecap="round" stroke-linejoin="round" fill-opacity="0" class="primary" stroke="rgb(18,19,49)" stroke-opacity="1" stroke-width="12.04" d=" M0,-25.02400016784668 C0,-25.02400016784668 0,19.716999053955078 0,19.716999053955078 M24.878999710083008,-49.90299987792969 C24.878999710083008,-36.16299819946289 13.739999771118164,-25.02400016784668 0,-25.02400016784668 C-13.739999771118164,-25.02400016784668 -24.878999710083008,-36.16299819946289 -24.878999710083008,-49.90299987792969 C-24.878999710083008,-63.643001556396484 -13.739999771118164,-74.78199768066406 0,-74.78199768066406 C13.739999771118164,-74.78199768066406 24.878999710083008,-63.643001556396484 24.878999710083008,-49.90299987792969z"/>
                </g>
                <g opacity="0" transform="matrix(1,0,0,1,250,139.78399658203125)">
                    <path stroke-linecap="round" stroke-linejoin="round" fill-opacity="0" class="primary" stroke="rgb(18,19,49)" stroke-opacity="1" stroke-width="12.04" d=" M0,-74.78299713134766 C0,-74.78299713134766 0,-74.78299713134766 0,-74.78299713134766 M0,-74.78299713134766 C0,-74.78299713134766 0,-74.78299713134766 0,-74.78299713134766 C0,-74.78299713134766 0,-74.78299713134766 0,-74.78299713134766 C0,-74.78299713134766 0,-74.78299713134766 0,-74.78299713134766 C0,-74.78299713134766 0,-74.78299713134766 0,-74.78299713134766z"/>
                </g>
            </g>
            <g transform="matrix(-0.49999940395355225,-0.866024374961853,0.866024374961853,-0.49999940395355225,122.08709716796875,556.5064697265625)" opacity="1" style="display: block;">
                <g opacity="1" transform="matrix(1,0,0,1,250,139.78399658203125)">
                    <path stroke-linecap="round" stroke-linejoin="round" fill-opacity="0" class="primary" stroke="rgb(18,19,49)" stroke-opacity="1" stroke-width="12.04" d=" M0,-25.02400016784668 C0,-25.02400016784668 0,19.716999053955078 0,19.716999053955078 M24.878999710083008,-49.90299987792969 C24.878999710083008,-36.16299819946289 13.739999771118164,-25.02400016784668 0,-25.02400016784668 C-13.739999771118164,-25.02400016784668 -24.878999710083008,-36.16299819946289 -24.878999710083008,-49.90299987792969 C-24.878999710083008,-63.643001556396484 -13.739999771118164,-74.78199768066406 0,-74.78199768066406 C13.739999771118164,-74.78199768066406 24.878999710083008,-63.643001556396484 24.878999710083008,-49.90299987792969z"/>
                </g>
                <g opacity="0" transform="matrix(1,0,0,1,250,139.78399658203125)">
                    <path stroke-linecap="round" stroke-linejoin="round" fill-opacity="0" class="primary" stroke="rgb(18,19,49)" stroke-opacity="1" stroke-width="12.04" d=" M0,-74.78299713134766 C0,-74.78299713134766 0,-74.78299713134766 0,-74.78299713134766 M0,-74.78299713134766 C0,-74.78299713134766 0,-74.78299713134766 0,-74.78299713134766 C0,-74.78299713134766 0,-74.78299713134766 0,-74.78299713134766 C0,-74.78299713134766 0,-74.78299713134766 0,-74.78299713134766 C0,-74.78299713134766 0,-74.78299713134766 0,-74.78299713134766z"/>
                </g>
            </g>
            <g transform="matrix(0.49999940395355225,-0.866024374961853,0.866024374961853,0.49999940395355225,-127.4126205444336,306.5057373046875)" opacity="1" style="display: block;">
                <g opacity="1" transform="matrix(1,0,0,1,250,139.78399658203125)">
                    <path stroke-linecap="round" stroke-linejoin="round" fill-opacity="0" class="primary" stroke="rgb(18,19,49)" stroke-opacity="1" stroke-width="12.04" d=" M0,-25.02400016784668 C0,-25.02400016784668 0,19.716999053955078 0,19.716999053955078 M24.878999710083008,-49.90299987792969 C24.878999710083008,-36.16299819946289 13.739999771118164,-25.02400016784668 0,-25.02400016784668 C-13.739999771118164,-25.02400016784668 -24.878999710083008,-36.16299819946289 -24.878999710083008,-49.90299987792969 C-24.878999710083008,-63.643001556396484 -13.739999771118164,-74.78199768066406 0,-74.78199768066406 C13.739999771118164,-74.78199768066406 24.878999710083008,-63.643001556396484 24.878999710083008,-49.90299987792969z"/>
                </g>
                <g opacity="0" transform="matrix(1,0,0,1,250,139.78399658203125)">
                    <path stroke-linecap="round" stroke-linejoin="round" fill-opacity="0" class="primary" stroke="rgb(18,19,49)" stroke-opacity="1" stroke-width="12.04" d=" M0,-74.78299713134766 C0,-74.78299713134766 0,-74.78299713134766 0,-74.78299713134766 M0,-74.78299713134766 C0,-74.78299713134766 0,-74.78299713134766 0,-74.78299713134766 C0,-74.78299713134766 0,-74.78299713134766 0,-74.78299713134766 C0,-74.78299713134766 0,-74.78299713134766 0,-74.78299713134766 C0,-74.78299713134766 0,-74.78299713134766 0,-74.78299713134766z"/>
                </g>
            </g>
        </g>
    </g>
</svg>