<svg xmlns="http://www.w3.org/2000/svg"
    xmlns:xlink="http://www.w3.org/1999/xlink" viewBox="0 0 430 430" width="430" height="430" preserveAspectRatio="xMidYMid meet" style="width: 100%; height: 100%; transform: translate3d(0px, 0px, 0px); content-visibility: visible;">
    <defs>
        <clipPath id="__lottie_element_26">
            <rect width="430" height="430" x="0" y="0"/>
        </clipPath>
        <clipPath id="__lottie_element_28">
            <path d="M0,0 L430,0 L430,430 L0,430z"/>
        </clipPath>
    </defs>
    <g clip-path="url(#__lottie_element_26)">
        <g clip-path="url(#__lottie_element_28)" transform="matrix(1,0,0,1,0,0)" opacity="1" style="display: block;">
            <g transform="matrix(1,0,0,1,-35,-35)" opacity="1" style="display: block;">
                <g opacity="1" transform="matrix(1,0,0,1,0,0)">
                    <g opacity="1" transform="matrix(1,0,0,1,319.9830017089844,118.2229995727539)">
                        <path stroke-linecap="round" stroke-linejoin="round" fill-opacity="0" class="secondary" stroke="rgb(8,168,138)" stroke-opacity="1" stroke-width="12" d=" M-19.60300064086914,-15.85099983215332 C-19.60300064086914,-15.85099983215332 -19.591999053955078,-15.85099983215332 -19.591999053955078,-15.85099983215332 C-19.591999053955078,-15.85099983215332 19.60300064086914,15.85099983215332 19.60300064086914,15.85099983215332"/>
                    </g>
                    <g opacity="1" transform="matrix(1,0,0,1,0,0)">
                        <g opacity="1" transform="matrix(1,0,0,1,282.7619934082031,204.3699951171875)">
                            <path stroke-linecap="round" stroke-linejoin="round" fill-opacity="0" class="primary" stroke="rgb(18,19,49)" stroke-opacity="1" stroke-width="12" d=" M-17.27199935913086,21.368000030517578 C-17.27199935913086,21.368000030517578 2.7780001163482666,-3.430999994277954 2.7780001163482666,-3.430999994277954 C2.7780001163482666,-3.430999994277954 17.27199935913086,-21.368000030517578 17.27199935913086,-21.368000030517578"/>
                        </g>
                        <g opacity="1" transform="matrix(1,0,0,1,299.7130126953125,128.6179962158203)">
                            <path stroke-linecap="round" stroke-linejoin="round" fill-opacity="0" class="primary" stroke="rgb(18,19,49)" stroke-opacity="1" stroke-width="12" d=" M27.52400016784668,20.738000869750977 C27.52400016784668,20.738000869750977 39.87200164794922,5.461999893188477 39.87200164794922,5.461999893188477 C39.87200164794922,5.461999893188477 55.393001556396484,-13.736000061035156 55.393001556396484,-13.736000061035156 C55.393001556396484,-13.736000061035156 73.43499755859375,-24.951000213623047 73.43499755859375,-24.951000213623047 C73.43499755859375,-24.951000213623047 23.3700008392334,-65.42400360107422 23.3700008392334,-65.42400360107422 C23.3700008392334,-65.42400360107422 16.180999755859375,-45.43199920654297 16.180999755859375,-45.43199920654297 C16.180999755859375,-45.43199920654297 0.6710000038146973,-26.246000289916992 0.6710000038146973,-26.246000289916992 C0.6710000038146973,-26.246000289916992 -73.43499755859375,65.42400360107422 -73.43499755859375,65.42400360107422"/>
                        </g>
                    </g>
                </g>
            </g>
            <g transform="matrix(-0.8087399005889893,-0.5881664156913757,0.5881664156913757,-0.8087399005889893,241.4053955078125,516.0848388671875)" opacity="1" style="display: block;">
                <g opacity="1" transform="matrix(1,0,0,1,228.0989990234375,230.16400146484375)">
                    <path stroke-linecap="round" stroke-linejoin="round" fill-opacity="0" class="secondary" stroke="rgb(8,168,138)" stroke-opacity="1" stroke-width="12" d=" M-33.95199966430664,26.392000198364258 C-33.84400177001953,23.8700008392334 -33.35499954223633,21.457000732421875 -32.5369987487793,19.209999084472656 C-32.5369987487793,19.209999084472656 -39.76300048828125,-20.44499969482422 -39.76300048828125,-20.44499969482422 C-39.76300048828125,-20.44499969482422 -15.336000442504883,-25.084999084472656 -15.336000442504883,-25.084999084472656 C-15.336000442504883,-25.084999084472656 -10.263999938964844,3.507999897003174 -10.263999938964844,3.507999897003174 C-10.263999938964844,3.507999897003174 6.401000022888184,4.004000186920166 6.401000022888184,4.004000186920166 C6.401000022888184,4.004000186920166 14.54800033569336,-23.64900016784668 14.54800033569336,-23.64900016784668 C14.54800033569336,-23.64900016784668 38.14400100708008,-17.218000411987305 38.14400100708008,-17.218000411987305 C38.14400100708008,-17.218000411987305 32.040000915527344,5.453999996185303 32.040000915527344,5.453999996185303 C32.34700012207031,5.431000232696533 31.88599967956543,5.4679999351501465 32.08300018310547,5.478000164031982 C32.08300018310547,5.478000164031982 37.981998443603516,-17.118999481201172 37.981998443603516,-17.118999481201172 C37.981998443603516,-17.118999481201172 38.104000091552734,-16.871000289916992 38.104000091552734,-16.871000289916992 C38.104000091552734,-16.871000289916992 28.158000946044922,19.708999633789062 28.158000946044922,19.708999633789062 C29.243000030517578,22.631999969482422 29.781999588012695,25.809999465942383 29.639999389648438,29.12299919128418"/>
                </g>
                <g opacity="1" transform="matrix(1,0,0,1,228.0989990234375,230.16400146484375)">
                    <path stroke-linecap="round" stroke-linejoin="round" fill-opacity="0" class="secondary" stroke="rgb(8,168,138)" stroke-opacity="1" stroke-width="12" d=" M29.639999389648438,29.12299919128418 C29.639999389648438,29.12299919128418 -33.95199966430664,26.392000198364258 -33.95199966430664,26.392000198364258"/>
                </g>
            </g>
            <g transform="matrix(1,0,0,1,-35,-35)" opacity="1" style="display: block;">
                <g opacity="1" transform="matrix(1,0,0,1,239.71499633789062,416.7909851074219)">
                    <path stroke-linecap="round" stroke-linejoin="round" fill-opacity="0" class="primary" stroke="rgb(18,19,49)" stroke-opacity="1" stroke-width="12" d=" M-80.21099853515625,-20.014999389648438 C-80.21099853515625,-20.014999389648438 80.21099853515625,-20.014999389648438 80.21099853515625,-20.014999389648438 C94.80500030517578,-20.014999389648438 106.74600219726562,-8.074000358581543 106.74600219726562,6.519999980926514 C106.74600219726562,6.519999980926514 106.74600219726562,20.014999389648438 106.74600219726562,20.014999389648438 C106.74600219726562,20.014999389648438 -106.74600219726562,20.014999389648438 -106.74600219726562,20.014999389648438 C-106.74600219726562,20.014999389648438 -106.74600219726562,6.519999980926514 -106.74600219726562,6.519999980926514 C-106.74600219726562,-8.074000358581543 -94.80500030517578,-20.014999389648438 -80.21099853515625,-20.014999389648438z"/>
                </g>
                <g opacity="1" transform="matrix(1,0,0,1,319.2619934082031,291.7460021972656)">
                    <path stroke-linecap="round" stroke-linejoin="round" fill-opacity="0" class="primary" stroke="rgb(18,19,49)" stroke-opacity="1" stroke-width="12" d=" M9.876999855041504,-90.06600189208984 C22.22100067138672,-69.822998046875 29.340999603271484,-46.03099822998047 29.340999603271484,-20.586999893188477 C29.340999603271484,25.448999404907227 6.072999954223633,66.04199981689453 -29.340999603271484,90.06600189208984"/>
                </g>
                <g opacity="1" transform="matrix(1,0,0,1,280.9960021972656,277.78399658203125)">
                    <path stroke-linecap="round" stroke-linejoin="round" fill-opacity="0" class="primary" stroke="rgb(18,19,49)" stroke-opacity="1" stroke-width="12" d=" M-24.548999786376953,76.8499984741211 C2.930999994277954,56.67599868774414 24.548999786376953,29.895000457763672 24.548999786376953,-6.625 C24.548999786376953,-30.78499984741211 17.639999389648438,-54.12900161743164 6.374000072479248,-73.75499725341797 C5.776000022888184,-74.7979965209961 5.164999961853027,-75.8290023803711 4.541999816894531,-76.8499984741211"/>
                </g>
                <g opacity="1" transform="matrix(1,0,0,1,239.6699981689453,370.12298583984375)">
                    <path stroke-linecap="round" stroke-linejoin="round" fill-opacity="0" class="primary" stroke="rgb(18,19,49)" stroke-opacity="1" stroke-width="12" d=" M-66.91400146484375,26.652999877929688 C-66.91400146484375,26.652999877929688 -6.048999786376953,-24.43600082397461 -6.048999786376953,-24.43600082397461 C-2.5250000953674316,-27.393999099731445 2.615000009536743,-27.392000198364258 6.13700008392334,-24.43199920654297 C6.13700008392334,-24.43199920654297 66.91400146484375,26.652999877929688 66.91400146484375,26.652999877929688"/>
                </g>
                <g opacity="1" transform="matrix(1,0,0,1,325.343994140625,175.6320037841797)">
                    <path stroke-linecap="round" stroke-linejoin="round" fill-opacity="0" class="secondary" stroke="rgb(8,168,138)" stroke-opacity="1" stroke-width="12" d=" M-26.358999252319336,0 C-26.358999252319336,14.557000160217285 -14.557000160217285,26.358999252319336 0,26.358999252319336 C14.557000160217285,26.358999252319336 26.358999252319336,14.557000160217285 26.358999252319336,0 C26.358999252319336,-14.557000160217285 14.557000160217285,-26.358999252319336 0,-26.358999252319336 C-14.557000160217285,-26.358999252319336 -26.358999252319336,-14.557000160217285 -26.358999252319336,0z"/>
                </g>
                <g opacity="1" transform="matrix(1,0,0,1,186.31900024414062,290.0299987792969)">
                    <path stroke-linecap="round" stroke-linejoin="round" fill-opacity="0" class="primary" stroke="rgb(18,19,49)" stroke-opacity="1" stroke-width="12" d=" M53.349998474121094,53.37300109863281 C53.349998474121094,53.37300109863281 61.30994415283203,18.00342559814453 61.30994415283203,18.00342559814453 C61.30994415283203,18.00342559814453 -45.39005661010742,-62.056575775146484 -45.39005661010742,-62.056575775146484"/>
                </g>
                <g opacity="1" transform="matrix(1,0,0,1,199.47000122070312,353.4049987792969)">
                    <path stroke-linecap="round" stroke-linejoin="round" fill-opacity="0" class="primary" stroke="rgb(18,19,49)" stroke-opacity="1" stroke-width="12" d=" M13.1850004196167,9.885000228881836 C13.1850004196167,9.885000228881836 -13.1850004196167,-9.885000228881836 -13.1850004196167,-9.885000228881836"/>
                </g>
                <g opacity="1" transform="matrix(1,0,0,1,148.947998046875,315.46600341796875)">
                    <path stroke-linecap="round" stroke-linejoin="round" fill-opacity="0" class="secondary" stroke="rgb(8,168,138)" stroke-opacity="1" stroke-width="12" d=" M-29.267000198364258,-38.762001037597656 C-29.267000198364258,-38.762001037597656 45.327999114990234,17.448999404907227 45.327999114990234,17.448999404907227 C45.327999114990234,17.448999404907227 29.267000198364258,38.762001037597656 29.267000198364258,38.762001037597656 C29.267000198364258,38.762001037597656 -45.327999114990234,-17.448999404907227 -45.327999114990234,-17.448999404907227 C-45.327999114990234,-17.448999404907227 -29.267000198364258,-38.762001037597656 -29.267000198364258,-38.762001037597656z"/>
                </g>
            </g>
        </g>
    </g>
</svg>