<svg xmlns="http://www.w3.org/2000/svg" version="1.1"
    xmlns:xlink="http://www.w3.org/1999/xlink" width="512" height="512" x="0" y="0" viewBox="0 0 512 512" style="enable-background:new 0 0 512 512" xml:space="preserve">
    <g>
        <path d="M325.6 322.4c0 5.3-8 5.3-8 0 0-20.9 17-38 38-38 20.9 0 38 17 38 38 0 35.1-34 32.5-34 46.3v10.7c0 5.3-8 5.3-8 0 0-16.8-1.6-19.6 15.1-29.2 8.6-5 18.9-10.8 18.9-27.8 0-16.6-13.4-30-30-30s-30 13.4-30 30zm26 72.7c0-5.3 8-5.3 8 0v6.3c0 5.2-8 5.2-8 0zm.6-143.2c50.3 0 91 40.8 91 91 0 50.3-40.8 91-91 91-50.3 0-91-40.7-91-91 0-50.2 40.7-91 91-91zm58.7 32.3c-32.4-32.4-85-32.4-117.4 0s-32.4 85 0 117.4 85 32.4 117.4 0 32.4-85 0-117.4zm-58.3-44.7c-57.3 0-103.7 46.4-103.7 103.7 0 70.2 68.1 119.5 134.3 99.2 1.2-.4 2.6-.1 3.5.6l38.4 26.4-14.6-36.3c-.7-1.8 0-3.9 1.6-4.9 13.6-9.5 24.8-22.3 32.5-37.1 21-40.2 13.2-89.4-18.7-121.3-18.7-18.7-44.7-30.3-73.3-30.3zm-79 24.8c16.6-16.6 38.5-28.1 63-31.6-58.7-39-67.4-122.1-17.3-172.2 43.7-43.7 114.4-43.7 158 0 48.4 48.4 42.2 128.2-12.5 168.8l18.4 45.7c1.4 3.6-2.7 7-6 4.8l-47.8-32.9c-4.9 1.4-9.9 2.5-15 3.2 47.5 31.5 63.9 93.9 37.4 144.8-7.9 15.1-19.1 28.1-32.6 38.2l18.3 45.7c1.4 3.6-2.7 7-6 4.8l-47.8-32.9c-71 20.6-142.8-32.6-142.8-107.3-.1-31 12.4-58.9 32.7-79.1zm76.7-32.8h2.3c17.9 0 34.8 4.2 49.8 11.7 4.4-.2 8.7-.6 12.9-1.3 4.6-.8 9.2-1.8 13.6-3.2 1.2-.4 2.5-.1 3.5.6l38.4 26.4-14.6-36.3c-.7-1.8 0-3.9 1.6-4.9 13.6-9.5 24.8-22.3 32.5-37.1 21-40.2 13.2-89.4-18.7-121.3-40.5-40.5-106.2-40.5-146.7 0-49.7 49.7-36.5 133.1 25.4 165.4zm21-112.9c0 5.3-8 5.3-8 0 0-21 17-38 38-38s38 17 38 38c0 35.1-34 32.5-34 46.3v10.7c0 5.2-8 5.2-8 0 0-16.8-1.6-19.6 15.1-29.2 8.6-5 18.9-10.8 18.9-27.8 0-16.6-13.4-30-30-30s-30 13.5-30 30zm25.9 72.8c0-5.3 8-5.3 8 0v6.3c0 5.3-8 5.3-8 0zm1.4-142.9c50.3 0 91 40.8 91 91 0 50.3-40.8 91-91 91-50.3 0-91-40.7-91-91 0-50.2 40.7-91 91-91zm58.7 32.3c-32.4-32.4-85-32.4-117.4 0s-32.4 85 0 117.4 85 32.4 117.4 0 32.4-84.9 0-117.4zM94.4 252l-3.1 30.6c-.2 2.1-2 3.6-4 3.6H72.8c.5 6.8 1.9 15 1.9 21.1 0 11.1-3.9 18.1-20.3 18.1-3.5 0-7.3.2-10.8-.2-7.1-.9-12.1-3.9-10.9-13.7l7.6-59.5H28.8C14.1 252 2 239.9 2 225.1v-64.5c0-14.8 12.1-26.8 26.8-26.8h67.5c6.5 0 12.1 4.3 13.9 10.3l86-46.1c.7-11.7 15.1-17.3 23.6-8.9 2.5 2.5 4.1 6 4.1 9.8v56.7c29.2 16.2 29.2 58.3 0 74.5v56.7c0 12.2-14.9 18.5-23.6 9.8-2.3-2.3-3.8-5.4-4-8.9l-86-46.1c-.7 2.3-2 4.4-3.6 6.1-3.9 3.7-7.5 4.3-12.3 4.3zm-21.8 26.2h11.1l2.6-26.2h-5.1l-.2.2c-6.2 8.4-8.2 17.4-8.4 26zM210 93.1c-3.2 0-5.8 2.6-5.8 5.8v187.9c0 5.1 6.2 7.8 9.9 4.1 1-1.1 1.7-2.5 1.7-4.1V98.9c0-3.2-2.6-5.8-5.8-5.8zm13.8 71.9v55.6c18.6-13.8 18.6-41.7 0-55.6zm-27.7 113.6V107.1l-85.4 45.8V233zm55-120.8c-1.8 1.2-4.3.8-5.6-1-1.2-1.8-.8-4.3 1-5.6l15.8-10.9c1.8-1.2 4.3-.8 5.6 1 1.2 1.8.8 4.3-1 5.6zm-4.6 76c-1.8-1.3-2.3-3.8-1-5.6s3.8-2.2 5.6-1l13.2 9.2c1.8 1.2 2.3 3.7 1 5.6-1.2 1.8-3.7 2.3-5.6 1zm14.7-37.1c-5.3 0-5.3-8 0-8h15.3c5.3 0 5.3 8 0 8zM48.4 252l-7.7 60.5c-.4 3.4 1.4 4.4 4 4.8 2.8.3 6.7.1 9.8.1 10 0 12.3-3.9 12.3-10.1 0-3.1-.4-6.9-.9-11-1.5-12.9-3.4-28.8 5.8-44.3zm47.9-110.3H28.8c-10.3 0-18.9 8.5-18.9 18.9v64.5c0 10.4 8.5 18.9 18.9 18.9h67.5c1.8 0 3.4-.7 4.6-1.9 1.2-1.2 1.9-2.7 1.9-4.6v-89.3c0-3.5-2.9-6.5-6.5-6.5z" fill="#000000" opacity="1" data-original="#000000"></path>
    </g>
</svg>