<svg xmlns="http://www.w3.org/2000/svg"
    xmlns:xlink="http://www.w3.org/1999/xlink" viewBox="0 0 430 430" width="430" height="430" preserveAspectRatio="xMidYMid meet" style="width: 100%; height: 100%; transform: translate3d(0px, 0px, 0px); content-visibility: visible;">
    <defs>
        <clipPath id="__lottie_element_2">
            <rect width="430" height="430" x="0" y="0"/>
        </clipPath>
        <clipPath id="__lottie_element_4">
            <path d="M0,0 L430,0 L430,430 L0,430z"/>
        </clipPath>
        <clipPath id="__lottie_element_12">
            <path fill="#ffffff" clip-rule="nonzero" d=" M153.86500549316406,-33.4739990234375 C153.86500549316406,-33.4739990234375 -126.49099731445312,-114.33599853515625 -126.49099731445312,-114.33599853515625 C-126.49099731445312,-114.33599853515625 -147.41700744628906,-41.7869987487793 -147.41700744628906,-41.7869987487793 C-147.41700744628906,-41.7869987487793 132.93899536132812,39.07600021362305 132.93899536132812,39.07600021362305 C132.93899536132812,39.07600021362305 153.86500549316406,-33.4739990234375 153.86500549316406,-33.4739990234375" fill-opacity="1"/>
        </clipPath>
        <clipPath id="__lottie_element_15">
            <path fill="#ffffff" clip-rule="nonzero" d=" M153.86500549316406,-33.4739990234375 C153.86500549316406,-33.4739990234375 -126.49099731445312,-114.33599853515625 -126.49099731445312,-114.33599853515625 C-126.49099731445312,-114.33599853515625 -147.41700744628906,-41.7869987487793 -147.41700744628906,-41.7869987487793 C-147.41700744628906,-41.7869987487793 132.93899536132812,39.07600021362305 132.93899536132812,39.07600021362305 C132.93899536132812,39.07600021362305 153.86500549316406,-33.4739990234375 153.86500549316406,-33.4739990234375" fill-opacity="1"/>
        </clipPath>
        <clipPath id="__lottie_element_18">
            <path fill="#ffffff" clip-rule="nonzero" d=" M128.04100036621094,-33.91899871826172 C128.04100036621094,-33.91899871826172 -118.95899963378906,44.08100128173828 -118.95899963378906,44.08100128173828 C-118.95899963378906,44.08100128173828 -137.95899963378906,-26.91900062561035 -137.95899963378906,-26.91900062561035 C-137.95899963378906,-26.91900062561035 -111.00700378417969,-33.61399841308594 -111.00700378417969,-33.61399841308594 C-111.00700378417969,-33.61399841308594 -52.14099884033203,-5.720555782318115 -52.14099884033203,-5.720555782318115 C-52.14099884033203,-5.720555782318115 -31.220548629760742,-12.380402565002441 -31.220548629760742,-12.380402565002441 C-31.220548629760742,-12.380402565002441 -70.58200073242188,-29.35300064086914 -70.58200073242188,-29.35300064086914 C-70.58200073242188,-29.35300064086914 101.54100036621094,-86.41899871826172 101.54100036621094,-86.41899871826172 C101.54100036621094,-86.41899871826172 128.04100036621094,-33.91899871826172 128.04100036621094,-33.91899871826172" fill-opacity="1"/>
        </clipPath>
        <clipPath id="__lottie_element_21">
            <path fill="#ffffff" clip-rule="nonzero" d=" M128.04100036621094,-33.91899871826172 C128.04100036621094,-33.91899871826172 -118.95899963378906,44.08100128173828 -118.95899963378906,44.08100128173828 C-118.95899963378906,44.08100128173828 -137.95899963378906,-26.91900062561035 -137.95899963378906,-26.91900062561035 C-137.95899963378906,-26.91900062561035 -111.00700378417969,-33.61399841308594 -111.00700378417969,-33.61399841308594 C-111.00700378417969,-33.61399841308594 -52.14099884033203,-5.720555782318115 -52.14099884033203,-5.720555782318115 C-52.14099884033203,-5.720555782318115 -31.220548629760742,-12.380402565002441 -31.220548629760742,-12.380402565002441 C-31.220548629760742,-12.380402565002441 -70.58200073242188,-29.35300064086914 -70.58200073242188,-29.35300064086914 C-70.58200073242188,-29.35300064086914 101.54100036621094,-86.41899871826172 101.54100036621094,-86.41899871826172 C101.54100036621094,-86.41899871826172 128.04100036621094,-33.91899871826172 128.04100036621094,-33.91899871826172" fill-opacity="1"/>
        </clipPath>
        <clipPath id="__lottie_element_24">
            <path fill="#ffffff" clip-rule="nonzero" d=" M123.04100036621094,-41.91899871826172 C123.04100036621094,-41.91899871826172 -122.45899963378906,35.08100128173828 -122.45899963378906,35.08100128173828 C-122.45899963378906,35.08100128173828 -111.45899963378906,71.58100128173828 -111.45899963378906,71.58100128173828 C-111.45899963378906,71.58100128173828 156.54100036621094,17.58099937438965 156.54100036621094,17.58099937438965 C156.54100036621094,17.58099937438965 123.04100036621094,-41.91899871826172 123.04100036621094,-41.91899871826172" fill-opacity="1"/>
        </clipPath>
        <clipPath id="__lottie_element_27">
            <path fill="#ffffff" clip-rule="nonzero" d=" M113.74500274658203,109.23799896240234 C113.74500274658203,109.23799896240234 -166.61099243164062,28.375 -166.61099243164062,28.375 C-166.61099243164062,28.375 -145.95199584960938,-46.04199981689453 -145.95199584960938,-46.04199981689453 C-145.95199584960938,-46.04199981689453 134.4029998779297,34.82099914550781 134.4029998779297,34.82099914550781 C134.4029998779297,34.82099914550781 113.74500274658203,109.23799896240234 113.74500274658203,109.23799896240234" fill-opacity="1"/>
        </clipPath>
    </defs>
    <g clip-path="url(#__lottie_element_2)">
        <g clip-path="url(#__lottie_element_4)" transform="matrix(1,0,0,1,0,0)" opacity="1" style="display: block;">
            <g clip-path="url(#__lottie_element_12)" transform="matrix(0.9717085957527161,-0.23618289828300476,0.23618289828300476,0.9717085957527161,159.59857177734375,73.65370178222656)" opacity="1" style="display: block;">
                <g opacity="1" transform="matrix(1,0,0,1,0,0)">
                    <path stroke-linecap="round" stroke-linejoin="round" fill-opacity="0" class="primary" stroke="rgb(18,19,49)" stroke-opacity="1" stroke-width="12" d=" M-26.423999786376953,-32.356998443603516 C-63.263999938964844,-39.104000091552734 -91.83699798583984,-37.79800033569336 -96.02999877929688,-27.812999725341797 C-96.02999877929688,-27.812999725341797 -96.02999877929688,-27.812999725341797 -96.02999877929688,-27.812999725341797 C-101.53099822998047,-14.71500015258789 -62.99700164794922,8.354999542236328 -9.961000442504883,23.71500015258789 C-6.309000015258789,24.773000717163086 -2.684000015258789,25.766000747680664 0.9020000100135803,26.69499969482422"/>
                </g>
            </g>
            <g clip-path="url(#__lottie_element_15)" transform="matrix(0.9717085957527161,-0.23618289828300476,0.23618289828300476,0.9717085957527161,159.59857177734375,73.65370178222656)" opacity="1" style="display: block;">
                <g opacity="1" transform="matrix(1,0,0,1,0,0)">
                    <path stroke-linecap="round" stroke-linejoin="round" fill-opacity="0" class="primary" stroke="rgb(18,19,49)" stroke-opacity="1" stroke-width="12" d=" M-26.423999786376953,-32.356998443603516 C-63.263999938964844,-39.104000091552734 -91.83699798583984,-37.79800033569336 -96.02999877929688,-27.812999725341797 C-96.02999877929688,-27.812999725341797 -96.02999877929688,-27.812999725341797 -96.02999877929688,-27.812999725341797 C-101.53099822998047,-14.71500015258789 -62.99700164794922,8.354999542236328 -9.961000442504883,23.71500015258789 C-6.309000015258789,24.773000717163086 -2.684000015258789,25.766000747680664 0.9020000100135803,26.69499969482422"/>
                </g>
            </g>
            <g clip-path="url(#__lottie_element_18)" transform="matrix(0.9485585689544678,-0.3166016638278961,0.3166016638278961,0.9485585689544678,142.85906982421875,78.75190734863281)" opacity="1" style="display: block;">
                <g opacity="1" transform="matrix(1,0,0,1,0,0)">
                    <path stroke-linecap="round" stroke-linejoin="round" fill-opacity="0" class="primary" stroke="rgb(18,19,49)" stroke-opacity="1" stroke-width="12" d=" M-8.079999923706055,28.479999542236328 C-2.177999973297119,27.072999954223633 3.8550000190734863,25.482999801635742 9.961000442504883,23.71500015258789 C62.99700164794922,8.354999542236328 101.53099822998047,-14.71500015258789 96.02999877929688,-27.812999725341797 C96.02999877929688,-27.812999725341797 96.02999877929688,-27.812999725341797 96.02999877929688,-27.812999725341797 C92.11900329589844,-37.125 67.00599670410156,-38.88800048828125 33.75699996948242,-33.611000061035156"/>
                </g>
            </g>
            <g clip-path="url(#__lottie_element_21)" transform="matrix(0.9485585689544678,-0.3166016638278961,0.3166016638278961,0.9485585689544678,142.85906982421875,78.75190734863281)" opacity="1" style="display: block;">
                <g opacity="1" transform="matrix(1,0,0,1,0,0)">
                    <path stroke-linecap="round" stroke-linejoin="round" fill-opacity="0" class="primary" stroke="rgb(18,19,49)" stroke-opacity="1" stroke-width="12" d=" M-8.079999923706055,28.479999542236328 C-2.177999973297119,27.072999954223633 3.8550000190734863,25.482999801635742 9.961000442504883,23.71500015258789 C62.99700164794922,8.354999542236328 101.53099822998047,-14.71500015258789 96.02999877929688,-27.812999725341797 C96.02999877929688,-27.812999725341797 96.02999877929688,-27.812999725341797 96.02999877929688,-27.812999725341797 C92.11900329589844,-37.125 67.00599670410156,-38.88800048828125 33.75699996948242,-33.611000061035156"/>
                </g>
            </g>
            <g transform="matrix(0.9964104294776917,-0.0846538320183754,0.0846538320183754,0.9964104294776917,-67.86407470703125,-12.40496826171875)" opacity="1" style="display: block;">
                <g opacity="1" transform="matrix(1,0,0,1,249.93499755859375,232.28500366210938)">
                    <path stroke-linecap="round" stroke-linejoin="round" fill-opacity="0" class="primary" stroke="rgb(18,19,49)" stroke-opacity="1" stroke-width="12" d=" M29.261377334594727,56.21195602416992 C29.261377334594727,56.21195602416992 36.91865921020508,55.82887649536133 36.91865921020508,55.82887649536133 C83.0115966796875,53.5244255065918 125.46499633789062,95.28500366210938 125.46499633789062,141.4550018310547 C125.46499633789062,141.4550018310547 125.46499633789062,169.4250030517578 125.46499633789062,169.4250030517578 C125.46499633789062,177.09500122070312 119.71499633789062,183.5449981689453 112.09500122070312,184.43499755859375 C112.09500122070312,184.43499755859375 82.84500122070312,187.81500244140625 82.84500122070312,187.81500244140625 C74.84500122070312,188.73500061035156 67.0250015258789,190.78500366210938 59.60499954223633,193.88499450683594 C40.46500015258789,201.89500427246094 20.114999771118164,205.89500427246094 -0.23499999940395355,205.89500427246094 C-20.475000381469727,205.89500427246094 -40.724998474121094,201.93499755859375 -59.78499984741211,194.0050048828125 C-59.78499984741211,194.0050048828125 -59.98500061035156,193.9250030517578 -59.98500061035156,193.9250030517578 C-67.73500061035156,190.7050018310547 -75.8949966430664,188.5850067138672 -84.23500061035156,187.625 C-84.23500061035156,187.625 -111.96499633789062,184.4250030517578 -111.96499633789062,184.4250030517578 C-119.58499908447266,183.5449981689453 -125.33499908447266,177.09500122070312 -125.33499908447266,169.4149932861328 C-125.33499908447266,169.4149932861328 -125.33499908447266,141.4550018310547 -125.33499908447266,141.4550018310547 C-125.33499908447266,95.28500366210938 -92.6351089477539,62.30678176879883 -46.54217529296875,60.0023307800293 C-46.54217529296875,60.0023307800293 -38.87489700317383,59.61850357055664 -38.87489700317383,59.61850357055664 M26.870624542236328,31.91800880432129 C26.870624542236328,31.91800880432129 29.24166488647461,55.898704528808594 29.24166488647461,55.898704528808594 C30.178409576416016,74.63302612304688 15.609752655029297,90.72474670410156 -3.1245710849761963,91.66149139404297 C-21.85889434814453,92.59823608398438 -37.94986343383789,78.0395736694336 -38.8866081237793,59.30525207519531 C-38.8866081237793,59.30525207519531 -39.328792572021484,46.217857360839844 -39.328792572021484,46.217857360839844 M-84.1456069946289,-33.027706146240234 C-84.1456069946289,-33.027706146240234 -74.35904693603516,5.725896835327148 -74.35904693603516,5.725896835327148 C-70.42215728759766,21.28359603881836 -60.68022155761719,33.89738845825195 -48.00019836425781,41.765079498291016 C-45.245426177978516,43.47542953491211 -42.34254837036133,44.970611572265625 -39.33204650878906,46.2196044921875 C-39.33204650878906,46.2196044921875 -39.322792053222656,46.21736145019531 -39.322792053222656,46.21736145019531 C-28.507978439331055,50.69548416137695 -16.27885627746582,52.03569412231445 -4.006697654724121,49.38706970214844 C8.274714469909668,46.736202239990234 18.862287521362305,40.47060012817383 26.865371704101562,31.92050552368164 C26.865371704101562,31.92050552368164 26.874624252319336,31.91826057434082 26.874624252319336,31.91826057434082 C39.32722473144531,18.630617141723633 45.52387237548828,-0.16978022456169128 42.07258987426758,-19.406099319458008 C42.07258987426758,-19.406099319458008 35.64886474609375,-55.13859176635742 35.64886474609375,-55.13859176635742"/>
                </g>
                <g opacity="1" transform="matrix(1,0,0,1,246.11300659179688,137.031005859375)">
                    <path stroke-linecap="round" stroke-linejoin="round" fill-opacity="0" class="secondary" stroke="rgb(8,168,138)" stroke-opacity="1" stroke-width="12" d=" M-80.25647735595703,62.453819274902344 C-49.925479888916016,50.58469009399414 -35.72426223754883,29.663108825683594 -28.71185874938965,-6.785228252410889 C0.40904000401496887,11.669739723205566 10.72817611694336,35.45110321044922 39.470359802246094,40.12015914916992 C49.377628326416016,17.889785766601562 38.37577819824219,-19.72248077392578 25.288631439208984,-32.672210693359375 C14.39604377746582,-43.449893951416016 -1.4224507808685303,-44.29145812988281 -1.4224507808685303,-44.29145812988281 C-23.831348419189453,-44.857906341552734 -35.54719161987305,-38.532405853271484 -45.30126190185547,-31.35565948486328 C-49.35314178466797,-28.374589920043945 -54.6710205078125,-27.745586395263672 -59.29008483886719,-29.737878799438477 C-59.29008483886719,-29.737878799438477 -63.328121185302734,-32.8668212890625 -63.328121185302734,-32.8668212890625 C-75.49995422363281,-35.71894454956055 -86.007568359375,-36.3036994934082 -96.9514389038086,-26.272092819213867 C-106.10298919677734,-17.606075286865234 -109.48501586914062,-3.294257164001465 -108.58776092529297,10.79869270324707 C-106.4755630493164,43.96356964111328 -80.17616271972656,62.322113037109375 -80.17616271972656,62.322113037109375"/>
                </g>
            </g>
            <g clip-path="url(#__lottie_element_24)" transform="matrix(0.9485585689544678,-0.3166016638278961,0.3166016638278961,0.9485585689544678,142.85906982421875,78.75190734863281)" opacity="1" style="display: block;">
                <g opacity="1" transform="matrix(1,0,0,1,0,0)">
                    <path stroke-linecap="round" stroke-linejoin="round" fill-opacity="0" class="primary" stroke="rgb(18,19,49)" stroke-opacity="1" stroke-width="12" d=" M-8.079999923706055,28.479999542236328 C-2.177999973297119,27.072999954223633 3.8550000190734863,25.482999801635742 9.961000442504883,23.71500015258789 C62.99700164794922,8.354999542236328 101.53099822998047,-14.71500015258789 96.02999877929688,-27.812999725341797 C96.02999877929688,-27.812999725341797 96.02999877929688,-27.812999725341797 96.02999877929688,-27.812999725341797 C92.11900329589844,-37.125 67.00599670410156,-38.88800048828125 33.75699996948242,-33.611000061035156"/>
                </g>
            </g>
            <g clip-path="url(#__lottie_element_27)" transform="matrix(0.9717085957527161,-0.23618289828300476,0.23618289828300476,0.9717085957527161,159.59857177734375,73.65370178222656)" opacity="1" style="display: block;">
                <g opacity="1" transform="matrix(1,0,0,1,0,0)">
                    <path stroke-linecap="round" stroke-linejoin="round" fill-opacity="0" class="primary" stroke="rgb(18,19,49)" stroke-opacity="1" stroke-width="12" d=" M-27.608999252319336,-32.571998596191406 C-63.875,-39.07500076293945 -91.88200378417969,-37.689998626708984 -96.02999877929688,-27.812999725341797 C-96.02999877929688,-27.812999725341797 -96.02999877929688,-27.812999725341797 -96.02999877929688,-27.812999725341797 C-101.53099822998047,-14.71500015258789 -62.99700164794922,8.354999542236328 -9.961000442504883,23.71500015258789 C-5.913000106811523,24.886999130249023 -1.8980000019073486,25.981000900268555 2.069000005722046,26.9950008392334"/>
                </g>
            </g>
            <g transform="matrix(1,0,0,1,-35,-35)" opacity="1" style="display: none;">
                <g opacity="1" transform="matrix(1,0,0,1,370.7929992675781,168.94000244140625)">
                    <path stroke-linecap="round" stroke-linejoin="round" fill-opacity="0" class="primary" stroke="rgb(18,19,49)" stroke-opacity="1" stroke-width="12" d="M0 0"/>
                </g>
            </g>
            <g transform="matrix(1,0,0,1,-290.5,-96.5)" opacity="1" style="display: block;">
                <g opacity="1" transform="matrix(1,0,0,1,370.7929992675781,168.94000244140625)">
                    <path stroke-linecap="round" stroke-linejoin="round" fill-opacity="0" class="primary" stroke="rgb(18,19,49)" stroke-opacity="1" stroke-width="12" d=" M0.17900000512599945,-0.17900000512599945 C-3.9040000438690186,3.9040000438690186 -8.04699993133545,8.04699993133545 -8.04699993133545,8.04699993133545 M8.04699993133545,-8.04699993133545 C8.04699993133545,-8.04699993133545 4.142000198364258,-4.142000198364258 0.17900000512599945,-0.17900000512599945 M0.17900000512599945,0.17900000512599945 C-3.9040000438690186,-3.9040000438690186 -8.04699993133545,-8.04699993133545 -8.04699993133545,-8.04699993133545 M8.04699993133545,8.04699993133545 C8.04699993133545,8.04699993133545 4.142000198364258,4.142000198364258 0.17900000512599945,0.17900000512599945"/>
                </g>
            </g>
            <g transform="matrix(1.2999999523162842,0,0,1.2999999523162842,-133.23788452148438,-151.18199157714844)" opacity="1" style="display: block;">
                <g opacity="1" transform="matrix(1,0,0,1,370.7929992675781,168.94000244140625)">
                    <path stroke-linecap="round" stroke-linejoin="round" fill-opacity="0" class="primary" stroke="rgb(18,19,49)" stroke-opacity="1" stroke-width="12" d=" M0.17399999499320984,-0.17399999499320984 C-3.812000036239624,3.812000036239624 -7.859000205993652,7.859000205993652 -7.859000205993652,7.859000205993652 M7.859000205993652,-7.859000205993652 C7.859000205993652,-7.859000205993652 4.045000076293945,-4.045000076293945 0.17399999499320984,-0.17399999499320984 M0.17399999499320984,0.17399999499320984 C-3.812000036239624,-3.812000036239624 -7.859000205993652,-7.859000205993652 -7.859000205993652,-7.859000205993652 M7.859000205993652,7.859000205993652 C7.859000205993652,7.859000205993652 4.045000076293945,4.045000076293945 0.17399999499320984,0.17399999499320984"/>
                </g>
            </g>
            <g transform="matrix(1.2999999523162842,0,0,1.2999999523162842,-374.2378845214844,-78.18199157714844)" opacity="1" style="display: block;">
                <g opacity="1" transform="matrix(1,0,0,1,370.7929992675781,168.94000244140625)">
                    <path stroke-linecap="round" stroke-linejoin="round" fill-opacity="0" class="primary" stroke="rgb(18,19,49)" stroke-opacity="1" stroke-width="12" d=" M0.1599999964237213,-0.1599999964237213 C-3.49399995803833,3.49399995803833 -7.203000068664551,7.203000068664551 -7.203000068664551,7.203000068664551 M7.203000068664551,-7.203000068664551 C7.203000068664551,-7.203000068664551 3.7070000171661377,-3.7070000171661377 0.1599999964237213,-0.1599999964237213 M0.1599999964237213,0.1599999964237213 C-3.49399995803833,-3.49399995803833 -7.203000068664551,-7.203000068664551 -7.203000068664551,-7.203000068664551 M7.203000068664551,7.203000068664551 C7.203000068664551,7.203000068664551 3.7070000171661377,3.7070000171661377 0.1599999964237213,0.1599999964237213"/>
                </g>
            </g>
            <g transform="matrix(-0.5042774081230164,0.6778164505958557,-0.6778164505958557,-0.5042774081230164,628.785888671875,49.30305480957031)" opacity="1" style="display: block;">
                <g opacity="1" transform="matrix(1,0,0,1,370.7929992675781,168.94000244140625)">
                    <path stroke-linecap="round" stroke-linejoin="round" fill-opacity="0" class="primary" stroke="rgb(18,19,49)" stroke-opacity="1" stroke-width="12" d=" M0.0010000000474974513,-0.0010000000474974513 C-0.03200000151991844,0.03200000151991844 -0.06499999761581421,0.06499999761581421 -0.06499999761581421,0.06499999761581421 M0.06499999761581421,-0.06499999761581421 C0.06499999761581421,-0.06499999761581421 0.032999999821186066,-0.032999999821186066 0.0010000000474974513,-0.0010000000474974513 M0.0010000000474974513,0.0010000000474974513 C-0.03200000151991844,-0.03200000151991844 -0.06499999761581421,-0.06499999761581421 -0.06499999761581421,-0.06499999761581421 M0.06499999761581421,0.06499999761581421 C0.06499999761581421,0.06499999761581421 0.032999999821186066,0.032999999821186066 0.0010000000474974513,0.0010000000474974513"/>
                </g>
            </g>
        </g>
    </g>
</svg>