<svg xmlns="http://www.w3.org/2000/svg" version="1.1"
    xmlns:xlink="http://www.w3.org/1999/xlink" width="512" height="512" x="0" y="0" viewBox="0 0 607.776 607.776" style="enable-background:new 0 0 512 512" xml:space="preserve">
    <g>
        <path d="M25.182 250.741A28.365 28.365 0 0 0 1.58 275.204a262.122 262.122 0 0 0-.061 56.918 28.546 28.546 0 0 0 23.683 24.969l32.232 5.277a248.991 248.991 0 0 0 30.925 74.523L69.387 463.39c-7.56 10.25-7.377 24.278.446 34.329a271.118 271.118 0 0 0 19.246 21.161c6.22 6.23 13.097 12.49 21.353 19.428a28.281 28.281 0 0 0 33.954.395l26.63-19.104a248.897 248.897 0 0 0 74.452 30.935l5.288 32.283a28.363 28.363 0 0 0 24.463 23.612 249.45 249.45 0 0 0 17.544 1.347h.861a20.6 20.6 0 0 0 14.181-5.673 20.085 20.085 0 0 0 6.209-14.566v-81.178c-.06-10.847-8.622-19.739-19.459-20.208-96.953-5.062-172.969-85.15-172.969-182.235s76.016-177.173 172.969-182.235c10.854-.476 19.421-9.394 19.459-20.259V20.285a20.052 20.052 0 0 0-6.22-14.576A19.947 19.947 0 0 0 292.812.026c-5.895.233-11.74.658-17.737 1.266a28.25 28.25 0 0 0-24.311 23.723l-5.277 32.252a248.975 248.975 0 0 0-74.452 30.946l-26.63-19.064a28.362 28.362 0 0 0-34.207.547 275.828 275.828 0 0 0-21.059 19.135 244.96 244.96 0 0 0-19.428 21.373 28.362 28.362 0 0 0-.486 34.076l19.094 26.661a248.821 248.821 0 0 0-30.885 74.513zm50.577 5.652a229.46 229.46 0 0 1 33.286-80.205 10.13 10.13 0 0 0-.233-11.477l-23.105-32.262a8.105 8.105 0 0 1-.152-9.583 223.213 223.213 0 0 1 17.838-19.601 259.788 259.788 0 0 1 19.347-17.666 8.104 8.104 0 0 1 9.826 0l32.212 23.116a10.13 10.13 0 0 0 11.477.213 229.071 229.071 0 0 1 80.155-33.296 10.13 10.13 0 0 0 7.952-8.286l6.371-39.009a8.033 8.033 0 0 1 6.625-6.878 256.554 256.554 0 0 1 16.4-1.175l-.223 81.147c-107.843 5.508-192.44 94.585-192.38 202.569.059 107.984 84.754 196.968 192.603 202.357l-.142 81.178a228.142 228.142 0 0 1-16.146-1.246 7.953 7.953 0 0 1-6.726-6.767l-6.382-39.029a10.13 10.13 0 0 0-7.952-8.286 229.129 229.129 0 0 1-80.155-33.306 10.13 10.13 0 0 0-11.477.223l-32.242 23.136a7.962 7.962 0 0 1-9.431.253c-7.445-6.27-13.898-12.155-19.712-17.96a255.89 255.89 0 0 1-17.656-19.327 8.214 8.214 0 0 1 0-9.846l23.085-32.232a10.13 10.13 0 0 0 .223-11.477 229.359 229.359 0 0 1-33.286-80.195 10.131 10.131 0 0 0-8.276-7.952l-38.999-6.392a8.204 8.204 0 0 1-6.817-7.202 239.56 239.56 0 0 1 .061-52.42 7.961 7.961 0 0 1 6.756-6.746l38.988-6.382a10.122 10.122 0 0 0 8.287-7.989z" fill="#000000" opacity="1" data-original="#000000"></path>
        <path d="M577.382 273.522a30.39 30.39 0 0 0-28.525 20.259H314.015v-30.389h162.072c16.783 0 30.388-13.605 30.388-30.388v-52.511c13.954-4.933 22.324-19.202 19.821-33.789s-15.151-25.25-29.951-25.25-27.448 10.663-29.951 25.25 5.867 28.856 19.821 33.789v52.511c0 5.594-4.535 10.13-10.13 10.13h-162.07v-30.389h111.424c5.594 0 10.129-4.535 10.129-10.13s-4.535-10.13-10.129-10.13H314.015v-20.259h60.777c16.783 0 30.389-13.605 30.389-30.389V79.198c13.954-4.933 22.324-19.202 19.821-33.789s-15.151-25.25-29.951-25.25-27.448 10.663-29.951 25.25 5.867 28.856 19.821 33.789v62.641c0 5.594-4.535 10.13-10.13 10.13H311.34a18.72 18.72 0 0 0-17.777-9.805c-85.361 5.407-151.827 76.216-151.827 161.748s66.466 156.341 151.827 161.748h1.185a18.678 18.678 0 0 0 16.592-9.805h63.451c5.594 0 10.13 4.535 10.13 10.13v62.641c-13.954 4.933-22.324 19.202-19.821 33.789s15.151 25.25 29.951 25.25 27.448-10.663 29.951-25.25-5.867-28.856-19.821-33.789v-62.641c0-16.783-13.605-30.389-30.389-30.389h-60.777v-20.259h111.424c5.594 0 10.129-4.535 10.129-10.129s-4.535-10.13-10.129-10.13H314.015V364.69h162.072c5.594 0 10.13 4.535 10.13 10.129v52.511c-13.954 4.933-22.324 19.202-19.821 33.789s15.151 25.25 29.951 25.25 27.448-10.663 29.951-25.25-5.867-28.856-19.821-33.789v-52.511c0-16.783-13.605-30.388-30.388-30.388H314.015V314.04h234.842c5.176 14.532 20.433 22.865 35.458 19.367 15.024-3.498 25.032-17.713 23.258-33.037-1.775-15.322-14.766-26.875-30.191-26.848zm-81.036-131.683c5.594 0 10.129 4.535 10.129 10.13s-4.535 10.13-10.129 10.13-10.129-4.535-10.129-10.13 4.534-10.13 10.129-10.13zM395.051 40.544c5.594 0 10.13 4.535 10.13 10.13s-4.535 10.129-10.13 10.129-10.129-4.535-10.129-10.129 4.534-10.13 10.129-10.13zm0 526.734c-5.594 0-10.129-4.535-10.129-10.13s4.535-10.13 10.129-10.13 10.13 4.535 10.13 10.13-4.536 10.13-10.13 10.13zm101.295-101.295c-5.594 0-10.129-4.535-10.129-10.13s4.535-10.129 10.129-10.129 10.129 4.535 10.129 10.129-4.535 10.13-10.129 10.13zM162.072 303.911c.085-74.357 57.523-136.053 131.684-141.448V445.36c-74.161-5.396-131.599-67.093-131.684-141.449zm415.31 10.129c-5.594 0-10.13-4.535-10.13-10.13s4.535-10.129 10.13-10.129 10.13 4.535 10.13 10.129-4.536 10.13-10.13 10.13z" fill="#000000" opacity="1" data-original="#000000"></path>
    </g>
</svg>