<svg xmlns="http://www.w3.org/2000/svg"
  xmlns:xlink="http://www.w3.org/1999/xlink" viewBox="0 0 430 430" width="430" height="430" preserveAspectRatio="xMidYMid meet" style="width: 100%; height: 100%; transform: translate3d(0px, 0px, 0px); content-visibility: visible;">
  <defs>
    <clipPath id="__lottie_element_2">
      <rect width="430" height="430" x="0" y="0"/>
    </clipPath>
    <clipPath id="__lottie_element_4">
      <path d="M0,0 L430,0 L430,430 L0,430z"/>
    </clipPath>
  </defs>
  <g clip-path="url(#__lottie_element_2)">
    <g clip-path="url(#__lottie_element_4)" transform="matrix(1,0,0,1,0,0)" opacity="1" style="display: block;">
      <g transform="matrix(1,0,0,1,215,215)" opacity="1" style="display: block;">
        <path stroke-linecap="round" stroke-linejoin="round" fill-opacity="0" class="secondary" stroke="rgb(8,168,138)" stroke-opacity="1" stroke-width="12" d=" M65,165 C65,165 30,165 30,165 C30,165 30,125.44599914550781 30,116.6989974975586 M-65,-165 C-65,-165 -30,-165 -30,-165 C-30,-165 -30,-125.44599914550781 -30,-116.6989974975586 M-65,165 C-65,165 -30,165 -30,165 C-30,165 -30,125.44599914550781 -30,116.6989974975586 M65,-165 C65,-165 30,-165 30,-165 C30,-165 30,-125.44599914550781 30,-116.6989974975586 M-165,65 C-165,65 -165,30 -165,30 C-165,30 -125.44599914550781,30 -116.6989974975586,30 M165,-65 C165,-65 165,-30 165,-30 C165,-30 125.44599914550781,-30 116.6989974975586,-30 M-165,-65 C-165,-65 -165,-30 -165,-30 C-165,-30 -125.44599914550781,-30 -116.6989974975586,-30 M165,65 C165,65 165,30 165,30 C165,30 125.44599914550781,30 116.6989974975586,30"/>
        <g opacity="1" transform="matrix(1,0,0,1,0,0)"/>
        <g opacity="1" transform="matrix(1,0,0,1,0,0)"/>
        <g opacity="1" transform="matrix(1,0,0,1,0,0)"/>
        <g opacity="1" transform="matrix(1,0,0,1,0,0)"/>
      </g>
      <g transform="matrix(1,0,0,1,215,215)" opacity="1" style="display: none;">
        <g opacity="1" transform="matrix(1,0,0,1,0,0)"/>
        <path stroke-linecap="round" stroke-linejoin="round" fill-opacity="0" class="primary" stroke-dasharray=" 0 45" stroke-dashoffset="312.5199890136719" stroke="rgb(18,19,49)" stroke-opacity="1" stroke-width="18" d=" M65.72016143798828,165 C65.72016143798828,165 30,165 30,165 C30,165 30,162.01400756835938 30,157.50100708007812 M-65.72016143798828,-165 C-65.72016143798828,-165 -30,-165 -30,-165 C-30,-165 -30,-162.01400756835938 -30,-157.50100708007812 M-67.98866271972656,165 C-67.98866271972656,165 -30,165 -30,165 C-30,165 -30,162.5030059814453 -30,158.62600708007812 M67.98866271972656,-165 C67.98866271972656,-165 30,-165 30,-165 C30,-165 30,-162.5030059814453 30,-158.62600708007812 M-165,65.72016143798828 C-165,65.72016143798828 -165,30 -165,30 C-165,30 -162.01400756835938,30 -157.50100708007812,30 M165,-65.72016143798828 C165,-65.72016143798828 165,-30 165,-30 C165,-30 162.01400756835938,-30 157.50100708007812,-30 M-165,-67.95265197753906 C-165,-67.95265197753906 -165,-30 -165,-30 C-165,-30 -162.49600219726562,-30 -158.60800170898438,-30 M165,67.91664123535156 C165,67.91664123535156 165,30 165,30 C165,30 162.48800659179688,30 158.58999633789062,30"/>
        <g opacity="1" transform="matrix(1,0,0,1,0,0)"/>
        <g opacity="1" transform="matrix(1,0,0,1,0,0)"/>
        <g opacity="1" transform="matrix(1,0,0,1,0,0)"/>
        <g opacity="1" transform="matrix(1,0,0,1,0,0)"/>
      </g>
      <g transform="matrix(-1,0,0,-1,135,50)" opacity="1" style="display: block;">
        <g opacity="1" transform="matrix(0,-1,1,0,0,0)">
          <path stroke-linecap="butt" stroke-linejoin="miter" fill-opacity="0" stroke-miterlimit="4" class="secondary" stroke="rgb(8,168,138)" stroke-opacity="1" stroke-width="12" d=" M0,-15 C8.278499603271484,-15 15,-8.278499603271484 15,0 C15,8.278499603271484 8.278499603271484,15 0,15 C-8.278499603271484,15 -15,8.278499603271484 -15,0 C-15,-8.278499603271484 -8.278499603271484,-15 0,-15z"/>
        </g>
      </g>
      <g transform="matrix(1,0,0,1,295,380)" opacity="1" style="display: block;">
        <g opacity="1" transform="matrix(0,-1,1,0,0,0)">
          <path stroke-linecap="butt" stroke-linejoin="miter" fill-opacity="0" stroke-miterlimit="4" class="secondary" stroke="rgb(8,168,138)" stroke-opacity="1" stroke-width="12" d=" M0,-15 C8.278499603271484,-15 15,-8.278499603271484 15,0 C15,8.278499603271484 8.278499603271484,15 0,15 C-8.278499603271484,15 -15,8.278499603271484 -15,0 C-15,-8.278499603271484 -8.278499603271484,-15 0,-15z"/>
        </g>
      </g>
      <g transform="matrix(-1,0,0,-1,295,50)" opacity="1" style="display: block;">
        <g opacity="1" transform="matrix(0,-1,1,0,0,0)">
          <path stroke-linecap="butt" stroke-linejoin="miter" fill-opacity="0" stroke-miterlimit="4" class="secondary" stroke="rgb(8,168,138)" stroke-opacity="1" stroke-width="12" d=" M0,-15 C8.278499603271484,-15 15,-8.278499603271484 15,0 C15,8.278499603271484 8.278499603271484,15 0,15 C-8.278499603271484,15 -15,8.278499603271484 -15,0 C-15,-8.278499603271484 -8.278499603271484,-15 0,-15z"/>
        </g>
      </g>
      <g transform="matrix(1,0,0,1,135,380)" opacity="1" style="display: block;">
        <g opacity="1" transform="matrix(0,-1,1,0,0,0)">
          <path stroke-linecap="butt" stroke-linejoin="miter" fill-opacity="0" stroke-miterlimit="4" class="secondary" stroke="rgb(8,168,138)" stroke-opacity="1" stroke-width="12" d=" M0,-15 C8.278499603271484,-15 15,-8.278499603271484 15,0 C15,8.278499603271484 8.278499603271484,15 0,15 C-8.278499603271484,15 -15,8.278499603271484 -15,0 C-15,-8.278499603271484 -8.278499603271484,-15 0,-15z"/>
        </g>
      </g>
      <g transform="matrix(1,0,0,-1,380,135)" opacity="1" style="display: block;">
        <g opacity="1" transform="matrix(0,-1,1,0,0,0)">
          <path stroke-linecap="butt" stroke-linejoin="miter" fill-opacity="0" stroke-miterlimit="4" class="secondary" stroke="rgb(8,168,138)" stroke-opacity="1" stroke-width="12" d=" M0,-15 C8.278499603271484,-15 15,-8.278499603271484 15,0 C15,8.278499603271484 8.278499603271484,15 0,15 C-8.278499603271484,15 -15,8.278499603271484 -15,0 C-15,-8.278499603271484 -8.278499603271484,-15 0,-15z"/>
        </g>
      </g>
      <g transform="matrix(-1,0,0,-1,50,295)" opacity="1" style="display: block;">
        <g opacity="1" transform="matrix(0,-1,1,0,0,0)">
          <path stroke-linecap="butt" stroke-linejoin="miter" fill-opacity="0" stroke-miterlimit="4" class="secondary" stroke="rgb(8,168,138)" stroke-opacity="1" stroke-width="12" d=" M0,-15 C8.278499603271484,-15 15,-8.278499603271484 15,0 C15,8.278499603271484 8.278499603271484,15 0,15 C-8.278499603271484,15 -15,8.278499603271484 -15,0 C-15,-8.278499603271484 -8.278499603271484,-15 0,-15z"/>
        </g>
      </g>
      <g transform="matrix(1,0,0,-1,380,295)" opacity="1" style="display: block;">
        <g opacity="1" transform="matrix(0,-1,1,0,0,0)">
          <path stroke-linecap="butt" stroke-linejoin="miter" fill-opacity="0" stroke-miterlimit="4" class="secondary" stroke="rgb(8,168,138)" stroke-opacity="1" stroke-width="12" d=" M0,-15 C8.278499603271484,-15 15,-8.278499603271484 15,0 C15,8.278499603271484 8.278499603271484,15 0,15 C-8.278499603271484,15 -15,8.278499603271484 -15,0 C-15,-8.278499603271484 -8.278499603271484,-15 0,-15z"/>
        </g>
      </g>
      <g transform="matrix(-1,0,0,-1,50,135)" opacity="1" style="display: block;">
        <g opacity="1" transform="matrix(0,-1,1,0,0,0)">
          <path stroke-linecap="butt" stroke-linejoin="miter" fill-opacity="0" stroke-miterlimit="4" class="secondary" stroke="rgb(8,168,138)" stroke-opacity="1" stroke-width="12" d=" M0,-15 C8.278499603271484,-15 15,-8.278499603271484 15,0 C15,8.278499603271484 8.278499603271484,15 0,15 C-8.278499603271484,15 -15,8.278499603271484 -15,0 C-15,-8.278499603271484 -8.278499603271484,-15 0,-15z"/>
        </g>
      </g>
      <g transform="matrix(1,0,0,1,215,215.33799743652344)" opacity="1" style="display: block;">
        <g opacity="1" transform="matrix(1,0,0,1,0,0)">
          <path stroke-linecap="round" stroke-linejoin="round" fill-opacity="0" class="primary" stroke-dasharray=" 0" stroke-dashoffset="22" stroke="rgb(18,19,49)" stroke-opacity="1" stroke-width="12" d=" M115,-95 C115,-106.0459976196289 106.0459976196289,-115 95,-115 C95,-115 -95,-115 -95,-115 C-106.0459976196289,-115 -115,-106.0459976196289 -115,-95 C-115,-95 -115,95 -115,95 C-115,106.0459976196289 -106.0459976196289,115 -95,115 C-95,115 95,115 95,115 C106.0459976196289,115 115,106.0459976196289 115,95 C115,95 115,-95 115,-95z"/>
        </g>
      </g>
      <g transform="matrix(1,0,0,1,208.5,215)" opacity="1" style="display: block;">
        <g opacity="1" transform="matrix(1,0,0,1,0,0)">
          <g opacity="1" transform="matrix(1,0,0,1,0,0)">
            <path stroke-linecap="round" stroke-linejoin="round" fill-opacity="0" class="secondary" stroke="rgb(8,168,138)" stroke-opacity="1" stroke-width="12" d="M0 0"/>
          </g>
          <g opacity="1" transform="matrix(1,0,0,1,0,0)">
            <path stroke-linecap="round" stroke-linejoin="round" fill-opacity="0" class="secondary" stroke="rgb(8,168,138)" stroke-opacity="1" stroke-width="12" d="M0 0"/>
          </g>
          <g opacity="1" transform="matrix(1,0,0,1,0,0)">
            <path stroke-linecap="round" stroke-linejoin="round" fill-opacity="0" class="secondary" stroke="rgb(8,168,138)" stroke-opacity="1" stroke-width="12" d="M0 0"/>
          </g>
        </g>
        <g opacity="1" transform="matrix(1,0,0,1,0,0)">
          <g opacity="1" transform="matrix(1,0,0,1,0,0)">
            <path stroke-linecap="round" stroke-linejoin="round" fill-opacity="0" class="secondary" stroke="rgb(8,168,138)" stroke-opacity="1" stroke-width="12" d=" M53.5,-40 C53.5,-40 53.5,40 53.5,40"/>
          </g>
          <g opacity="1" transform="matrix(1,0,0,1,0,0)">
            <path stroke-linecap="round" stroke-linejoin="round" fill-opacity="0" class="secondary" stroke="rgb(8,168,138)" stroke-opacity="1" stroke-width="12" d=" M13.3149995803833,20.215999603271484 C13.3149995803833,20.215999603271484 -45.31800079345703,20.215999603271484 -45.31800079345703,20.215999603271484"/>
          </g>
          <g opacity="1" transform="matrix(1,0,0,1,0,0)">
            <path stroke-linecap="round" stroke-linejoin="round" fill-opacity="0" class="secondary" stroke="rgb(8,168,138)" stroke-opacity="1" stroke-width="12" d=" M21.488000869750977,39.96699905395508 C21.488000869750977,39.96699905395508 -11.598999977111816,-40 -11.598999977111816,-40 C-11.598999977111816,-40 -20.415000915527344,-40 -20.415000915527344,-40 C-20.415000915527344,-40 -53.516998291015625,40.04399871826172 -53.516998291015625,40.04399871826172"/>
          </g>
        </g>
      </g>
    </g>
  </g>
</svg>