<svg xmlns="http://www.w3.org/2000/svg" version="1.1"
    xmlns:xlink="http://www.w3.org/1999/xlink" width="512" height="512" x="0" y="0" viewBox="0 0 392.362 392.362" style="enable-background:new 0 0 512 512" xml:space="preserve">
    <g>
        <path d="M74.832 334.417a6.29 6.29 0 0 0-.388-.321c-4-3.32-8-6.88-11.68-10.56a6 6 0 0 0-8.44 0 6 6 0 0 0 0 8.48c4 4 8 7.72 12.48 11.32a6 6 0 0 0 8.028-8.919zM12.038 156.534a6 6 0 0 0-7.954 5.122c-1.2 5.48-2.12 11.04-2.8 16.6a6 6 0 0 0 5.08 6.72h.76a5.999 5.999 0 0 0 5.96-5.28c.64-5.2 1.52-10.44 2.64-15.52a5.999 5.999 0 0 0-3.686-7.642zM45.004 302.616c-3.08-4.24-6-8.64-8.68-13.12a6 6 0 0 0-8.224-2.09l-.016.01a6 6 0 0 0-2.09 8.224l.01.016c2.88 4.8 6 9.52 9.32 14.04a6 6 0 0 0 9.68-7.08zM24.084 264.776c-1.92-4.84-3.68-9.84-5.16-14.88a6 6 0 0 0-7.6-4.04 6 6 0 0 0-4 7.44c1.6 5.36 3.44 10.72 5.52 16a6.057 6.057 0 1 0 11.24-4.52zM27.664 115.396a6.002 6.002 0 0 0-8.06 2.66c-2.52 5-4.84 10.16-6.88 15.4a6 6 0 0 0 3.36 7.76 6 6 0 0 0 7.788-3.369l.012-.031c1.92-4.88 4-9.72 6.44-14.36a6.002 6.002 0 0 0-2.66-8.06zM13.286 223.033l-.002-.016c-.64-5.2-1.08-10.48-1.28-15.68a6.004 6.004 0 1 0-12 .44c0 5.6.64 11.24 1.36 16.8a6 6 0 0 0 5.8 5.16h.92a6 6 0 0 0 5.202-6.704zM172.464 22.876a6.028 6.028 0 0 0-6.58-5.42c-5.56.56-11.16 1.36-16.68 2.44a6.026 6.026 0 1 0 1.12 12l-.04-.16h1.16c5.16-1 10.4-1.76 15.6-2.28a6.028 6.028 0 0 0 5.42-6.58zM53.724 79.096a6.036 6.036 0 0 0-8.52.52c-3.68 4.2-7.2 8.64-10.48 13.2a6 6 0 0 0 4.84 9.52v.08a5.999 5.999 0 0 0 4.88-2.48c3.08-4.24 6.36-8.4 9.8-12.32a6.036 6.036 0 0 0-.52-8.52zM212.004 18.456c-5.52-.84-11.16-1.44-16.76-1.76a6.01 6.01 0 1 0-.72 12c5.28.4 10.52.96 15.68 1.76h.92a6.016 6.016 0 1 0 .88-12zM87.799 50.507a6 6 0 0 0-8.075-1.491c-4.6 3.16-9.12 6.6-13.44 10.16a6.007 6.007 0 0 0-.78 8.46 6.007 6.007 0 0 0 8.46.78c4-3.36 8.24-6.56 12.56-9.52a6 6 0 0 0 1.275-8.389zM107.924 45.656c-.02 0-.039-.004-.059-.004-.021 0-.041.004-.061.004h.12z" fill="#000000" opacity="1" data-original="#000000"></path>
        <path d="M129.081 31.602a6 6 0 0 0-8.198-3.905c-5.24 1.92-10.48 4-15.52 6.52a5.999 5.999 0 0 0 2.501 11.436 5.998 5.998 0 0 0 2.499-.596c4.72-2.24 9.6-4.28 14.52-6.08a6 6 0 0 0 4.198-7.375zM201.624 378.676a6.012 6.012 0 0 0-6.38-5.62c-5.24.4-10.52.52-15.76.36a6.002 6.002 0 1 0-.32 12h5.08c4 0 8 0 11.76-.36a6.011 6.011 0 0 0 5.62-6.38zM358.664 239.676a6.006 6.006 0 0 0-7.3 4.34 163.11 163.11 0 0 1-4.6 15.04 6 6 0 0 0 3.64 7.56 6 6 0 0 0 7.674-3.622l.006-.018c1.88-5.28 3.52-10.68 4.92-16a6.005 6.005 0 0 0-4.34-7.3zM366.324 170.976c-.92-5.52-2.08-11.08-3.48-16.48a6 6 0 0 0-11.6 3.04c1.32 5.04 2.4 10.24 3.28 15.4a6 6 0 0 0 5.84 4.92h1a5.999 5.999 0 0 0 4.96-6.88z" fill="#000000" opacity="1" data-original="#000000"></path>
        <path d="M391.825 102.109a5.817 5.817 0 0 0-1.141-1.652l-10.6-11.04a5.798 5.798 0 0 0-5.8-1.44l-19.12 5.8-22.4-23.76 50.28-28a5.838 5.838 0 0 0 1.72-9.399l-14.12-14.12a5.84 5.84 0 0 0-5.8-1.36l-63.72 19.28-21.44-22.76a19.4 19.4 0 0 0-22.08-5.24h-.36a23.6 23.6 0 0 0-12.84 12.84 21.62 21.62 0 0 0-1.28 4.72l-2.44-.84a6.009 6.009 0 0 0-3.68 11.44c3.08 1 6.16 2.12 9.24 3.28a23.034 23.034 0 0 0 3.24 4l22.6 21.44-6.48 21.4c-63.378-45.209-151.405-30.48-196.614 32.898S38.51 271 101.888 316.209s151.405 30.48 196.614-32.898c36.052-50.541 34.794-118.718-3.098-167.894l10.24-18.48 23.76 22.4-5.72 18.92a5.8 5.8 0 0 0 1.4 5.92s11.72 11.6 12 12a5.801 5.801 0 0 0 8-2.24l15.64-28.68 28.24-15.4a5.84 5.84 0 0 0 2.861-7.748zm-298.661 7.907a128.444 128.444 0 0 1 90.92-37.6c2.667 0 5.333.08 8 .24 22.68 20.92 16 40 .8 57.2a280.776 280.776 0 0 1-28.8 26.56c-14.76 12.56-28.52 24.28-33.72 36-6.16 13.92-1.64 26.52 23.24 37.52 12.44 5.52 19.2 9.8 21.84 13.04.039.047.077.08.116.109a6.634 6.634 0 0 0-.276.091 49.712 49.712 0 0 1-18.88 3.24c-30.16 1.28-51.64-18-68.32-32.92-12-10.68-21.96-19.56-32.32-19.64a128.443 128.443 0 0 1 37.4-83.84zm219.96 91.12h.04c-.018 55.75-35.857 105.176-88.84 122.52a41.963 41.963 0 0 1 4.92-27.24 99.168 99.168 0 0 1 24-26.4c36.92-30.8 39-48 40.6-61.24 1-8.36 1.76-14.6 18.28-23.68.663 5.321.997 10.678 1 16.04zm-7.44-43.28a127.608 127.608 0 0 1 4.4 15.4c-25.16 12.8-26.28 21.92-27.8 34.36-1.36 11.2-3.12 25.84-36.48 53.68a109.405 109.405 0 0 0-26.8 29.72 53.045 53.045 0 0 0-6 35.72c-69.389 15.862-138.498-27.53-154.36-96.918a128.893 128.893 0 0 1-3.16-24.162c6.36 0 14.6 7.56 24.72 16.56 18.32 16.36 41.76 37.24 76.68 36a59.996 59.996 0 0 0 24-4.56 12 12 0 0 0 6.64-7.52 11.44 11.44 0 0 0-2.88-10.44c-3.76-4.6-12-10.04-26.16-16.36-16.92-7.48-20.6-14.76-17.28-22.2 4-9.36 16.88-20 30.56-32a291.17 291.17 0 0 0 30.04-28c16.72-19.04 25.32-39.8 8.32-62.52a127.996 127.996 0 0 1 52 23.64l-9.2 30.36a5.84 5.84 0 0 0 1.4 5.92s14.92 14.8 15.4 15.08a5.801 5.801 0 0 0 8-2.24l11.64-21.04a128.607 128.607 0 0 1 16.32 31.52zm53.64-44.68-5.16 2.56a5.76 5.76 0 0 0-2.64 2.68l-2.56 5.2-9.96 18-2.92-3.2 5.8-19.16a5.8 5.8 0 0 0-1.88-6.16l-31.56-29.72a5.8 5.8 0 0 0-8.36.24c-.4.44-28.8 51.6-28.8 51.6l-6.2-6.2 19.36-63.8a5.799 5.799 0 0 0-1.88-6.2l-25.12-23.64a8.32 8.32 0 0 1-2.28-9.6 12.562 12.562 0 0 1 6.52-6.48h.2a8.321 8.321 0 0 1 9.36 2.4l24 25.36a5.8 5.8 0 0 0 5.92 1.6l64-19.32 6.2 6.2-50.8 27.92a5.799 5.799 0 0 0-2.24 8c.24.44 30.84 33 30.84 33a5.8 5.8 0 0 0 5.92 1.56l19.24-5.8 3 3-18 9.96zM343.87 281.844a6 6 0 0 0-8.266 2.213c-2.52 4.6-5.28 9.12-8.24 13.44a6.015 6.015 0 0 0 9.84 6.92c3.12-4.64 6.08-9.48 8.8-14.36a6 6 0 0 0-2.134-8.213zM362.844 194.256a6.001 6.001 0 0 0-6.08 6.16v.68c0 5.24-.24 10.52-.72 15.76a6 6 0 0 0 5.431 6.519l.009.001h.56a6 6 0 0 0 6.04-5.56c.52-5.56.76-11.2.76-16.8v-.8a6 6 0 0 0-6-5.96zM152.164 370.416c-5.2-.88-10.36-2-15.36-3.52a6.001 6.001 0 1 0-3.28 11.521c5.36 1.52 10.88 2.84 16.4 4h1.12a6.027 6.027 0 0 0 1.12-12.001zM245.001 368.593a6 6 0 0 0-7.277-3.696v.16c-4.96 1.64-10.08 3.04-15.16 4a6.007 6.007 0 0 0 2.64 11.72c5.44-1.24 10.92-2.76 16.24-4.48a6 6 0 0 0 3.557-7.704zM111.004 357.336c-4.76-2.36-9.44-4.92-13.96-7.48a6.006 6.006 0 1 0-6.08 10.36c4.84 2.84 9.84 5.48 14.92 8a6.013 6.013 0 0 0 5.12-10.88zM318.379 318.74a6 6 0 0 0-8.375.277h.04c-3.6 4-7.4 7.52-11.28 11a6.006 6.006 0 0 0 8 8.96c4-3.72 8.24-7.68 12-11.76a6 6 0 0 0-.385-8.477zM285.275 348.668a6 6 0 0 0-8.511-1.891v-.16c-4.4 2.8-9 5.44-13.64 8a6.002 6.002 0 0 0 5.48 10.68c4.96-2.56 9.88-5.4 14.6-8.4a6 6 0 0 0 2.071-8.229z" fill="#000000" opacity="1" data-original="#000000"></path>
    </g>
</svg>