<svg xmlns="http://www.w3.org/2000/svg"
    xmlns:xlink="http://www.w3.org/1999/xlink" viewBox="0 0 430 430" width="430" height="430" preserveAspectRatio="xMidYMid meet" style="width: 100%; height: 100%; transform: translate3d(0px, 0px, 0px); content-visibility: visible;">
    <defs>
        <clipPath id="__lottie_element_26">
            <rect width="430" height="430" x="0" y="0"/>
        </clipPath>
        <clipPath id="__lottie_element_28">
            <path d="M0,0 L430,0 L430,430 L0,430z"/>
        </clipPath>
        <clipPath id="__lottie_element_33">
            <path d="M0,0 L430,0 L430,430 L0,430z"/>
        </clipPath>
        <g id="__lottie_element_36">
            <g clip-path="url(#__lottie_element_37)" transform="matrix(1,0,0,1,0,0)" opacity="1" style="display: block;">
                <g transform="matrix(1,0,0,1,527.7425537109375,505.0184631347656)" opacity="1" style="display: block;">
                    <g opacity="1" transform="matrix(0.8124547004699707,-0.5830243229866028,0.5830243229866028,0.8124547004699707,102.17610168457031,-74.36394500732422)">
                        <path stroke-linecap="round" stroke-linejoin="round" fill-opacity="0" class="primary" stroke="rgb(18,19,49)" stroke-opacity="1" stroke-width="36" d=" M-64.5,-221.5 C-64.5,-221.5 -64.5,-196 -64.5,-196"/>
                    </g>
                    <g opacity="1" transform="matrix(0.8124547004699707,0.5830243229866028,-0.5830243229866028,0.8124547004699707,-126.36944580078125,0.84619140625)">
                        <path stroke-linecap="round" stroke-linejoin="round" fill-opacity="0" class="primary" stroke="rgb(18,19,49)" stroke-opacity="1" stroke-width="36" d=" M-64.5,-221.5 C-64.5,-221.5 -64.5,-196 -64.5,-196"/>
                    </g>
                </g>
                <g transform="matrix(1,0,0,1,399.4386291503906,444.34478759765625)" opacity="1" style="display: block;">
                    <g opacity="1" transform="matrix(-0.6220121383666992,-0.7830075621604919,0.7830075621604919,-0.6220121383666992,48.849700927734375,-368.4183654785156)">
                        <path stroke-linecap="round" stroke-linejoin="round" fill-opacity="0" class="primary" stroke="rgb(18,19,49)" stroke-opacity="1" stroke-width="36" d=" M-64.5,-221.5 C-64.5,-221.5 -64.5,-196 -64.5,-196"/>
                    </g>
                    <g opacity="1" transform="matrix(-0.6220121383666992,0.7830075621604919,-0.7830075621604919,-0.6220121383666992,-258.0892639160156,-267.410400390625)">
                        <path stroke-linecap="round" stroke-linejoin="round" fill-opacity="0" class="primary" stroke="rgb(18,19,49)" stroke-opacity="1" stroke-width="36" d=" M-64.5,-221.5 C-64.5,-221.5 -64.5,-196 -64.5,-196"/>
                    </g>
                </g>
            </g>
        </g>
        <clipPath id="__lottie_element_37">
            <path d="M0,0 L430,0 L430,430 L0,430z"/>
        </clipPath>
        <filter id="__lottie_element_43" filterUnits="objectBoundingBox" x="0%" y="0%" width="100%" height="100%">
            <feComponentTransfer in="SourceGraphic">
                <feFuncA type="table" tableValues="1.0 0.0"/>
            </feComponentTransfer>
        </filter>
        <mask id="__lottie_element_36_2" mask-type="alpha">
            <g filter="url(#__lottie_element_43)">
                <rect width="430" height="430" x="0" y="0" fill="#ffffff" opacity="0"/>
                <use xmlns:ns1="http://www.w3.org/1999/xlink" ns1:href="#__lottie_element_36"/>
            </g>
        </mask>
    </defs>
    <g clip-path="url(#__lottie_element_26)">
        <g clip-path="url(#__lottie_element_28)" transform="matrix(1,0,0,1,0,0)" opacity="1" style="display: block;">
            <g mask="url(#__lottie_element_36_2)" style="display: block;">
                <g clip-path="url(#__lottie_element_33)" transform="matrix(1,0,0,1,0,0)" opacity="1">
                    <g transform="matrix(1,0,0,1,290.45062255859375,350)" opacity="1" style="display: block;">
                        <g opacity="1" transform="matrix(1,0,0,1,0,0)">
                            <path stroke-linecap="round" stroke-linejoin="round" fill-opacity="0" class="secondary" stroke="rgb(8,168,138)" stroke-opacity="1" stroke-width="12" d=" M-20,25 C-20,25 -20,-25 -20,-25 C-20,-25 20,-25 20,-25 C20,-25 20,25 20,25"/>
                        </g>
                    </g>
                    <g transform="matrix(1,0,0,1,290.45062255859375,332.5)" opacity="1" style="display: block;">
                        <g opacity="1" transform="matrix(1,0,0,1,0,0)">
                            <path stroke-linecap="round" stroke-linejoin="round" fill-opacity="0" class="primary" stroke="rgb(18,19,49)" stroke-opacity="1" stroke-width="12" d=" M-120,-42.5 C-120,-42.5 -120,42.5 -120,42.5 C-120,42.5 120,42.5 120,42.5 C120,42.5 120,-42.5 120,-42.5 M-85,-42.5 C-85,-42.5 -85,42.5 -85,42.5 M-50,-42.5 C-50,-42.5 -50,42.5 -50,42.5 M85,-42.5 C85,-42.5 85,42.5 85,42.5 M50,-42.5 C50,-42.5 50,42.5 50,42.5"/>
                        </g>
                    </g>
                    <g transform="matrix(1,0,0,1,290.45062255859375,192.5)" opacity="1" style="display: block;">
                        <g opacity="1" transform="matrix(1,0,0,1,0,0)">
                            <path stroke-linecap="round" stroke-linejoin="round" fill-opacity="0" class="secondary" stroke="rgb(8,168,138)" stroke-opacity="1" stroke-width="12" d=" M-50,97.5 C-50,97.5 0,42.5 0,42.5 C0,42.5 50,97.5 50,97.5 M-25,-52.5 C-25,-52.5 25,-52.5 25,-52.5 M-25,-52.5 C-25,-66.30699920654297 -13.807000160217285,-77.5 0,-77.5 M25,-52.5 C25,-66.30699920654297 13.807000160217285,-77.5 0,-77.5 M0,-77.5 C0,-77.5 0,-97.5 0,-97.5 M-25,-52.5 C-25,-52.5 -75,-7.5 -75,-7.5 M-51.5629997253418,22.5 C-51.5629997253418,22.5 -75,-7.5 -75,-7.5 M25,-52.5 C25,-52.5 75,-7.5 75,-7.5 M-75,-7.5 C-75,-7.5 75,-7.5 75,-7.5 M75,-7.5 C75,-7.5 51.5629997253418,22.5 51.5629997253418,22.5 M-75,22.5 C-75,22.5 75,22.5 75,22.5 C75,22.5 120,97.5 120,97.5 C120,97.5 -120,97.5 -120,97.5 C-120,97.5 -75,22.5 -75,22.5z"/>
                        </g>
                    </g>
                    <g transform="matrix(1,0,0,1,84.54937744140625,345)" opacity="1" style="display: block;">
                        <g opacity="1" transform="matrix(1,0,0,1,0,0)">
                            <path stroke-linecap="round" stroke-linejoin="round" fill-opacity="0" class="secondary" stroke="rgb(8,168,138)" stroke-opacity="1" stroke-width="12" d=" M-20,30 C-20,30 -20,-30 -20,-30 C-20,-30 20,-30 20,-30 C20,-30 20,30 20,30"/>
                        </g>
                    </g>
                    <g transform="matrix(1,0,0,1,84.54937744140625,52.5)" opacity="1" style="display: block;">
                        <g opacity="1" transform="matrix(1,0,0,1,0,0)">
                            <path stroke-linecap="round" stroke-linejoin="round" fill-opacity="0" class="secondary" stroke="rgb(8,168,138)" stroke-opacity="1" stroke-width="12" d=" M0,-2.5 C0,-2.5 0,-27.5 0,-27.5 M40,27.5 C40,10.930999755859375 26.569000244140625,-2.5 10,-2.5 C10,-2.5 -10,-2.5 -10,-2.5 C-26.569000244140625,-2.5 -40,10.930999755859375 -40,27.5"/>
                        </g>
                    </g>
                    <g transform="matrix(1,0,0,1,84.54937744140625,227.5)" opacity="1" style="display: block;">
                        <g opacity="1" transform="matrix(1,0,0,1,0,0)">
                            <path stroke-linecap="round" stroke-linejoin="round" fill-opacity="0" class="primary" stroke="rgb(18,19,49)" stroke-opacity="1" stroke-width="12" d=" M25,2.5 C25,2.5 65,2.5 65,2.5 M25,32.5 C25,32.5 65,32.5 65,32.5 M-65,2.5 C-65,2.5 -25,2.5 -25,2.5 M-65,32.5 C-65,32.5 -25,32.5 -25,32.5 M-65,62.5 C-65,62.5 65,62.5 65,62.5 M-50,-147.5 C-50,-147.5 50,-147.5 50,-147.5 M-40,-117.5 C-40,-117.5 -40,-147.5 -40,-147.5 M40,-147.5 C40,-147.5 40,-117.5 40,-117.5 M25,62.5 C25,62.5 25,-12.5 25,-12.5 C25,-112.75399780273438 0,-117.5 0,-117.5 C0,-117.5 -25,-112.75399780273438 -25,-12.5 C-25,-12.5 -25,62.5 -25,62.5 M-50,-117.5 C-50,-117.5 -65,-102.5 -65,-2.5 C-65,58 -65,147.5 -65,147.5 C-65,147.5 65,147.5 65,147.5 C65,147.5 65,57.5 65,-2.5 C65,-102.5 50,-117.5 50,-117.5 C50,-117.5 -50,-117.5 -50,-117.5z"/>
                        </g>
                    </g>
                </g>
            </g>
            <g transform="matrix(1,0,0,1,527.7425537109375,505.0184631347656)" opacity="1" style="display: block;">
                <g opacity="1" transform="matrix(0.8124547004699707,-0.5830243229866028,0.5830243229866028,0.8124547004699707,102.17610168457031,-74.36394500732422)">
                    <path stroke-linecap="round" stroke-linejoin="round" fill-opacity="0" class="primary" stroke="rgb(18,19,49)" stroke-opacity="1" stroke-width="12" d=" M-64.5,-221.5 C-64.5,-221.5 -64.5,-196 -64.5,-196"/>
                </g>
                <g opacity="1" transform="matrix(0.8124547004699707,0.5830243229866028,-0.5830243229866028,0.8124547004699707,-126.36944580078125,0.84619140625)">
                    <path stroke-linecap="round" stroke-linejoin="round" fill-opacity="0" class="primary" stroke="rgb(18,19,49)" stroke-opacity="1" stroke-width="12" d=" M-64.5,-221.5 C-64.5,-221.5 -64.5,-196 -64.5,-196"/>
                </g>
            </g>
            <g transform="matrix(1,0,0,1,399.4386291503906,444.34478759765625)" opacity="1" style="display: block;">
                <g opacity="1" transform="matrix(-0.6220121383666992,-0.7830075621604919,0.7830075621604919,-0.6220121383666992,48.849700927734375,-368.4183654785156)">
                    <path stroke-linecap="round" stroke-linejoin="round" fill-opacity="0" class="primary" stroke="rgb(18,19,49)" stroke-opacity="1" stroke-width="12" d=" M-64.5,-221.5 C-64.5,-221.5 -64.5,-196 -64.5,-196"/>
                </g>
                <g opacity="1" transform="matrix(-0.6220121383666992,0.7830075621604919,-0.7830075621604919,-0.6220121383666992,-258.0892639160156,-267.410400390625)">
                    <path stroke-linecap="round" stroke-linejoin="round" fill-opacity="0" class="primary" stroke="rgb(18,19,49)" stroke-opacity="1" stroke-width="12" d=" M-64.5,-221.5 C-64.5,-221.5 -64.5,-196 -64.5,-196"/>
                </g>
            </g>
        </g>
    </g>
</svg>